<?xml version="1.0" encoding="UTF-8" standalone="no"?>
<!-- Created with Inkscape (http://www.inkscape.org/) -->

<svg
   version="1.1"
   id="svg2"
   xml:space="preserve"
   width="269.64944"
   height="123.57181"
   viewBox="0 0 269.64944 123.57181"
   xmlns="http://www.w3.org/2000/svg"
   xmlns:svg="http://www.w3.org/2000/svg"><defs
     id="defs6" /><g
     id="layer9"
     style="display:inline"
     transform="translate(-100.11956,-642.1038)"><g
       id="g92655"><text
         transform="matrix(1.33333,0,0,1.33333,0,1344)"
         style="font-variant:normal;font-weight:normal;font-stretch:normal;font-size:10px;font-family:Tahoma;-inkscape-font-specification:Tahoma;writing-mode:lr-tb;fill:#231f20;fill-opacity:1;fill-rule:nonzero;stroke:none"
         id="text886"
         x="74.538101"
         y="-488.8457"><tspan
           x="74.538101 82.2481 87.8181 90.108101 93.448097 95.738098 99.368103 102.5481 104.8381 110.4181 115.9481 121.2081"
           y="-488.8457"
           id="tspan878">Multi-finger</tspan><tspan
           id="tspan884"
           x="74.538101"
           y="-476.3457">drag</tspan></text><g
         id="g888"
         transform="matrix(1.33333,0,0,-1.33333,236.944,655.047)"><path
           d="M 0,0 -5.169,4.346 V 2.572 h -26.558 -5.002 v 1.774 l -5.169,-4.345 5.169,-4.347 v 1.774 h 26.556 5.004 v -1.774 z"
           style="fill:#110f0d;fill-opacity:1;fill-rule:nonzero;stroke:none"
           id="path890" /></g><g
         id="g892"
         transform="matrix(1.33333,0,0,-1.33333,341.794,655.047)"><path
           d="M 0,0 -5.169,4.346 V 2.572 h -26.557 -5.003 v 1.774 l -5.169,-4.345 5.169,-4.347 v 1.774 h 26.556 5.004 v -1.774 z"
           style="fill:#110f0d;fill-opacity:1;fill-rule:nonzero;stroke:none"
           id="path894" /></g><g
         id="g896"
         transform="matrix(1.33333,0,0,-1.33333,227.068,683.266)"><path
           d="m 0,0 1.164,8.29 c 0.194,1.39 -0.772,2.676 -2.159,2.871 -1.39,0.194 -2.674,-0.774 -2.87,-2.164 L -4.103,7.305 c -0.5,0.448 -1.033,0.877 -1.593,1.283 l 0.694,4.952 c 0.256,1.82 -0.852,3.481 -2.476,3.71 -1.623,0.227 -3.145,-1.065 -3.401,-2.884 l -0.404,-2.88 c -0.636,0.217 -1.269,0.403 -1.898,0.568 l 2.049,14.582 c 0.256,1.821 -0.851,3.481 -2.474,3.709 -1.623,0.228 -3.147,-1.063 -3.403,-2.883 l -2.056,-14.64 c -0.684,-0.009 -1.349,-0.059 -1.998,-0.143 l 1.709,12.156 c 0.255,1.822 -0.851,3.483 -2.475,3.711 -1.621,0.228 -3.147,-1.064 -3.4,-2.884 L -27.622,8.643 c -0.052,-0.188 -0.109,-0.359 -0.172,-0.523 -0.875,-0.032 -1.728,-0.239 -2.514,-0.583 -3.011,-1.322 -2.73,-9.883 -1.263,-11.951 1.009,-1.424 1.875,-2.609 2.642,-3.596 1.981,-4.795 6.405,-6.605 11.628,-7.355 1.833,-0.266 13.436,-2.694 17.09,13.711 C -0.056,-1.113 0.009,-0.559 0,0"
           style="fill:#ffffff;fill-opacity:1;fill-rule:nonzero;stroke:none"
           id="path898" /></g><g
         id="g900"
         transform="matrix(1.33333,0,0,-1.33333,227.068,683.266)"><path
           d="m 0,0 1.164,8.29 c 0.194,1.39 -0.772,2.676 -2.159,2.871 -1.39,0.194 -2.674,-0.774 -2.87,-2.164 L -4.103,7.305 c -0.5,0.448 -1.033,0.877 -1.593,1.283 l 0.694,4.952 c 0.256,1.82 -0.852,3.481 -2.476,3.71 -1.623,0.227 -3.145,-1.065 -3.401,-2.884 l -0.404,-2.88 c -0.636,0.217 -1.269,0.403 -1.898,0.568 l 2.049,14.582 c 0.256,1.821 -0.851,3.481 -2.474,3.709 -1.623,0.228 -3.147,-1.063 -3.403,-2.883 l -2.056,-14.64 c -0.684,-0.009 -1.349,-0.059 -1.998,-0.143 l 1.709,12.156 c 0.255,1.822 -0.851,3.483 -2.475,3.711 -1.621,0.228 -3.147,-1.064 -3.4,-2.884 L -27.622,8.643 c -0.052,-0.188 -0.109,-0.359 -0.172,-0.523 -0.875,-0.032 -1.728,-0.239 -2.514,-0.583 -3.011,-1.322 -2.73,-9.883 -1.263,-11.951 1.009,-1.424 1.875,-2.609 2.642,-3.596 1.981,-4.795 6.405,-6.605 11.628,-7.355 1.833,-0.266 13.436,-2.694 17.09,13.711 C -0.056,-1.113 0.009,-0.559 0,0 Z"
           style="fill:none;stroke:#211d1d;stroke-width:1;stroke-linecap:butt;stroke-linejoin:miter;stroke-miterlimit:4;stroke-dasharray:none;stroke-opacity:1"
           id="path902" /></g><g
         id="g904"
         transform="matrix(1.33333,0,0,-1.33333,331.638,683.263)"><path
           d="M 0,0 1.01,7.184 C 1.181,8.402 0.193,9.547 -1.194,9.742 -2.583,9.938 -3.847,9.108 -4.019,7.891 L -4.101,7.303 c -0.5,0.448 -1.034,0.877 -1.596,1.283 l 1.981,14.097 c 0.256,1.821 -0.852,3.482 -2.475,3.71 -1.622,0.228 -3.146,-1.063 -3.402,-2.884 l -1.689,-12.025 c -0.636,0.217 -1.268,0.403 -1.897,0.568 l 2.049,14.582 c 0.256,1.821 -0.852,3.482 -2.475,3.709 -1.623,0.229 -3.146,-1.063 -3.402,-2.884 L -19.064,12.82 c -0.684,-0.007 -1.35,-0.058 -1.999,-0.143 l 1.709,12.156 c 0.256,1.822 -0.85,3.483 -2.473,3.71 -1.623,0.229 -3.146,-1.062 -3.402,-2.883 L -27.62,8.642 c -0.052,-0.187 -0.111,-0.359 -0.173,-0.523 -0.875,-0.032 -1.729,-0.239 -2.514,-0.583 -3.013,-1.321 -2.729,-9.884 -1.263,-11.95 1.008,-1.426 1.875,-2.611 2.642,-3.596 1.98,-4.797 6.405,-6.607 11.628,-7.359 1.833,-0.264 13.436,-2.69 17.09,13.711 C -0.054,-1.115 0.011,-0.561 0,0"
           style="fill:#ffffff;fill-opacity:1;fill-rule:nonzero;stroke:none"
           id="path906" /></g><g
         id="g908"
         transform="matrix(1.33333,0,0,-1.33333,331.638,683.263)"><path
           d="M 0,0 1.01,7.184 C 1.181,8.402 0.193,9.547 -1.194,9.742 -2.583,9.938 -3.847,9.108 -4.019,7.891 L -4.101,7.303 c -0.5,0.448 -1.034,0.877 -1.596,1.283 l 1.981,14.097 c 0.256,1.821 -0.852,3.482 -2.475,3.71 -1.622,0.228 -3.146,-1.063 -3.402,-2.884 l -1.689,-12.025 c -0.636,0.217 -1.268,0.403 -1.897,0.568 l 2.049,14.582 c 0.256,1.821 -0.852,3.482 -2.475,3.709 -1.623,0.229 -3.146,-1.063 -3.402,-2.884 L -19.064,12.82 c -0.684,-0.007 -1.35,-0.058 -1.999,-0.143 l 1.709,12.156 c 0.256,1.822 -0.85,3.483 -2.473,3.71 -1.623,0.229 -3.146,-1.062 -3.402,-2.883 L -27.62,8.642 c -0.052,-0.187 -0.111,-0.359 -0.173,-0.523 -0.875,-0.032 -1.729,-0.239 -2.514,-0.583 -3.013,-1.321 -2.729,-9.884 -1.263,-11.95 1.008,-1.426 1.875,-2.611 2.642,-3.596 1.98,-4.797 6.405,-6.607 11.628,-7.359 1.833,-0.264 13.436,-2.69 17.09,13.711 C -0.054,-1.115 0.011,-0.561 0,0 Z"
           style="fill:none;stroke:#211d1d;stroke-width:1;stroke-linecap:butt;stroke-linejoin:miter;stroke-miterlimit:4;stroke-dasharray:none;stroke-opacity:1"
           id="path910" /></g><g
         id="g912"
         transform="matrix(1.33333,0,0,-1.33333,274.279,715.935)"><path
           d="M 0,0 -5.17,4.346 V 2.572 h -26.558 -5.001 v 1.774 l -5.17,-4.344 5.17,-4.348 v 1.774 h 26.555 5.004 v -1.774 z"
           style="fill:#110f0d;fill-opacity:1;fill-rule:nonzero;stroke:none"
           id="path914" /></g><g
         id="g916"
         transform="matrix(1.33333,0,0,-1.33333,369.769,715.935)"><path
           d="M 0,0 -5.169,4.346 V 2.572 h -24.557 -11.802 v 1.774 l -5.169,-4.344 5.169,-4.348 v 1.774 h 33.355 3.004 v -1.774 z"
           style="fill:#110f0d;fill-opacity:1;fill-rule:nonzero;stroke:none"
           id="path918" /></g><g
         id="g920"
         transform="matrix(1.33333,0,0,-1.33333,262.779,744.148)"><path
           d="m 0,0 1.783,12.693 c 0.196,1.393 -0.769,2.678 -2.16,2.873 -1.39,0.196 -2.672,-0.775 -2.867,-2.166 L -4.103,7.303 c -0.5,0.447 -1.033,0.877 -1.593,1.283 l 1.98,14.096 c 0.256,1.82 -0.853,3.482 -2.474,3.711 -1.623,0.228 -3.147,-1.065 -3.403,-2.885 l -1.69,-12.026 c -0.636,0.219 -1.268,0.405 -1.898,0.569 l 2.05,14.582 c 0.256,1.82 -0.852,3.48 -2.473,3.709 -1.625,0.228 -3.148,-1.063 -3.404,-2.883 l -2.057,-14.641 c -0.683,-0.007 -1.349,-0.056 -1.998,-0.142 l 1.709,12.156 c 0.255,1.822 -0.852,3.482 -2.474,3.711 -1.623,0.228 -3.146,-1.064 -3.401,-2.885 L -27.623,8.631 c -0.051,-0.186 -0.108,-0.354 -0.17,-0.514 -0.876,-0.031 -1.729,-0.238 -2.515,-0.584 -3.011,-1.322 -2.729,-9.881 -1.263,-11.949 1.011,-1.426 1.877,-2.611 2.645,-3.598 1.982,-4.797 6.404,-6.605 11.627,-7.355 1.832,-0.266 13.437,-2.694 17.089,13.711 C -0.054,-1.115 0.01,-0.561 0,0"
           style="fill:#ffffff;fill-opacity:1;fill-rule:nonzero;stroke:none"
           id="path922" /></g><g
         id="g924"
         transform="matrix(1.33333,0,0,-1.33333,262.779,744.148)"><path
           d="m 0,0 1.783,12.693 c 0.196,1.393 -0.769,2.678 -2.16,2.873 -1.39,0.196 -2.672,-0.775 -2.867,-2.166 L -4.103,7.303 c -0.5,0.447 -1.033,0.877 -1.593,1.283 l 1.98,14.096 c 0.256,1.82 -0.853,3.482 -2.474,3.711 -1.623,0.228 -3.147,-1.065 -3.403,-2.885 l -1.69,-12.026 c -0.636,0.219 -1.268,0.405 -1.898,0.569 l 2.05,14.582 c 0.256,1.82 -0.852,3.48 -2.473,3.709 -1.625,0.228 -3.148,-1.063 -3.404,-2.883 l -2.057,-14.641 c -0.683,-0.007 -1.349,-0.056 -1.998,-0.142 l 1.709,12.156 c 0.255,1.822 -0.852,3.482 -2.474,3.711 -1.623,0.228 -3.146,-1.064 -3.401,-2.885 L -27.623,8.631 c -0.051,-0.186 -0.108,-0.354 -0.17,-0.514 -0.876,-0.031 -1.729,-0.238 -2.515,-0.584 -3.011,-1.322 -2.729,-9.881 -1.263,-11.949 1.011,-1.426 1.877,-2.611 2.645,-3.598 1.982,-4.797 6.404,-6.605 11.627,-7.355 1.832,-0.266 13.437,-2.694 17.089,13.711 C -0.054,-1.115 0.01,-0.561 0,0 Z"
           style="fill:none;stroke:#211d1d;stroke-width:1;stroke-linecap:butt;stroke-linejoin:miter;stroke-miterlimit:4;stroke-dasharray:none;stroke-opacity:1"
           id="path926" /></g><g
         id="g928"
         transform="matrix(1.33333,0,0,-1.33333,360.957,744.154)"><path
           d="m 0,0 1.784,12.699 c 0.196,1.389 -0.771,2.676 -2.159,2.871 -1.39,0.196 -2.674,-0.775 -2.869,-2.166 L -4.102,7.307 c -0.5,0.447 -1.034,0.877 -1.595,1.285 l 1.98,14.096 c 0.256,1.82 -0.851,3.48 -2.475,3.708 -1.622,0.227 -3.146,-1.064 -3.402,-2.884 l -1.69,-12.026 c -0.634,0.217 -1.266,0.405 -1.895,0.569 l 2.049,14.582 c 0.257,1.82 -0.85,3.482 -2.475,3.711 -1.624,0.226 -3.146,-1.063 -3.402,-2.885 l -2.057,-14.641 c -0.683,-0.009 -1.35,-0.056 -1.998,-0.142 l 1.708,12.156 c 0.256,1.822 -0.851,3.482 -2.474,3.711 -1.622,0.226 -3.145,-1.063 -3.401,-2.885 L -27.621,8.643 c -0.372,-1.36 -1.018,-2.106 -1.965,-2.196 -0.126,-0.011 -0.251,-0.004 -0.376,0.014 -3.802,1.992 -7.464,3.34 -8.982,2.201 -1.847,-1.385 -0.084,-4.492 2.278,-6.976 l 7.143,-10.098 c 0.541,-0.506 1.049,-0.963 1.544,-1.401 2.26,-3.464 6.17,-4.906 10.679,-5.554 1.833,-0.264 13.437,-2.69 17.089,13.713 C -0.055,-1.113 0.01,-0.559 0,0"
           style="fill:#ffffff;fill-opacity:1;fill-rule:nonzero;stroke:none"
           id="path930" /></g><g
         id="g932"
         transform="matrix(1.33333,0,0,-1.33333,360.957,744.154)"><path
           d="m 0,0 1.784,12.699 c 0.196,1.389 -0.771,2.676 -2.159,2.871 -1.39,0.196 -2.674,-0.775 -2.869,-2.166 L -4.102,7.307 c -0.5,0.447 -1.034,0.877 -1.595,1.285 l 1.98,14.096 c 0.256,1.82 -0.851,3.48 -2.475,3.708 -1.622,0.227 -3.146,-1.064 -3.402,-2.884 l -1.69,-12.026 c -0.634,0.217 -1.266,0.405 -1.895,0.569 l 2.049,14.582 c 0.257,1.82 -0.85,3.482 -2.475,3.711 -1.624,0.226 -3.146,-1.063 -3.402,-2.885 l -2.057,-14.641 c -0.683,-0.009 -1.35,-0.056 -1.998,-0.142 l 1.708,12.156 c 0.256,1.822 -0.851,3.482 -2.474,3.711 -1.622,0.226 -3.145,-1.063 -3.401,-2.885 L -27.621,8.643 c -0.372,-1.36 -1.018,-2.106 -1.965,-2.196 -0.126,-0.011 -0.251,-0.004 -0.376,0.014 -3.802,1.992 -7.464,3.34 -8.982,2.201 -1.847,-1.385 -0.084,-4.492 2.278,-6.976 l 7.143,-10.098 c 0.541,-0.506 1.049,-0.963 1.544,-1.401 2.26,-3.464 6.17,-4.906 10.679,-5.554 1.833,-0.264 13.437,-2.69 17.089,13.713 C -0.055,-1.113 0.01,-0.559 0,0 Z"
           style="fill:none;stroke:#211d1d;stroke-width:1;stroke-linecap:butt;stroke-linejoin:miter;stroke-miterlimit:4;stroke-dasharray:none;stroke-opacity:1"
           id="path934" /></g><text
         transform="matrix(1.33333,0,0,1.33333,0,1344)"
         style="font-variant:normal;font-weight:normal;font-stretch:normal;font-size:8px;font-family:Verdana;-inkscape-font-specification:Verdana;writing-mode:lr-tb;fill:#231f20;fill-opacity:1;fill-rule:nonzero;stroke:none"
         id="text940"
         x="188.72659"
         y="-497.00391"><tspan
           x="188.72659 195.0226"
           y="-497.00391"
           id="tspan936">OR</tspan><tspan
           x="146.91859 153.2146 208.39059 214.6866"
           y="-450.7879"
           id="tspan938">OROR</tspan></text></g></g></svg>
