<?xml version="1.0" encoding="UTF-8" standalone="no"?>
<!-- Created with Inkscape (http://www.inkscape.org/) -->

<svg
   version="1.1"
   id="svg2"
   xml:space="preserve"
   width="185.53285"
   height="67.145607"
   viewBox="0 0 185.53285 67.145609"
   xmlns="http://www.w3.org/2000/svg"
   xmlns:svg="http://www.w3.org/2000/svg"><defs
     id="defs6" /><g
     id="layer15"
     transform="translate(-411.53079,-625.05267)"
     style="display:inline"><g
       id="g92919"><g
         id="g456"
         transform="matrix(1.33333,0,0,-1.33333,493.285,660.113)"><path
           d="m 0,0 c -0.517,-2.581 -3.086,-4.269 -5.744,-3.769 -2.657,0.5 -4.395,2.998 -3.879,5.579 0.516,2.582 3.086,4.268 5.744,3.769 C -1.223,5.077 0.516,2.581 0,0"
           style="fill:#231f20;fill-opacity:1;fill-rule:nonzero;stroke:none"
           id="path458" /></g><g
         id="g460"
         transform="matrix(1.33333,0,0,-1.33333,493.285,660.113)"><path
           d="m 0,0 c -0.517,-2.581 -3.086,-4.269 -5.744,-3.769 -2.657,0.5 -4.395,2.998 -3.879,5.579 0.516,2.582 3.086,4.268 5.744,3.769 C -1.223,5.077 0.516,2.581 0,0 Z"
           style="fill:none;stroke:#231f20;stroke-width:1;stroke-linecap:butt;stroke-linejoin:miter;stroke-miterlimit:4;stroke-dasharray:none;stroke-opacity:1"
           id="path462" /></g><g
         id="g464"
         transform="matrix(1.33333,0,0,-1.33333,514.454,633.275)"><path
           d="m 0,0 c -0.515,-2.581 -3.086,-4.269 -5.742,-3.769 -2.659,0.5 -4.395,2.998 -3.879,5.581 0.514,2.582 3.086,4.268 5.744,3.767 C -1.222,5.078 0.517,2.579 0,0"
           style="fill:#231f20;fill-opacity:1;fill-rule:nonzero;stroke:none"
           id="path466" /></g><g
         id="g468"
         transform="matrix(1.33333,0,0,-1.33333,514.454,633.275)"><path
           d="m 0,0 c -0.515,-2.581 -3.086,-4.269 -5.742,-3.769 -2.659,0.5 -4.395,2.998 -3.879,5.581 0.514,2.582 3.086,4.268 5.744,3.767 C -1.222,5.078 0.517,2.579 0,0 Z"
           style="fill:none;stroke:#231f20;stroke-width:1;stroke-linecap:butt;stroke-linejoin:miter;stroke-miterlimit:4;stroke-dasharray:none;stroke-opacity:1"
           id="path470" /></g><g
         id="g472"
         transform="matrix(1.33333,0,0,-1.33333,516.832,650.203)"><path
           d="m 0,0 c 0.131,-1.47 -1.732,-2.83 -4.162,-3.035 -2.432,-0.205 -4.51,0.819 -4.641,2.289 -0.133,1.471 1.731,2.828 4.16,3.035 C -2.211,2.494 -0.133,1.469 0,0"
           style="fill:#ffffff;fill-opacity:1;fill-rule:nonzero;stroke:none"
           id="path474" /></g><g
         id="g476"
         transform="matrix(1.33333,0,0,-1.33333,516.832,650.203)"><path
           d="m 0,0 c 0.131,-1.47 -1.732,-2.83 -4.162,-3.035 -2.432,-0.205 -4.51,0.819 -4.641,2.289 -0.133,1.471 1.731,2.828 4.16,3.035 C -2.211,2.494 -0.133,1.469 0,0 Z"
           style="fill:none;stroke:#231f20;stroke-width:1;stroke-linecap:butt;stroke-linejoin:miter;stroke-miterlimit:4;stroke-dasharray:none;stroke-opacity:1"
           id="path478" /></g><g
         id="g480"
         transform="matrix(1.33333,0,0,-1.33333,528.572,656.378)"><path
           d="m 0,0 c -0.332,0.057 -0.658,0.045 -0.969,-0.025 0.357,1.38 -0.344,2.853 -1.726,3.453 -0.774,0.334 -1.612,0.331 -2.344,0.06 L -5.086,5.32 C -5.1,5.893 -6.004,6.754 -7.057,7.568 l 0.995,3.414 c 0.454,1.554 -4.274,6.727 -4.274,6.727 -1.037,1.541 -3.285,2.229 -5.02,1.531 -1.738,-0.698 -2.302,-2.511 -1.265,-4.052 l 3.105,-4.612 c 0,0 -2.539,-10.935 -4.242,-12.536 -1.393,-1.311 -5.81,0.25 -6.416,0.594 -3.496,1.227 -6.685,1.872 -7.895,0.751 -1.587,-1.466 0.419,-4.119 2.923,-6.142 l 5.002,-5.397 c -0.419,-7.043 3.972,-10.201 9.756,-12.137 1.661,-0.557 9.509,-7.286 15.841,6.937 0.826,4.779 0.496,14.633 0.496,14.633 C 2.184,-1.443 1.311,-0.229 0,0"
           style="fill:#ffffff;fill-opacity:1;fill-rule:nonzero;stroke:none"
           id="path482" /></g><g
         id="g484"
         transform="matrix(1.33333,0,0,-1.33333,528.572,656.378)"><path
           d="m 0,0 c -0.332,0.057 -0.658,0.045 -0.969,-0.025 0.357,1.38 -0.344,2.853 -1.726,3.453 -0.774,0.334 -1.612,0.331 -2.344,0.06 L -5.086,5.32 C -5.1,5.893 -6.004,6.754 -7.057,7.568 l 0.995,3.414 c 0.454,1.554 -4.274,6.727 -4.274,6.727 -1.037,1.541 -3.285,2.229 -5.02,1.531 -1.738,-0.698 -2.302,-2.511 -1.265,-4.052 l 3.105,-4.612 c 0,0 -2.539,-10.935 -4.242,-12.536 -1.393,-1.311 -5.81,0.25 -6.416,0.594 -3.496,1.227 -6.685,1.872 -7.895,0.751 -1.587,-1.466 0.419,-4.119 2.923,-6.142 l 5.002,-5.397 c -0.419,-7.043 3.972,-10.201 9.756,-12.137 1.661,-0.557 9.509,-7.286 15.841,6.937 0.826,4.779 0.496,14.633 0.496,14.633 C 2.184,-1.443 1.311,-0.229 0,0 Z"
           style="fill:none;stroke:#231f20;stroke-width:1;stroke-linecap:butt;stroke-linejoin:miter;stroke-miterlimit:4;stroke-dasharray:none;stroke-opacity:1"
           id="path486" /></g><g
         id="g488"
         transform="matrix(1.33333,0,0,-1.33333,556.366,659.018)"><path
           d="m 0,0 c -0.515,-2.583 -3.086,-4.27 -5.742,-3.77 -2.658,0.5 -4.397,2.997 -3.881,5.581 0.517,2.58 3.088,4.266 5.744,3.768 C -1.223,5.077 0.516,2.579 0,0"
           style="fill:#231f20;fill-opacity:1;fill-rule:nonzero;stroke:none"
           id="path490" /></g><g
         id="g492"
         transform="matrix(1.33333,0,0,-1.33333,556.366,659.018)"><path
           d="m 0,0 c -0.515,-2.583 -3.086,-4.27 -5.742,-3.77 -2.658,0.5 -4.397,2.997 -3.881,5.581 0.517,2.58 3.088,4.266 5.744,3.768 C -1.223,5.077 0.516,2.579 0,0 Z"
           style="fill:none;stroke:#231f20;stroke-width:1;stroke-linecap:butt;stroke-linejoin:miter;stroke-miterlimit:4;stroke-dasharray:none;stroke-opacity:1"
           id="path494" /></g><g
         id="g496"
         transform="matrix(1.33333,0,0,-1.33333,557.587,648.997)"><path
           d="m 0,0 c -0.515,-2.579 -3.086,-4.268 -5.742,-3.766 -2.658,0.5 -4.397,2.998 -3.881,5.579 0.516,2.582 3.088,4.268 5.744,3.768 C -1.222,5.081 0.516,2.583 0,0"
           style="fill:#231f20;fill-opacity:1;fill-rule:nonzero;stroke:none"
           id="path498" /></g><g
         id="g500"
         transform="matrix(1.33333,0,0,-1.33333,557.587,648.997)"><path
           d="m 0,0 c -0.515,-2.579 -3.086,-4.268 -5.742,-3.766 -2.658,0.5 -4.397,2.998 -3.881,5.579 0.516,2.582 3.088,4.268 5.744,3.768 C -1.222,5.081 0.516,2.583 0,0 Z"
           style="fill:none;stroke:#231f20;stroke-width:1;stroke-linecap:butt;stroke-linejoin:miter;stroke-miterlimit:4;stroke-dasharray:none;stroke-opacity:1"
           id="path502" /></g><g
         id="g504"
         transform="matrix(1.33333,0,0,-1.33333,573.275,657.402)"><path
           d="m 0,0 c 0.689,-1.083 0.031,-2.696 -1.471,-3.597 -1.502,-0.9 -3.279,-0.75 -3.969,0.336 -0.691,1.086 -0.034,2.698 1.467,3.598 C -2.467,1.237 -0.691,1.087 0,0"
           style="fill:#ffffff;fill-opacity:1;fill-rule:nonzero;stroke:none"
           id="path506" /></g><g
         id="g508"
         transform="matrix(1.33333,0,0,-1.33333,573.275,657.402)"><path
           d="m 0,0 c 0.689,-1.083 0.031,-2.696 -1.471,-3.597 -1.502,-0.9 -3.279,-0.75 -3.969,0.336 -0.691,1.086 -0.034,2.698 1.467,3.598 C -2.467,1.237 -0.691,1.087 0,0 Z"
           style="fill:none;stroke:#211d1d;stroke-width:1;stroke-linecap:butt;stroke-linejoin:miter;stroke-miterlimit:4;stroke-dasharray:none;stroke-opacity:1"
           id="path510" /></g><g
         id="g512"
         transform="matrix(1.33333,0,0,-1.33333,594.35,658.68)"><path
           d="m 0,0 c -0.443,0.223 -0.92,0.295 -1.379,0.242 0.541,1.36 -0.002,2.93 -1.34,3.673 -0.752,0.414 -1.607,0.487 -2.377,0.271 -0.217,0.121 -0.519,0.218 -0.873,0.302 -0.386,0.742 -1.418,3.377 -2.31,3.599 -0.471,0.117 -4.024,-0.374 -6.129,-2.153 l -3.678,4 c -0.646,1.485 -10.59,0.944 -10.59,0.944 -1.803,0.574 -3.998,-0.257 -4.902,-1.855 -0.904,-1.597 -0.18,-3.357 1.623,-3.928 l 7.611,-0.185 1.887,-2.239 -1.381,-5.571 c -4.17,6.775 -7.472,6.618 -9.359,5.362 -1.809,-1.201 -0.264,-4.133 1.877,-6.519 l 5.128,-8.446 c 0.172,-0.173 0.663,-1.858 0.83,-2.02 1.145,-6.239 6.753,-8.064 12.493,-8.973 1.736,-0.275 10.64,-5.618 14.404,9.439 -0.015,3.965 -0.392,6.97 -1.357,9.277 l 0.861,1.628 C 1.648,-2.002 1.184,-0.59 0,0"
           style="fill:#ffffff;fill-opacity:1;fill-rule:nonzero;stroke:none"
           id="path514" /></g><g
         id="g516"
         transform="matrix(1.33333,0,0,-1.33333,594.35,658.68)"><path
           d="m 0,0 c -0.443,0.223 -0.92,0.295 -1.379,0.242 0.541,1.36 -0.002,2.93 -1.34,3.673 -0.752,0.414 -1.607,0.487 -2.377,0.271 -0.217,0.121 -0.519,0.218 -0.873,0.302 -0.386,0.742 -1.418,3.377 -2.31,3.599 -0.471,0.117 -4.024,-0.374 -6.129,-2.153 l -3.678,4 c -0.646,1.485 -10.59,0.944 -10.59,0.944 -1.803,0.574 -3.998,-0.257 -4.902,-1.855 -0.904,-1.597 -0.18,-3.357 1.623,-3.928 l 7.611,-0.185 1.887,-2.239 -1.381,-5.571 c -4.17,6.775 -7.472,6.618 -9.359,5.362 -1.809,-1.201 -0.264,-4.133 1.877,-6.519 l 5.128,-8.446 c 0.172,-0.173 0.663,-1.858 0.83,-2.02 1.145,-6.239 6.753,-8.064 12.493,-8.973 1.736,-0.275 10.64,-5.618 14.404,9.439 -0.015,3.965 -0.392,6.97 -1.357,9.277 l 0.861,1.628 C 1.648,-2.002 1.184,-0.59 0,0 Z"
           style="fill:none;stroke:#231f20;stroke-width:1;stroke-linecap:butt;stroke-linejoin:miter;stroke-miterlimit:4;stroke-dasharray:none;stroke-opacity:1"
           id="path518" /></g><text
         transform="matrix(1.33333,0,0,1.33333,0,1344)"
         style="font-variant:normal;font-weight:normal;font-stretch:normal;font-size:10px;font-family:Tahoma;-inkscape-font-specification:Tahoma;writing-mode:lr-tb;fill:#231f20;fill-opacity:1;fill-rule:nonzero;stroke:none"
         id="text61033"
         x="307.66742"
         y="-316.49899"><tspan
           x="307.66742 313.17743 315.46744 321.04742 325.65744"
           y="-510.789"
           id="tspan61031">Pinch</tspan></text></g></g></svg>
