<?xml version="1.0" encoding="UTF-8" standalone="no"?>
<!-- Created with Inkscape (http://www.inkscape.org/) -->

<svg
   version="1.1"
   id="svg2"
   xml:space="preserve"
   width="205.08083"
   height="62.686455"
   viewBox="0 0 205.08082 62.686457"
   xmlns="http://www.w3.org/2000/svg"
   xmlns:svg="http://www.w3.org/2000/svg"><defs
     id="defs6" /><g
     id="layer16"
     style="display:inline"
     transform="translate(-411.53079,-712.26306)"><g
       id="g92883"><text
         transform="matrix(1.33333,0,0,1.33333,0,1344)"
         style="font-variant:normal;font-weight:normal;font-stretch:normal;font-size:10px;font-family:Tahoma;-inkscape-font-specification:Tahoma;writing-mode:lr-tb;fill:#231f20;fill-opacity:1;fill-rule:nonzero;stroke:none"
         id="text450"
         x="307.98969"
         y="-447.05661"><tspan
           x="307.98969 313.57971 319.10971 324.6897 329.94971 335.20969 339.5997"
           y="-447.05661"
           id="tspan448">Squeeze</tspan></text><g
         id="g520"
         transform="matrix(1.33333,0,0,-1.33333,573.249,738.581)"><path
           d="m 0,0 c -0.551,-2.834 -3.293,-4.686 -6.125,-4.137 -2.836,0.549 -4.688,3.291 -4.139,6.127 0.549,2.832 3.29,4.686 6.125,4.137 C -1.303,5.576 0.549,2.834 0,0"
           style="fill:#231f20;fill-opacity:1;fill-rule:nonzero;stroke:none"
           id="path522" /></g><g
         id="g524"
         transform="matrix(1.33333,0,0,-1.33333,573.249,738.581)"><path
           d="m 0,0 c -0.551,-2.834 -3.293,-4.686 -6.125,-4.137 -2.836,0.549 -4.688,3.291 -4.139,6.127 0.549,2.832 3.29,4.686 6.125,4.137 C -1.303,5.576 0.549,2.834 0,0 Z"
           style="fill:none;stroke:#231f20;stroke-width:1;stroke-linecap:butt;stroke-linejoin:miter;stroke-miterlimit:4;stroke-dasharray:none;stroke-opacity:1"
           id="path526" /></g><g
         id="g528"
         transform="matrix(1.33333,0,0,-1.33333,574.553,727.57)"><path
           d="m 0,0 c -0.551,-2.834 -3.293,-4.688 -6.129,-4.139 -2.834,0.549 -4.684,3.293 -4.137,6.127 0.549,2.834 3.292,4.688 6.127,4.137 C -1.305,5.576 0.549,2.834 0,0"
           style="fill:#231f20;fill-opacity:1;fill-rule:nonzero;stroke:none"
           id="path530" /></g><g
         id="g532"
         transform="matrix(1.33333,0,0,-1.33333,574.553,727.57)"><path
           d="m 0,0 c -0.551,-2.834 -3.293,-4.688 -6.129,-4.139 -2.834,0.549 -4.684,3.293 -4.137,6.127 0.549,2.834 3.292,4.688 6.127,4.137 C -1.305,5.576 0.549,2.834 0,0 Z"
           style="fill:none;stroke:#231f20;stroke-width:1;stroke-linecap:butt;stroke-linejoin:miter;stroke-miterlimit:4;stroke-dasharray:none;stroke-opacity:1"
           id="path534" /></g><g
         id="g536"
         transform="matrix(1.33333,0,0,-1.33333,591.28,736.802)"><path
           d="m 0,0 c 0.736,-1.193 0.035,-2.961 -1.566,-3.951 -1.604,-0.988 -3.5,-0.822 -4.235,0.369 -0.736,1.191 -0.035,2.961 1.567,3.949 C -2.631,1.357 -0.736,1.191 0,0"
           style="fill:#ffffff;fill-opacity:1;fill-rule:nonzero;stroke:none"
           id="path538" /></g><g
         id="g540"
         transform="matrix(1.33333,0,0,-1.33333,591.28,736.802)"><path
           d="m 0,0 c 0.736,-1.193 0.035,-2.961 -1.566,-3.951 -1.604,-0.988 -3.5,-0.822 -4.235,0.369 -0.736,1.191 -0.035,2.961 1.567,3.949 C -2.631,1.357 -0.736,1.191 0,0 Z"
           style="fill:none;stroke:#211d1d;stroke-width:1;stroke-linecap:butt;stroke-linejoin:miter;stroke-miterlimit:4;stroke-dasharray:none;stroke-opacity:1"
           id="path542" /></g><g
         id="g544"
         transform="matrix(1.33333,0,0,-1.33333,613.762,738.206)"><path
           d="m 0,0 c -0.471,0.24 -0.982,0.324 -1.469,0.268 0.574,1.49 -0.004,3.214 -1.431,4.031 -0.801,0.455 -1.713,0.533 -2.536,0.297 -0.23,0.133 -0.552,0.24 -0.931,0.336 -0.412,0.81 -1.512,3.707 -2.463,3.947 -0.502,0.129 -4.291,-0.408 -6.537,-2.363 l -3.924,4.392 c -0.689,1.631 -11.295,1.039 -11.295,1.039 -1.922,0.629 -4.264,-0.285 -5.227,-2.039 -0.966,-1.754 -0.193,-3.685 1.729,-4.312 l 8.117,-0.203 2.016,-2.459 -1.477,-6.12 c -4.445,7.44 -7.967,7.268 -9.98,5.889 -1.93,-1.32 -0.28,-4.541 2,-7.158 l 5.472,-9.274 c 0.184,-0.189 0.706,-2.041 0.885,-2.222 1.223,-6.85 7.201,-8.854 13.324,-9.854 1.85,-0.3 11.35,-6.168 15.364,10.369 -0.016,4.356 -0.418,7.653 -1.446,10.188 l 0.918,1.783 C 1.758,-2.201 1.262,-0.646 0,0"
           style="fill:#ffffff;fill-opacity:1;fill-rule:nonzero;stroke:none"
           id="path546" /></g><g
         id="g548"
         transform="matrix(1.33333,0,0,-1.33333,613.762,738.206)"><path
           d="m 0,0 c -0.471,0.24 -0.982,0.324 -1.469,0.268 0.574,1.49 -0.004,3.214 -1.431,4.031 -0.801,0.455 -1.713,0.533 -2.536,0.297 -0.23,0.133 -0.552,0.24 -0.931,0.336 -0.412,0.81 -1.512,3.707 -2.463,3.947 -0.502,0.129 -4.291,-0.408 -6.537,-2.363 l -3.924,4.392 c -0.689,1.631 -11.295,1.039 -11.295,1.039 -1.922,0.629 -4.264,-0.285 -5.227,-2.039 -0.966,-1.754 -0.193,-3.685 1.729,-4.312 l 8.117,-0.203 2.016,-2.459 -1.477,-6.12 c -4.445,7.44 -7.967,7.268 -9.98,5.889 -1.93,-1.32 -0.28,-4.541 2,-7.158 l 5.472,-9.274 c 0.184,-0.189 0.706,-2.041 0.885,-2.222 1.223,-6.85 7.201,-8.854 13.324,-9.854 1.85,-0.3 11.35,-6.168 15.364,10.369 -0.016,4.356 -0.418,7.653 -1.446,10.188 l 0.918,1.783 C 1.758,-2.201 1.262,-0.646 0,0 Z"
           style="fill:none;stroke:#231f20;stroke-width:1;stroke-linecap:butt;stroke-linejoin:miter;stroke-miterlimit:4;stroke-dasharray:none;stroke-opacity:1"
           id="path550" /></g><g
         id="g552"
         transform="matrix(1.33333,0,0,-1.33333,493.204,749.69)"><path
           d="m 0,0 c -0.512,-2.641 -3.065,-4.367 -5.709,-3.854 -2.641,0.512 -4.365,3.067 -3.854,5.709 0.512,2.641 3.067,4.368 5.709,3.856 C -1.215,5.199 0.513,2.643 0,0"
           style="fill:#231f20;fill-opacity:1;fill-rule:nonzero;stroke:none"
           id="path554" /></g><g
         id="g556"
         transform="matrix(1.33333,0,0,-1.33333,493.204,749.69)"><path
           d="m 0,0 c -0.512,-2.641 -3.065,-4.367 -5.709,-3.854 -2.641,0.512 -4.365,3.067 -3.854,5.709 0.512,2.641 3.067,4.368 5.709,3.856 C -1.215,5.199 0.513,2.643 0,0 Z"
           style="fill:none;stroke:#231f20;stroke-width:1;stroke-linecap:butt;stroke-linejoin:miter;stroke-miterlimit:4;stroke-dasharray:none;stroke-opacity:1"
           id="path558" /></g><g
         id="g560"
         transform="matrix(1.33333,0,0,-1.33333,508.228,725.443)"><path
           d="m 0,0 c -0.512,-2.641 -3.065,-4.367 -5.709,-3.854 -2.641,0.512 -4.367,3.067 -3.854,5.709 0.51,2.641 3.067,4.37 5.709,3.856 C -1.215,5.199 0.513,2.643 0,0"
           style="fill:#231f20;fill-opacity:1;fill-rule:nonzero;stroke:none"
           id="path562" /></g><g
         id="g564"
         transform="matrix(1.33333,0,0,-1.33333,508.228,725.443)"><path
           d="m 0,0 c -0.512,-2.641 -3.065,-4.367 -5.709,-3.854 -2.641,0.512 -4.367,3.067 -3.854,5.709 0.51,2.641 3.067,4.37 5.709,3.856 C -1.215,5.199 0.513,2.643 0,0 Z"
           style="fill:none;stroke:#231f20;stroke-width:1;stroke-linecap:butt;stroke-linejoin:miter;stroke-miterlimit:4;stroke-dasharray:none;stroke-opacity:1"
           id="path566" /></g><g
         id="g568"
         transform="matrix(1.33333,0,0,-1.33333,517.517,720.661)"><path
           d="m 0,0 c -0.512,-2.643 -3.066,-4.369 -5.709,-3.855 -2.642,0.511 -4.367,3.066 -3.854,5.709 0.51,2.64 3.067,4.367 5.709,3.855 C -1.215,5.197 0.513,2.641 0,0"
           style="fill:#231f20;fill-opacity:1;fill-rule:nonzero;stroke:none"
           id="path570" /></g><g
         id="g572"
         transform="matrix(1.33333,0,0,-1.33333,517.517,720.661)"><path
           d="m 0,0 c -0.512,-2.643 -3.066,-4.369 -5.709,-3.855 -2.642,0.511 -4.367,3.066 -3.854,5.709 0.51,2.64 3.067,4.367 5.709,3.855 C -1.215,5.197 0.513,2.641 0,0 Z"
           style="fill:none;stroke:#231f20;stroke-width:1;stroke-linecap:butt;stroke-linejoin:miter;stroke-miterlimit:4;stroke-dasharray:none;stroke-opacity:1"
           id="path574" /></g><g
         id="g576"
         transform="matrix(1.33333,0,0,-1.33333,527.053,725.44)"><path
           d="m 0,0 c -0.514,-2.643 -3.067,-4.369 -5.709,-3.855 -2.644,0.511 -4.367,3.066 -3.855,5.709 0.511,2.64 3.066,4.369 5.709,3.855 C -1.215,5.197 0.512,2.641 0,0"
           style="fill:#231f20;fill-opacity:1;fill-rule:nonzero;stroke:none"
           id="path578" /></g><g
         id="g580"
         transform="matrix(1.33333,0,0,-1.33333,527.053,725.44)"><path
           d="m 0,0 c -0.514,-2.643 -3.067,-4.369 -5.709,-3.855 -2.644,0.511 -4.367,3.066 -3.855,5.709 0.511,2.64 3.066,4.369 5.709,3.855 C -1.215,5.197 0.512,2.641 0,0 Z"
           style="fill:none;stroke:#231f20;stroke-width:1;stroke-linecap:butt;stroke-linejoin:miter;stroke-miterlimit:4;stroke-dasharray:none;stroke-opacity:1"
           id="path582" /></g><g
         id="g584"
         transform="matrix(1.33333,0,0,-1.33333,537.728,736.695)"><path
           d="m 0,0 c -0.512,-2.643 -3.067,-4.369 -5.709,-3.855 -2.643,0.511 -4.367,3.068 -3.855,5.709 0.511,2.64 3.066,4.367 5.709,3.855 C -1.215,5.199 0.514,2.641 0,0"
           style="fill:#231f20;fill-opacity:1;fill-rule:nonzero;stroke:none"
           id="path586" /></g><g
         id="g588"
         transform="matrix(1.33333,0,0,-1.33333,537.728,736.695)"><path
           d="m 0,0 c -0.512,-2.643 -3.067,-4.369 -5.709,-3.855 -2.643,0.511 -4.367,3.068 -3.855,5.709 0.511,2.64 3.066,4.367 5.709,3.855 C -1.215,5.199 0.514,2.641 0,0 Z"
           style="fill:none;stroke:#231f20;stroke-width:1;stroke-linecap:butt;stroke-linejoin:miter;stroke-miterlimit:4;stroke-dasharray:none;stroke-opacity:1"
           id="path590" /></g><g
         id="g592"
         transform="matrix(1.33333,0,0,-1.33333,532.889,751.125)"><path
           d="m 0,0 0.317,11.818 c 0.037,1.295 -0.983,2.371 -2.274,2.407 -1.293,0.035 -2.369,-0.987 -2.404,-2.28 L -4.515,6.27 C -5.021,6.627 -5.553,6.965 -6.11,7.279 l 0.354,13.119 c 0.045,1.696 -1.141,3.1 -2.654,3.141 -1.508,0.041 -2.771,-1.299 -2.816,-2.994 l -0.301,-11.19 c -0.606,0.133 -1.202,0.237 -1.795,0.323 l 0.365,13.57 c 0.045,1.695 -1.142,3.104 -2.652,3.145 -1.512,0.039 -2.774,-1.301 -2.819,-2.997 L -18.795,9.771 C -19.42,9.693 -20.023,9.578 -20.608,9.434 l 0.303,11.312 c 0.047,1.695 -1.139,3.102 -2.65,3.143 -1.51,0.041 -2.772,-1.301 -2.817,-2.994 l -0.427,-15.84 c -0.2,-1.284 -0.715,-2.034 -1.572,-2.213 -0.116,-0.028 -0.231,-0.031 -0.346,-0.029 -3.69,1.429 -7.186,2.287 -8.457,1.085 -1.549,-1.459 0.386,-4.123 2.808,-6.156 l 7.59,-8.51 c 0.549,-0.406 1.064,-0.773 1.561,-1.123 2.429,-2.939 6.162,-3.853 10.359,-3.98 1.707,-0.051 12.588,-1.07 14.235,14.334 C 0.065,-1.025 0.066,-0.51 0,0"
           style="fill:#ffffff;fill-opacity:1;fill-rule:nonzero;stroke:none"
           id="path594" /></g><g
         id="g596"
         transform="matrix(1.33333,0,0,-1.33333,532.889,751.125)"><path
           d="m 0,0 0.317,11.818 c 0.037,1.295 -0.983,2.371 -2.274,2.407 -1.293,0.035 -2.369,-0.987 -2.404,-2.28 L -4.515,6.27 C -5.021,6.627 -5.553,6.965 -6.11,7.279 l 0.354,13.119 c 0.045,1.696 -1.141,3.1 -2.654,3.141 -1.508,0.041 -2.771,-1.299 -2.816,-2.994 l -0.301,-11.19 c -0.606,0.133 -1.202,0.237 -1.795,0.323 l 0.365,13.57 c 0.045,1.695 -1.142,3.104 -2.652,3.145 -1.512,0.039 -2.774,-1.301 -2.819,-2.997 L -18.795,9.771 C -19.42,9.693 -20.023,9.578 -20.608,9.434 l 0.303,11.312 c 0.047,1.695 -1.139,3.102 -2.65,3.143 -1.51,0.041 -2.772,-1.301 -2.817,-2.994 l -0.427,-15.84 c -0.2,-1.284 -0.715,-2.034 -1.572,-2.213 -0.116,-0.028 -0.231,-0.031 -0.346,-0.029 -3.69,1.429 -7.186,2.287 -8.457,1.085 -1.549,-1.459 0.386,-4.123 2.808,-6.156 l 7.59,-8.51 c 0.549,-0.406 1.064,-0.773 1.561,-1.123 2.429,-2.939 6.162,-3.853 10.359,-3.98 1.707,-0.051 12.588,-1.07 14.235,14.334 C 0.065,-1.025 0.066,-0.51 0,0 Z"
           style="fill:none;stroke:#231f20;stroke-width:1;stroke-linecap:butt;stroke-linejoin:miter;stroke-miterlimit:4;stroke-dasharray:none;stroke-opacity:1"
           id="path598" /></g></g></g></svg>
