<?xml version="1.0" encoding="UTF-8" standalone="no"?>
<!-- Created with Inkscape (http://www.inkscape.org/) -->

<svg
   version="1.1"
   id="svg2"
   xml:space="preserve"
   width="150.86972"
   height="62.987011"
   viewBox="0 0 150.86972 62.987013"
   xmlns="http://www.w3.org/2000/svg"
   xmlns:svg="http://www.w3.org/2000/svg"><defs
     id="defs6" /><g
     id="layer17"
     transform="translate(-99.344824,-804.42924)"
     style="display:inline"><g
       id="g92668"><text
         transform="matrix(1.33333,0,0,1.33333,0,1344)"
         style="font-variant:normal;font-weight:normal;font-stretch:normal;font-size:10px;font-family:Tahoma;-inkscape-font-specification:Tahoma;writing-mode:lr-tb;fill:#231f20;fill-opacity:1;fill-rule:nonzero;stroke:none"
         id="text946"
         x="74.538101"
         y="-389.81839"><tspan
           x="74.538101 79.458099 86.878098 92.308098 95.938103 99.118103 101.4081 106.9881 112.5181 117.7781"
           y="-389.81839"
           id="tspan942">Two-finger</tspan><tspan
           x="74.538101 80.0681 83.668098 88.918098"
           y="-377.81839"
           id="tspan944">drag</tspan></text><g
         id="g948"
         transform="matrix(1.33333,0,0,-1.33333,242.466,866.38)"><path
           d="M 0,0 4.738,5.637 H 2.807 v 28.957 5.455 h 1.931 l -4.737,5.637 -4.737,-5.637 h 1.931 V 11.092 5.637 h -1.931 z"
           style="fill:#231f20;fill-opacity:1;fill-rule:nonzero;stroke:none"
           id="path950" /></g><g
         id="g952"
         transform="matrix(1.33333,0,0,-1.33333,242.466,866.38)"><path
           d="M 0,0 4.738,5.637 H 2.807 v 28.957 5.455 h 1.931 l -4.737,5.637 -4.737,-5.637 h 1.931 V 11.092 5.637 h -1.931 z"
           style="fill:none;stroke:#231f20;stroke-width:1;stroke-linecap:butt;stroke-linejoin:miter;stroke-miterlimit:4;stroke-dasharray:none;stroke-opacity:1"
           id="path954" /></g><g
         id="g956"
         transform="matrix(1.33333,0,0,-1.33333,205.033,809.888)"><path
           d="M 0,0 9.038,1.27 C 10.555,1.482 11.956,0.428 12.169,-1.084 12.383,-2.6 11.326,-4 9.81,-4.213 L 7.965,-4.475 c 0.488,-0.543 0.956,-1.127 1.399,-1.736 l 5.399,0.758 c 1.984,0.279 3.797,-0.93 4.045,-2.699 0.25,-1.77 -1.161,-3.43 -3.144,-3.709 l -3.142,-0.444 c 0.238,-0.689 0.442,-1.381 0.622,-2.066 l 15.899,2.232 c 1.985,0.282 3.796,-0.927 4.045,-2.697 0.248,-1.769 -1.159,-3.432 -3.146,-3.709 l -15.963,-2.244 c -0.008,-0.744 -0.062,-1.471 -0.156,-2.176 l 13.257,1.861 c 1.985,0.282 3.797,-0.927 4.046,-2.697 0.248,-1.769 -1.16,-3.429 -3.147,-3.709 L 9.424,-30.117 c -0.205,-0.057 -0.392,-0.121 -0.57,-0.19 -0.037,-0.953 -0.26,-1.884 -0.636,-2.74 -1.442,-3.285 -10.777,-2.976 -13.031,-1.377 -1.552,1.102 -2.844,2.045 -3.919,2.881 -5.231,2.16 -7.206,6.982 -8.024,12.68 -0.289,1.998 -2.935,14.65 14.951,18.633 C -1.214,-0.061 -0.609,0.01 0,0"
           style="fill:#ffffff;fill-opacity:1;fill-rule:nonzero;stroke:none"
           id="path958" /></g><g
         id="g960"
         transform="matrix(1.33333,0,0,-1.33333,205.033,809.888)"><path
           d="M 0,0 9.038,1.27 C 10.555,1.482 11.956,0.428 12.169,-1.084 12.383,-2.6 11.326,-4 9.81,-4.213 L 7.965,-4.475 c 0.488,-0.543 0.956,-1.127 1.399,-1.736 l 5.399,0.758 c 1.984,0.279 3.797,-0.93 4.045,-2.699 0.25,-1.77 -1.161,-3.43 -3.144,-3.709 l -3.142,-0.444 c 0.238,-0.689 0.442,-1.381 0.622,-2.066 l 15.899,2.232 c 1.985,0.282 3.796,-0.927 4.045,-2.697 0.248,-1.769 -1.159,-3.432 -3.146,-3.709 l -15.963,-2.244 c -0.008,-0.744 -0.062,-1.471 -0.156,-2.176 l 13.257,1.861 c 1.985,0.282 3.797,-0.927 4.046,-2.697 0.248,-1.769 -1.16,-3.429 -3.147,-3.709 L 9.424,-30.117 c -0.205,-0.057 -0.392,-0.121 -0.57,-0.19 -0.037,-0.953 -0.26,-1.884 -0.636,-2.74 -1.442,-3.285 -10.777,-2.976 -13.031,-1.377 -1.552,1.102 -2.844,2.045 -3.919,2.881 -5.231,2.16 -7.206,6.982 -8.024,12.68 -0.289,1.998 -2.935,14.65 14.951,18.633 C -1.214,-0.061 -0.609,0.01 0,0 Z"
           style="fill:none;stroke:#231f20;stroke-width:1;stroke-linecap:butt;stroke-linejoin:miter;stroke-miterlimit:4;stroke-dasharray:none;stroke-opacity:1"
           id="path962" /></g></g></g></svg>
