<?xml version="1.0" encoding="UTF-8" standalone="no"?>
<!-- Created with Inkscape (http://www.inkscape.org/) -->

<svg
   version="1.1"
   id="svg2"
   xml:space="preserve"
   width="187.19429"
   height="67.146973"
   viewBox="0 0 187.19429 67.146975"
   xmlns="http://www.w3.org/2000/svg"
   xmlns:svg="http://www.w3.org/2000/svg"><defs
     id="defs6" /><g
     id="layer10"
     transform="translate(-411.53079,-797.22181)"
     style="display:inline"><g
       id="g92839"><g
         id="g600"
         transform="matrix(1.33333,0,0,-1.33333,560.079,832.284)"><path
           d="m 0,0 c -0.516,-2.58 -3.086,-4.268 -5.744,-3.77 -2.657,0.5 -4.394,2.999 -3.877,5.581 0.516,2.58 3.086,4.267 5.742,3.769 C -1.222,5.076 0.517,2.582 0,0"
           style="fill:#231f20;fill-opacity:1;fill-rule:nonzero;stroke:none"
           id="path602" /></g><g
         id="g604"
         transform="matrix(1.33333,0,0,-1.33333,560.079,832.284)"><path
           d="m 0,0 c -0.516,-2.58 -3.086,-4.268 -5.744,-3.77 -2.657,0.5 -4.394,2.999 -3.877,5.581 0.516,2.58 3.086,4.267 5.742,3.769 C -1.222,5.076 0.517,2.582 0,0 Z"
           style="fill:none;stroke:#231f20;stroke-width:1;stroke-linecap:butt;stroke-linejoin:miter;stroke-miterlimit:4;stroke-dasharray:none;stroke-opacity:1"
           id="path606" /></g><g
         id="g608"
         transform="matrix(1.33333,0,0,-1.33333,581.251,805.445)"><path
           d="m 0,0 c -0.514,-2.58 -3.088,-4.27 -5.744,-3.77 -2.658,0.502 -4.393,3 -3.879,5.581 0.516,2.582 3.086,4.269 5.744,3.769 C -1.223,5.078 0.516,2.58 0,0"
           style="fill:#231f20;fill-opacity:1;fill-rule:nonzero;stroke:none"
           id="path610" /></g><g
         id="g612"
         transform="matrix(1.33333,0,0,-1.33333,581.251,805.445)"><path
           d="m 0,0 c -0.514,-2.58 -3.088,-4.27 -5.744,-3.77 -2.658,0.502 -4.393,3 -3.879,5.581 0.516,2.582 3.086,4.269 5.744,3.769 C -1.223,5.078 0.516,2.58 0,0 Z"
           style="fill:none;stroke:#231f20;stroke-width:1;stroke-linecap:butt;stroke-linejoin:miter;stroke-miterlimit:4;stroke-dasharray:none;stroke-opacity:1"
           id="path614" /></g><g
         id="g616"
         transform="matrix(1.33333,0,0,-1.33333,583.629,822.375)"><path
           d="m 0,0 c 0.129,-1.469 -1.734,-2.828 -4.164,-3.033 -2.432,-0.207 -4.508,0.818 -4.641,2.287 -0.131,1.471 1.731,2.828 4.162,3.035 C -2.211,2.496 -0.133,1.471 0,0"
           style="fill:#ffffff;fill-opacity:1;fill-rule:nonzero;stroke:none"
           id="path618" /></g><g
         id="g620"
         transform="matrix(1.33333,0,0,-1.33333,583.629,822.375)"><path
           d="m 0,0 c 0.129,-1.469 -1.734,-2.828 -4.164,-3.033 -2.432,-0.207 -4.508,0.818 -4.641,2.287 -0.131,1.471 1.731,2.828 4.162,3.035 C -2.211,2.496 -0.133,1.471 0,0 Z"
           style="fill:none;stroke:#231f20;stroke-width:1;stroke-linecap:butt;stroke-linejoin:miter;stroke-miterlimit:4;stroke-dasharray:none;stroke-opacity:1"
           id="path622" /></g><g
         id="g624"
         transform="matrix(1.33333,0,0,-1.33333,595.366,828.549)"><path
           d="M 0,0 C -0.33,0.057 -0.658,0.045 -0.967,-0.023 -0.611,1.357 -1.313,2.828 -2.695,3.428 -3.467,3.762 -4.307,3.76 -5.037,3.49 L -5.086,5.322 C -5.1,5.895 -6.002,6.756 -7.055,7.568 l 0.994,3.414 c 0.454,1.555 -4.273,6.729 -4.273,6.729 -1.039,1.541 -3.285,2.227 -5.021,1.531 -1.737,-0.699 -2.303,-2.512 -1.264,-4.053 l 3.103,-4.613 c 0,0 -2.539,-10.933 -4.24,-12.535 -1.394,-1.312 -5.811,0.25 -6.416,0.594 -3.496,1.228 -6.685,1.871 -7.895,0.752 -1.588,-1.467 0.419,-4.121 2.921,-6.143 l 5.003,-5.396 c -0.42,-7.045 3.973,-10.203 9.756,-12.139 1.662,-0.557 9.51,-7.285 15.84,6.937 0.828,4.78 0.496,14.635 0.496,14.635 C 2.184,-1.443 1.311,-0.227 0,0"
           style="fill:#ffffff;fill-opacity:1;fill-rule:nonzero;stroke:none"
           id="path626" /></g><g
         id="g628"
         transform="matrix(1.33333,0,0,-1.33333,595.366,828.549)"><path
           d="M 0,0 C -0.33,0.057 -0.658,0.045 -0.967,-0.023 -0.611,1.357 -1.313,2.828 -2.695,3.428 -3.467,3.762 -4.307,3.76 -5.037,3.49 L -5.086,5.322 C -5.1,5.895 -6.002,6.756 -7.055,7.568 l 0.994,3.414 c 0.454,1.555 -4.273,6.729 -4.273,6.729 -1.039,1.541 -3.285,2.227 -5.021,1.531 -1.737,-0.699 -2.303,-2.512 -1.264,-4.053 l 3.103,-4.613 c 0,0 -2.539,-10.933 -4.24,-12.535 -1.394,-1.312 -5.811,0.25 -6.416,0.594 -3.496,1.228 -6.685,1.871 -7.895,0.752 -1.588,-1.467 0.419,-4.121 2.921,-6.143 l 5.003,-5.396 c -0.42,-7.045 3.973,-10.203 9.756,-12.139 1.662,-0.557 9.51,-7.285 15.84,6.937 0.828,4.78 0.496,14.635 0.496,14.635 C 2.184,-1.443 1.311,-0.227 0,0 Z"
           style="fill:none;stroke:#231f20;stroke-width:1;stroke-linecap:butt;stroke-linejoin:miter;stroke-miterlimit:4;stroke-dasharray:none;stroke-opacity:1"
           id="path630" /></g><g
         id="g632"
         transform="matrix(1.33333,0,0,-1.33333,495.621,831.187)"><path
           d="m 0,0 c -0.516,-2.584 -3.086,-4.271 -5.744,-3.771 -2.656,0.5 -4.396,2.998 -3.879,5.58 0.516,2.582 3.086,4.267 5.744,3.769 C -1.224,5.076 0.516,2.578 0,0"
           style="fill:#231f20;fill-opacity:1;fill-rule:nonzero;stroke:none"
           id="path634" /></g><g
         id="g636"
         transform="matrix(1.33333,0,0,-1.33333,495.621,831.187)"><path
           d="m 0,0 c -0.516,-2.584 -3.086,-4.271 -5.744,-3.771 -2.656,0.5 -4.396,2.998 -3.879,5.58 0.516,2.582 3.086,4.267 5.744,3.769 C -1.224,5.076 0.516,2.578 0,0 Z"
           style="fill:none;stroke:#231f20;stroke-width:1;stroke-linecap:butt;stroke-linejoin:miter;stroke-miterlimit:4;stroke-dasharray:none;stroke-opacity:1"
           id="path638" /></g><g
         id="g640"
         transform="matrix(1.33333,0,0,-1.33333,496.842,821.167)"><path
           d="M 0,0 C -0.516,-2.58 -3.088,-4.27 -5.744,-3.768 -8.4,-3.268 -10.14,-0.77 -9.623,1.811 -9.107,4.395 -6.537,6.08 -3.881,5.58 -1.223,5.08 0.515,2.582 0,0"
           style="fill:#231f20;fill-opacity:1;fill-rule:nonzero;stroke:none"
           id="path642" /></g><g
         id="g644"
         transform="matrix(1.33333,0,0,-1.33333,496.842,821.167)"><path
           d="M 0,0 C -0.516,-2.58 -3.088,-4.27 -5.744,-3.768 -8.4,-3.268 -10.14,-0.77 -9.623,1.811 -9.107,4.395 -6.537,6.08 -3.881,5.58 -1.223,5.08 0.515,2.582 0,0 Z"
           style="fill:none;stroke:#231f20;stroke-width:1;stroke-linecap:butt;stroke-linejoin:miter;stroke-miterlimit:4;stroke-dasharray:none;stroke-opacity:1"
           id="path646" /></g><g
         id="g648"
         transform="matrix(1.33333,0,0,-1.33333,512.527,829.573)"><path
           d="m 0,0 c 0.689,-1.084 0.033,-2.695 -1.469,-3.598 -1.504,-0.9 -3.281,-0.748 -3.97,0.338 -0.69,1.084 -0.034,2.696 1.468,3.598 C -2.467,1.236 -0.69,1.088 0,0"
           style="fill:#ffffff;fill-opacity:1;fill-rule:nonzero;stroke:none"
           id="path650" /></g><g
         id="g652"
         transform="matrix(1.33333,0,0,-1.33333,512.527,829.573)"><path
           d="m 0,0 c 0.689,-1.084 0.033,-2.695 -1.469,-3.598 -1.504,-0.9 -3.281,-0.748 -3.97,0.338 -0.69,1.084 -0.034,2.696 1.468,3.598 C -2.467,1.236 -0.69,1.088 0,0 Z"
           style="fill:none;stroke:#211d1d;stroke-width:1;stroke-linecap:butt;stroke-linejoin:miter;stroke-miterlimit:4;stroke-dasharray:none;stroke-opacity:1"
           id="path654" /></g><g
         id="g656"
         transform="matrix(1.33333,0,0,-1.33333,533.603,830.849)"><path
           d="m 0,0 c -0.44,0.221 -0.92,0.295 -1.377,0.242 0.539,1.358 -0.004,2.93 -1.343,3.672 -0.75,0.414 -1.604,0.486 -2.375,0.27 -0.218,0.121 -0.517,0.218 -0.872,0.302 -0.387,0.743 -1.418,3.379 -2.31,3.6 -0.473,0.117 -4.024,-0.373 -6.129,-2.154 l -3.678,4 c -0.646,1.486 -10.59,0.945 -10.59,0.945 -1.803,0.574 -3.998,-0.256 -4.904,-1.856 -0.904,-1.595 -0.178,-3.355 1.623,-3.927 l 7.611,-0.186 1.889,-2.238 -1.383,-5.57 c -4.168,6.773 -7.472,6.617 -9.358,5.361 -1.808,-1.201 -0.263,-4.133 1.876,-6.52 l 5.129,-8.445 c 0.172,-0.172 0.663,-1.857 0.831,-2.019 1.145,-6.241 6.754,-8.065 12.491,-8.975 1.736,-0.275 10.641,-5.617 14.406,9.441 -0.016,3.965 -0.393,6.969 -1.356,9.276 l 0.858,1.627 C 1.648,-2.002 1.185,-0.59 0,0"
           style="fill:#ffffff;fill-opacity:1;fill-rule:nonzero;stroke:none"
           id="path658" /></g><g
         id="g660"
         transform="matrix(1.33333,0,0,-1.33333,533.603,830.849)"><path
           d="m 0,0 c -0.44,0.221 -0.92,0.295 -1.377,0.242 0.539,1.358 -0.004,2.93 -1.343,3.672 -0.75,0.414 -1.604,0.486 -2.375,0.27 -0.218,0.121 -0.517,0.218 -0.872,0.302 -0.387,0.743 -1.418,3.379 -2.31,3.6 -0.473,0.117 -4.024,-0.373 -6.129,-2.154 l -3.678,4 c -0.646,1.486 -10.59,0.945 -10.59,0.945 -1.803,0.574 -3.998,-0.256 -4.904,-1.856 -0.904,-1.595 -0.178,-3.355 1.623,-3.927 l 7.611,-0.186 1.889,-2.238 -1.383,-5.57 c -4.168,6.773 -7.472,6.617 -9.358,5.361 -1.808,-1.201 -0.263,-4.133 1.876,-6.52 l 5.129,-8.445 c 0.172,-0.172 0.663,-1.857 0.831,-2.019 1.145,-6.241 6.754,-8.065 12.491,-8.975 1.736,-0.275 10.641,-5.617 14.406,9.441 -0.016,3.965 -0.393,6.969 -1.356,9.276 l 0.858,1.627 C 1.648,-2.002 1.185,-0.59 0,0 Z"
           style="fill:none;stroke:#231f20;stroke-width:1;stroke-linecap:butt;stroke-linejoin:miter;stroke-miterlimit:4;stroke-dasharray:none;stroke-opacity:1"
           id="path662" /></g><text
         transform="matrix(1.33333,0,0,1.33333,0,1344)"
         style="font-variant:normal;font-weight:normal;font-stretch:normal;font-size:10px;font-family:Tahoma;-inkscape-font-specification:Tahoma;writing-mode:lr-tb;fill:#231f20;fill-opacity:1;fill-rule:nonzero;stroke:none"
         id="text71792"
         x="74.539688"
         y="-311.16501"><tspan
           x="307.98969 313.55969 319.08969 322.63968 327.89969 333.14966"
           y="-381.66501"
           id="tspan71790">Spread</tspan></text></g></g></svg>
