<?xml version="1.0" encoding="UTF-8" standalone="no"?>
<!-- Created with Inkscape (http://www.inkscape.org/) -->

<svg
   version="1.1"
   id="svg2"
   xml:space="preserve"
   width="181.72797"
   height="66.134621"
   viewBox="0 0 181.72797 66.134621"
   xmlns="http://www.w3.org/2000/svg"
   xmlns:svg="http://www.w3.org/2000/svg"><defs
     id="defs6" /><g
     id="layer11"
     style="display:inline"
     transform="translate(-100.69248,-891.34761)"><g
       id="g404"
       transform="matrix(1.33333,0,0,-1.33333,281.384,897.401)"><path
         d="M 0,0 -4.127,3.467 V 2.051 h -53.281 v -4.104 h 53.281 v -1.414 z"
         style="fill:#231f20;fill-opacity:1;fill-rule:nonzero;stroke:none"
         id="path406" /></g><g
       id="g408"
       transform="matrix(1.33333,0,0,-1.33333,281.384,897.401)"><path
         d="M 0,0 -4.127,3.467 V 2.051 h -53.281 v -4.104 h 53.281 v -1.414 z"
         style="fill:none;stroke:#231f20;stroke-width:1;stroke-linecap:butt;stroke-linejoin:miter;stroke-miterlimit:4;stroke-dasharray:none;stroke-opacity:1"
         id="path410" /></g><g
       id="g412"
       transform="matrix(1.33333,0,0,-1.33333,255.975,935.258)"><path
         d="m 0,0 c -0.875,0.74 -2.088,0.811 -3.025,0.268 -0.2,0.73 -0.448,1.462 -0.739,2.189 l 1.566,1.85 c 1.233,1.455 1.18,3.527 -0.116,4.623 -1.297,1.101 -3.348,0.812 -4.581,-0.645 L -7.061,8.092 C -7.495,8.633 -7.945,9.15 -8.406,9.646 l 1.926,2.27 c 1.233,1.455 1.18,3.525 -0.118,4.625 -1.297,1.098 -3.347,0.811 -4.58,-0.645 l -1.968,-2.32 c -0.603,0.369 -1.213,0.699 -1.831,0.983 l 8.232,9.712 c 1.235,1.456 1.184,3.526 -0.114,4.627 -1.297,1.098 -3.347,0.807 -4.58,-0.646 l -11.54,-13.619 c -0.89,-0.809 -1.712,-1.139 -2.469,-0.977 V -9.705 h -4.298 c 0.18,-0.195 0.363,-0.391 0.553,-0.584 0.134,-0.15 0.268,-0.285 0.404,-0.404 0.5,-0.491 1.027,-0.967 1.574,-1.436 1.463,-1.244 10.296,-9.805 22.585,2.561 0.444,0.394 0.817,0.851 1.122,1.357 l 3.81,4.494 C 1.245,-2.602 1.107,-0.939 0,0"
         style="fill:#ffffff;fill-opacity:1;fill-rule:nonzero;stroke:none"
         id="path414" /></g><g
       id="g416"
       transform="matrix(1.33333,0,0,-1.33333,255.975,935.258)"><path
         d="m 0,0 c -0.875,0.74 -2.088,0.811 -3.025,0.268 -0.2,0.73 -0.448,1.462 -0.739,2.189 l 1.566,1.85 c 1.233,1.455 1.18,3.527 -0.116,4.623 -1.297,1.101 -3.348,0.812 -4.581,-0.645 L -7.061,8.092 C -7.495,8.633 -7.945,9.15 -8.406,9.646 l 1.926,2.27 c 1.233,1.455 1.18,3.525 -0.118,4.625 -1.297,1.098 -3.347,0.811 -4.58,-0.645 l -1.968,-2.32 c -0.603,0.369 -1.213,0.699 -1.831,0.983 l 8.232,9.712 c 1.235,1.456 1.184,3.526 -0.114,4.627 -1.297,1.098 -3.347,0.807 -4.58,-0.646 l -11.54,-13.619 c -0.89,-0.809 -1.712,-1.139 -2.469,-0.977 V -9.705 h -4.298 c 0.18,-0.195 0.363,-0.391 0.553,-0.584 0.134,-0.15 0.268,-0.285 0.404,-0.404 0.5,-0.491 1.027,-0.967 1.574,-1.436 1.463,-1.244 10.296,-9.805 22.585,2.561 0.444,0.394 0.817,0.851 1.122,1.357 l 3.81,4.494 C 1.245,-2.602 1.107,-0.939 0,0 Z"
         style="fill:none;stroke:#231f20;stroke-width:1;stroke-linecap:butt;stroke-linejoin:miter;stroke-miterlimit:4;stroke-dasharray:none;stroke-opacity:1"
         id="path418" /></g><g
       id="g420"
       transform="matrix(1.33333,0,0,-1.33333,234.165,934.885)"><path
         d="M 0,0 1.107,5.787 C 1.382,7.219 0.445,8.602 -0.98,8.873 -2.105,9.088 -3.196,8.553 -3.746,7.619 -4.279,8.156 -4.855,8.674 -5.466,9.166 l 0.454,2.379 c 0.362,1.873 -0.704,3.65 -2.373,3.969 -1.672,0.322 -3.314,-0.94 -3.672,-2.813 l -0.048,-0.248 c -0.647,0.256 -1.291,0.485 -1.935,0.69 l 0.56,2.921 c 0.358,1.875 -0.706,3.653 -2.375,3.973 -1.668,0.318 -3.314,-0.939 -3.672,-2.812 L -19.1,14.236 c -0.709,0.024 -1.401,0.012 -2.078,-0.045 l 2.395,12.506 c 0.358,1.875 -0.703,3.651 -2.373,3.971 -1.671,0.318 -3.315,-0.939 -3.673,-2.813 l -3.357,-17.533 c -0.455,-1.375 -1.162,-2.109 -2.145,-2.154 h -0.03 c -3.628,2.078 -7.064,3.451 -8.614,2.406 -1.984,-1.34 -0.317,-4.648 2.002,-7.347 L -30.09,-7.6 c 1.619,-3.724 4.82,-5.701 8.742,-6.836 0.193,-0.064 0.375,-0.115 0.553,-0.154 0.676,-0.178 1.369,-0.338 2.076,-0.474 1.886,-0.366 13.783,-3.479 18.41,13.33 C -0.115,-1.172 -0.016,-0.592 0,0"
         style="fill:#ffffff;fill-opacity:1;fill-rule:nonzero;stroke:none"
         id="path422" /></g><g
       id="g424"
       transform="matrix(1.33333,0,0,-1.33333,234.165,934.885)"><path
         d="M 0,0 1.107,5.787 C 1.382,7.219 0.445,8.602 -0.98,8.873 -2.105,9.088 -3.196,8.553 -3.746,7.619 -4.279,8.156 -4.855,8.674 -5.466,9.166 l 0.454,2.379 c 0.362,1.873 -0.704,3.65 -2.373,3.969 -1.672,0.322 -3.314,-0.94 -3.672,-2.813 l -0.048,-0.248 c -0.647,0.256 -1.291,0.485 -1.935,0.69 l 0.56,2.921 c 0.358,1.875 -0.706,3.653 -2.375,3.973 -1.668,0.318 -3.314,-0.939 -3.672,-2.812 L -19.1,14.236 c -0.709,0.024 -1.401,0.012 -2.078,-0.045 l 2.395,12.506 c 0.358,1.875 -0.703,3.651 -2.373,3.971 -1.671,0.318 -3.315,-0.939 -3.673,-2.813 l -3.357,-17.533 c -0.455,-1.375 -1.162,-2.109 -2.145,-2.154 h -0.03 c -3.628,2.078 -7.064,3.451 -8.614,2.406 -1.984,-1.34 -0.317,-4.648 2.002,-7.347 L -30.09,-7.6 c 1.619,-3.724 4.82,-5.701 8.742,-6.836 0.193,-0.064 0.375,-0.115 0.553,-0.154 0.676,-0.178 1.369,-0.338 2.076,-0.474 1.886,-0.366 13.783,-3.479 18.41,13.33 C -0.115,-1.172 -0.016,-0.592 0,0 Z"
         style="fill:none;stroke:#231f20;stroke-width:1;stroke-linecap:butt;stroke-linejoin:miter;stroke-miterlimit:4;stroke-dasharray:none;stroke-opacity:1"
         id="path426" /></g><text
       transform="matrix(1.33333,0,0,1.33333,0,1344)"
       style="font-variant:normal;font-weight:normal;font-stretch:normal;font-size:10px;font-family:Tahoma;-inkscape-font-specification:Tahoma;writing-mode:lr-tb;fill:#231f20;fill-opacity:1;fill-rule:nonzero;stroke:none"
       id="text432"
       x="74.538101"
       y="-311.16501"><tspan
         id="tspan430"
         x="74.538101"
         y="-311.16501">Flick</tspan></text></g></svg>
