<?xml version="1.0" encoding="UTF-8" standalone="no"?>
<!-- Created with Inkscape (http://www.inkscape.org/) -->

<svg
   version="1.1"
   id="svg2"
   xml:space="preserve"
   width="195.65215"
   height="62.686474"
   viewBox="0 0 195.65215 62.686474"
   xmlns="http://www.w3.org/2000/svg"
   xmlns:svg="http://www.w3.org/2000/svg"><defs
     id="defs6" /><g
     id="layer12"
     style="display:inline"
     transform="translate(-411.53079,-886.33604)"><text
       transform="matrix(1.33333,0,0,1.33333,0,1344)"
       style="font-variant:normal;font-weight:normal;font-stretch:normal;font-size:10px;font-family:Tahoma;-inkscape-font-specification:Tahoma;writing-mode:lr-tb;fill:#231f20;fill-opacity:1;fill-rule:nonzero;stroke:none"
       id="text442"
       x="307.98969"
       y="-316.49899"><tspan
         id="tspan440"
         x="307.98969"
         y="-316.49899">Splay</tspan></text><g
       id="g664"
       transform="matrix(1.33333,0,0,-1.33333,496.483,912.654)"><path
         d="m 0,0 c -0.551,-2.834 -3.293,-4.686 -6.127,-4.137 -2.834,0.549 -4.686,3.291 -4.138,6.127 0.55,2.834 3.29,4.686 6.125,4.137 C -1.305,5.578 0.549,2.834 0,0"
         style="fill:#231f20;fill-opacity:1;fill-rule:nonzero;stroke:none"
         id="path666" /></g><g
       id="g668"
       transform="matrix(1.33333,0,0,-1.33333,496.483,912.654)"><path
         d="m 0,0 c -0.551,-2.834 -3.293,-4.686 -6.127,-4.137 -2.834,0.549 -4.686,3.291 -4.138,6.127 0.55,2.834 3.29,4.686 6.125,4.137 C -1.305,5.578 0.549,2.834 0,0 Z"
         style="fill:none;stroke:#231f20;stroke-width:1;stroke-linecap:butt;stroke-linejoin:miter;stroke-miterlimit:4;stroke-dasharray:none;stroke-opacity:1"
         id="path670" /></g><g
       id="g672"
       transform="matrix(1.33333,0,0,-1.33333,497.785,901.643)"><path
         d="m 0,0 c -0.551,-2.834 -3.293,-4.688 -6.127,-4.139 -2.836,0.549 -4.686,3.293 -4.138,6.127 0.55,2.834 3.292,4.688 6.126,4.139 C -1.305,5.576 0.549,2.834 0,0"
         style="fill:#231f20;fill-opacity:1;fill-rule:nonzero;stroke:none"
         id="path674" /></g><g
       id="g676"
       transform="matrix(1.33333,0,0,-1.33333,497.785,901.643)"><path
         d="m 0,0 c -0.551,-2.834 -3.293,-4.688 -6.127,-4.139 -2.836,0.549 -4.686,3.293 -4.138,6.127 0.55,2.834 3.292,4.688 6.126,4.139 C -1.305,5.576 0.549,2.834 0,0 Z"
         style="fill:none;stroke:#231f20;stroke-width:1;stroke-linecap:butt;stroke-linejoin:miter;stroke-miterlimit:4;stroke-dasharray:none;stroke-opacity:1"
         id="path678" /></g><g
       id="g680"
       transform="matrix(1.33333,0,0,-1.33333,514.514,910.875)"><path
         d="m 0,0 c 0.735,-1.193 0.033,-2.961 -1.567,-3.949 -1.603,-0.99 -3.499,-0.824 -4.236,0.367 -0.736,1.193 -0.033,2.961 1.569,3.951 C -2.631,1.357 -0.736,1.193 0,0"
         style="fill:#ffffff;fill-opacity:1;fill-rule:nonzero;stroke:none"
         id="path682" /></g><g
       id="g684"
       transform="matrix(1.33333,0,0,-1.33333,514.514,910.875)"><path
         d="m 0,0 c 0.735,-1.193 0.033,-2.961 -1.567,-3.949 -1.603,-0.99 -3.499,-0.824 -4.236,0.367 -0.736,1.193 -0.033,2.961 1.569,3.951 C -2.631,1.357 -0.736,1.193 0,0 Z"
         style="fill:none;stroke:#211d1d;stroke-width:1;stroke-linecap:butt;stroke-linejoin:miter;stroke-miterlimit:4;stroke-dasharray:none;stroke-opacity:1"
         id="path686" /></g><g
       id="g688"
       transform="matrix(1.33333,0,0,-1.33333,536.993,912.279)"><path
         d="m 0,0 c -0.471,0.242 -0.98,0.324 -1.469,0.268 0.575,1.49 -0.003,3.216 -1.429,4.031 -0.801,0.455 -1.713,0.535 -2.537,0.297 -0.231,0.133 -0.551,0.242 -0.93,0.336 -0.412,0.81 -1.514,3.707 -2.465,3.949 -0.502,0.127 -4.291,-0.41 -6.535,-2.365 l -3.926,4.392 c -0.688,1.633 -11.293,1.039 -11.293,1.039 -1.922,0.629 -4.265,-0.283 -5.229,-2.039 -0.965,-1.754 -0.191,-3.685 1.731,-4.312 l 8.117,-0.203 2.016,-2.459 -1.477,-6.12 c -4.447,7.44 -7.969,7.27 -9.982,5.889 -1.928,-1.32 -0.28,-4.539 2.002,-7.156 l 5.47,-9.277 c 0.184,-0.186 0.707,-2.04 0.885,-2.219 1.223,-6.852 7.202,-8.856 13.324,-9.856 1.852,-0.3 11.35,-6.168 15.366,10.369 -0.018,4.356 -0.419,7.653 -1.448,10.188 l 0.918,1.783 C 1.758,-2.199 1.263,-0.646 0,0"
         style="fill:#ffffff;fill-opacity:1;fill-rule:nonzero;stroke:none"
         id="path690" /></g><g
       id="g692"
       transform="matrix(1.33333,0,0,-1.33333,536.993,912.279)"><path
         d="m 0,0 c -0.471,0.242 -0.98,0.324 -1.469,0.268 0.575,1.49 -0.003,3.216 -1.429,4.031 -0.801,0.455 -1.713,0.535 -2.537,0.297 -0.231,0.133 -0.551,0.242 -0.93,0.336 -0.412,0.81 -1.514,3.707 -2.465,3.949 -0.502,0.127 -4.291,-0.41 -6.535,-2.365 l -3.926,4.392 c -0.688,1.633 -11.293,1.039 -11.293,1.039 -1.922,0.629 -4.265,-0.283 -5.229,-2.039 -0.965,-1.754 -0.191,-3.685 1.731,-4.312 l 8.117,-0.203 2.016,-2.459 -1.477,-6.12 c -4.447,7.44 -7.969,7.27 -9.982,5.889 -1.928,-1.32 -0.28,-4.539 2.002,-7.156 l 5.47,-9.277 c 0.184,-0.186 0.707,-2.04 0.885,-2.219 1.223,-6.852 7.202,-8.856 13.324,-9.856 1.852,-0.3 11.35,-6.168 15.366,10.369 -0.018,4.356 -0.419,7.653 -1.448,10.188 l 0.918,1.783 C 1.758,-2.199 1.263,-0.646 0,0 Z"
         style="fill:none;stroke:#231f20;stroke-width:1;stroke-linecap:butt;stroke-linejoin:miter;stroke-miterlimit:4;stroke-dasharray:none;stroke-opacity:1"
         id="path694" /></g><g
       id="g696"
       transform="matrix(1.33333,0,0,-1.33333,561.874,923.76)"><path
         d="m 0,0 c -0.512,-2.641 -3.066,-4.367 -5.709,-3.855 -2.642,0.511 -4.365,3.066 -3.855,5.709 0.511,2.64 3.068,4.367 5.71,3.857 C -1.215,5.197 0.512,2.641 0,0"
         style="fill:#231f20;fill-opacity:1;fill-rule:nonzero;stroke:none"
         id="path698" /></g><g
       id="g700"
       transform="matrix(1.33333,0,0,-1.33333,561.874,923.76)"><path
         d="m 0,0 c -0.512,-2.641 -3.066,-4.367 -5.709,-3.855 -2.642,0.511 -4.365,3.066 -3.855,5.709 0.511,2.64 3.068,4.367 5.71,3.857 C -1.215,5.197 0.512,2.641 0,0 Z"
         style="fill:none;stroke:#231f20;stroke-width:1;stroke-linecap:butt;stroke-linejoin:miter;stroke-miterlimit:4;stroke-dasharray:none;stroke-opacity:1"
         id="path702" /></g><g
       id="g704"
       transform="matrix(1.33333,0,0,-1.33333,576.897,899.513)"><path
         d="m 0,0 c -0.512,-2.641 -3.066,-4.369 -5.709,-3.855 -2.642,0.511 -4.369,3.066 -3.855,5.709 0.51,2.64 3.068,4.369 5.709,3.855 C -1.215,5.197 0.512,2.641 0,0"
         style="fill:#231f20;fill-opacity:1;fill-rule:nonzero;stroke:none"
         id="path706" /></g><g
       id="g708"
       transform="matrix(1.33333,0,0,-1.33333,576.897,899.513)"><path
         d="m 0,0 c -0.512,-2.641 -3.066,-4.369 -5.709,-3.855 -2.642,0.511 -4.369,3.066 -3.855,5.709 0.51,2.64 3.068,4.369 5.709,3.855 C -1.215,5.197 0.512,2.641 0,0 Z"
         style="fill:none;stroke:#231f20;stroke-width:1;stroke-linecap:butt;stroke-linejoin:miter;stroke-miterlimit:4;stroke-dasharray:none;stroke-opacity:1"
         id="path710" /></g><g
       id="g712"
       transform="matrix(1.33333,0,0,-1.33333,586.184,894.734)"><path
         d="m 0,0 c -0.512,-2.643 -3.066,-4.369 -5.707,-3.855 -2.643,0.511 -4.367,3.066 -3.856,5.709 0.512,2.64 3.069,4.367 5.709,3.855 C -1.213,5.195 0.514,2.641 0,0"
         style="fill:#231f20;fill-opacity:1;fill-rule:nonzero;stroke:none"
         id="path714" /></g><g
       id="g716"
       transform="matrix(1.33333,0,0,-1.33333,586.184,894.734)"><path
         d="m 0,0 c -0.512,-2.643 -3.066,-4.369 -5.707,-3.855 -2.643,0.511 -4.367,3.066 -3.856,5.709 0.512,2.64 3.069,4.367 5.709,3.855 C -1.213,5.195 0.514,2.641 0,0 Z"
         style="fill:none;stroke:#231f20;stroke-width:1;stroke-linecap:butt;stroke-linejoin:miter;stroke-miterlimit:4;stroke-dasharray:none;stroke-opacity:1"
         id="path718" /></g><g
       id="g720"
       transform="matrix(1.33333,0,0,-1.33333,595.723,899.513)"><path
         d="m 0,0 c -0.514,-2.641 -3.068,-4.367 -5.711,-3.855 -2.643,0.511 -4.367,3.068 -3.855,5.709 0.513,2.64 3.068,4.369 5.709,3.857 C -1.215,5.197 0.51,2.641 0,0"
         style="fill:#231f20;fill-opacity:1;fill-rule:nonzero;stroke:none"
         id="path722" /></g><g
       id="g724"
       transform="matrix(1.33333,0,0,-1.33333,595.723,899.513)"><path
         d="m 0,0 c -0.514,-2.641 -3.068,-4.367 -5.711,-3.855 -2.643,0.511 -4.367,3.068 -3.855,5.709 0.513,2.64 3.068,4.369 5.709,3.857 C -1.215,5.197 0.51,2.641 0,0 Z"
         style="fill:none;stroke:#231f20;stroke-width:1;stroke-linecap:butt;stroke-linejoin:miter;stroke-miterlimit:4;stroke-dasharray:none;stroke-opacity:1"
         id="path726" /></g><g
       id="g728"
       transform="matrix(1.33333,0,0,-1.33333,606.397,910.768)"><path
         d="m 0,0 c -0.512,-2.641 -3.068,-4.367 -5.709,-3.855 -2.643,0.511 -4.369,3.068 -3.857,5.709 0.513,2.64 3.068,4.367 5.709,3.857 C -1.215,5.199 0.512,2.643 0,0"
         style="fill:#231f20;fill-opacity:1;fill-rule:nonzero;stroke:none"
         id="path730" /></g><g
       id="g732"
       transform="matrix(1.33333,0,0,-1.33333,606.397,910.768)"><path
         d="m 0,0 c -0.512,-2.641 -3.068,-4.367 -5.709,-3.855 -2.643,0.511 -4.369,3.068 -3.857,5.709 0.513,2.64 3.068,4.367 5.709,3.857 C -1.215,5.199 0.512,2.643 0,0 Z"
         style="fill:none;stroke:#231f20;stroke-width:1;stroke-linecap:butt;stroke-linejoin:miter;stroke-miterlimit:4;stroke-dasharray:none;stroke-opacity:1"
         id="path734" /></g><g
       id="g736"
       transform="matrix(1.33333,0,0,-1.33333,601.559,925.198)"><path
         d="m 0,0 0.316,11.818 c 0.038,1.295 -0.982,2.371 -2.275,2.407 -1.293,0.035 -2.369,-0.987 -2.404,-2.28 L -4.516,6.27 c -0.505,0.357 -1.037,0.695 -1.595,1.009 l 0.353,13.119 c 0.045,1.696 -1.14,3.1 -2.652,3.141 -1.51,0.041 -2.772,-1.297 -2.817,-2.992 L -11.529,9.355 c -0.604,0.133 -1.201,0.237 -1.795,0.323 l 0.365,13.57 c 0.047,1.695 -1.141,3.104 -2.652,3.145 -1.51,0.039 -2.772,-1.301 -2.817,-2.997 L -18.795,9.773 c -0.627,-0.08 -1.23,-0.195 -1.814,-0.339 l 0.304,11.312 c 0.045,1.695 -1.14,3.102 -2.652,3.143 -1.508,0.041 -2.77,-1.299 -2.816,-2.994 l -0.426,-15.84 c -0.201,-1.282 -0.715,-2.034 -1.573,-2.213 -0.116,-0.026 -0.23,-0.031 -0.347,-0.029 -3.689,1.431 -7.185,2.287 -8.457,1.085 -1.549,-1.459 0.388,-4.123 2.809,-6.156 l 7.591,-8.51 c 0.547,-0.406 1.063,-0.773 1.559,-1.121 2.429,-2.941 6.162,-3.853 10.359,-3.98 1.707,-0.053 12.59,-1.072 14.237,14.334 C 0.064,-1.025 0.066,-0.51 0,0"
         style="fill:#ffffff;fill-opacity:1;fill-rule:nonzero;stroke:none"
         id="path738" /></g><g
       id="g740"
       transform="matrix(1.33333,0,0,-1.33333,601.559,925.198)"><path
         d="m 0,0 0.316,11.818 c 0.038,1.295 -0.982,2.371 -2.275,2.407 -1.293,0.035 -2.369,-0.987 -2.404,-2.28 L -4.516,6.27 c -0.505,0.357 -1.037,0.695 -1.595,1.009 l 0.353,13.119 c 0.045,1.696 -1.14,3.1 -2.652,3.141 -1.51,0.041 -2.772,-1.297 -2.817,-2.992 L -11.529,9.355 c -0.604,0.133 -1.201,0.237 -1.795,0.323 l 0.365,13.57 c 0.047,1.695 -1.141,3.104 -2.652,3.145 -1.51,0.039 -2.772,-1.301 -2.817,-2.997 L -18.795,9.773 c -0.627,-0.08 -1.23,-0.195 -1.814,-0.339 l 0.304,11.312 c 0.045,1.695 -1.14,3.102 -2.652,3.143 -1.508,0.041 -2.77,-1.299 -2.816,-2.994 l -0.426,-15.84 c -0.201,-1.282 -0.715,-2.034 -1.573,-2.213 -0.116,-0.026 -0.23,-0.031 -0.347,-0.029 -3.689,1.431 -7.185,2.287 -8.457,1.085 -1.549,-1.459 0.388,-4.123 2.809,-6.156 l 7.591,-8.51 c 0.547,-0.406 1.063,-0.773 1.559,-1.121 2.429,-2.941 6.162,-3.853 10.359,-3.98 1.707,-0.053 12.59,-1.072 14.237,14.334 C 0.064,-1.025 0.066,-0.51 0,0 Z"
         style="fill:none;stroke:#231f20;stroke-width:1;stroke-linecap:butt;stroke-linejoin:miter;stroke-miterlimit:4;stroke-dasharray:none;stroke-opacity:1"
         id="path742" /></g></g></svg>
