<?xml version="1.0" encoding="UTF-8" standalone="no"?>
<!-- Created with Inkscape (http://www.inkscape.org/) -->

<svg
   version="1.1"
   id="svg2"
   xml:space="preserve"
   width="253.59309"
   height="70.582001"
   viewBox="0 0 253.59309 70.582001"
   xmlns="http://www.w3.org/2000/svg"
   xmlns:svg="http://www.w3.org/2000/svg"><defs
     id="defs6" /><g
     id="layer13"
     style="display:inline"
     transform="translate(-100.11956,-979.14806)"><g
       id="g156"
       transform="matrix(1.33333,0,0,-1.33333,248.781,1004.2)"><path
         d="m 0,0 c 0,-2.979 -0.902,-5.748 -2.445,-8.063 l 3.056,-1.972 c 1.917,2.883 3.04,6.328 3.04,10.035 0,10.102 -8.27,18.289 -18.474,18.289 -9.909,0 -17.972,-7.726 -18.431,-17.422 l 2.061,-0.865 1.564,-0.363 c -0.002,0.121 -0.018,0.24 -0.018,0.361 0,8.105 6.637,14.676 14.825,14.676 C -6.637,14.676 0,8.105 0,0"
         style="fill:#231f20;fill-opacity:1;fill-rule:nonzero;stroke:none"
         id="path158" /></g><g
       id="g160"
       transform="matrix(1.33333,0,0,-1.33333,248.781,1004.2)"><path
         d="m 0,0 c 0,-2.979 -0.902,-5.748 -2.445,-8.063 l 3.056,-1.972 c 1.917,2.883 3.04,6.328 3.04,10.035 0,10.102 -8.27,18.289 -18.474,18.289 -9.909,0 -17.972,-7.726 -18.431,-17.422 l 2.061,-0.865 1.564,-0.363 c -0.002,0.121 -0.018,0.24 -0.018,0.361 0,8.105 6.637,14.676 14.825,14.676 C -6.637,14.676 0,8.105 0,0 Z"
         style="fill:none;stroke:#231f20;stroke-width:1;stroke-linecap:butt;stroke-linejoin:miter;stroke-miterlimit:4;stroke-dasharray:none;stroke-opacity:1"
         id="path162" /></g><g
       id="g164"
       transform="matrix(1.33333,0,0,-1.33333,249.981,1018.54)"><path
         d="m 0,0 -4.026,2.779 -0.28,-0.41 -1.39,0.953 0.633,-6.388 6.184,1.722 -1.39,0.951 z"
         style="fill:#231f20;fill-opacity:1;fill-rule:nonzero;stroke:none"
         id="path166" /></g><g
       id="g168"
       transform="matrix(1.33333,0,0,-1.33333,249.981,1018.54)"><path
         d="m 0,0 -4.026,2.779 -0.28,-0.41 -1.39,0.953 0.633,-6.388 6.184,1.722 -1.39,0.951 z"
         style="fill:none;stroke:#231f20;stroke-width:1;stroke-linecap:butt;stroke-linejoin:miter;stroke-miterlimit:4;stroke-dasharray:none;stroke-opacity:1"
         id="path170" /></g><g
       id="g172"
       transform="matrix(1.33333,0,0,-1.33333,230.353,1031.73)"><path
         d="M 0,0 1.054,4.924 C 1.313,6.145 0.538,7.344 -0.677,7.604 -1.634,7.807 -2.576,7.369 -3.062,6.58 -3.508,7.051 -3.99,7.502 -4.504,7.932 l 0.433,2.025 c 0.342,1.596 -0.537,3.135 -1.957,3.439 -1.423,0.303 -2.85,-0.744 -3.191,-2.337 l -0.046,-0.213 c -0.547,0.232 -1.095,0.441 -1.641,0.627 l 0.532,2.488 c 0.34,1.594 -0.537,3.131 -1.959,3.435 -1.419,0.303 -2.848,-0.742 -3.188,-2.333 l -0.544,-2.545 c -0.606,0.033 -1.198,0.033 -1.776,0 l 2.276,10.644 c 0.339,1.594 -0.536,3.135 -1.957,3.438 -1.422,0.304 -2.851,-0.745 -3.191,-2.338 L -23.901,9.338 c -0.414,-1.17 -1.034,-1.783 -1.875,-1.803 -0.007,0.002 -0.017,0.002 -0.026,0.002 -3.063,1.842 -5.974,3.078 -7.319,2.215 -1.72,-1.111 -0.357,-3.969 1.578,-6.316 l 5.685,-9.383 c 1.316,-3.215 4.015,-4.961 7.348,-6.002 0.163,-0.061 0.32,-0.108 0.468,-0.143 0.574,-0.166 1.165,-0.312 1.768,-0.445 1.604,-0.346 11.716,-3.223 15.979,11.058 C -0.12,-1.002 -0.024,-0.508 0,0"
         style="fill:#ffffff;fill-opacity:1;fill-rule:nonzero;stroke:none"
         id="path174" /></g><g
       id="g176"
       transform="matrix(1.33333,0,0,-1.33333,230.353,1031.73)"><path
         d="M 0,0 1.054,4.924 C 1.313,6.145 0.538,7.344 -0.677,7.604 -1.634,7.807 -2.576,7.369 -3.062,6.58 -3.508,7.051 -3.99,7.502 -4.504,7.932 l 0.433,2.025 c 0.342,1.596 -0.537,3.135 -1.957,3.439 -1.423,0.303 -2.85,-0.744 -3.191,-2.337 l -0.046,-0.213 c -0.547,0.232 -1.095,0.441 -1.641,0.627 l 0.532,2.488 c 0.34,1.594 -0.537,3.131 -1.959,3.435 -1.419,0.303 -2.848,-0.742 -3.188,-2.333 l -0.544,-2.545 c -0.606,0.033 -1.198,0.033 -1.776,0 l 2.276,10.644 c 0.339,1.594 -0.536,3.135 -1.957,3.438 -1.422,0.304 -2.851,-0.745 -3.191,-2.338 L -23.901,9.338 c -0.414,-1.17 -1.034,-1.783 -1.875,-1.803 -0.007,0.002 -0.017,0.002 -0.026,0.002 -3.063,1.842 -5.974,3.078 -7.319,2.215 -1.72,-1.111 -0.357,-3.969 1.578,-6.316 l 5.685,-9.383 c 1.316,-3.215 4.015,-4.961 7.348,-6.002 0.163,-0.061 0.32,-0.108 0.468,-0.143 0.574,-0.166 1.165,-0.312 1.768,-0.445 1.604,-0.346 11.716,-3.223 15.979,11.058 C -0.12,-1.002 -0.024,-0.508 0,0 Z"
         style="fill:none;stroke:#231f20;stroke-width:1;stroke-linecap:butt;stroke-linejoin:miter;stroke-miterlimit:4;stroke-dasharray:none;stroke-opacity:1"
         id="path178" /></g><g
       id="g180"
       transform="matrix(1.33333,0,0,-1.33333,278,1020.59)"><path
         d="M 0,0 5.388,-0.127 4.504,0.979 25.115,17.684 22.549,20.889 1.937,4.182 1.053,5.287 Z"
         style="fill:#231f20;fill-opacity:1;fill-rule:nonzero;stroke:none"
         id="path182" /></g><g
       id="g184"
       transform="matrix(1.33333,0,0,-1.33333,278,1020.59)"><path
         d="M 0,0 5.388,-0.127 4.504,0.979 25.115,17.684 22.549,20.889 1.937,4.182 1.053,5.287 Z"
         style="fill:none;stroke:#231f20;stroke-width:1;stroke-linecap:butt;stroke-linejoin:miter;stroke-miterlimit:4;stroke-dasharray:none;stroke-opacity:1"
         id="path186" /></g><g
       id="g188"
       transform="matrix(1.33333,0,0,-1.33333,347.992,1009.6)"><path
         d="M 0,0 -1.738,4.727 C -2.17,5.898 -3.467,6.498 -4.631,6.068 -5.549,5.73 -6.113,4.857 -6.102,3.93 -6.73,4.09 -7.379,4.215 -8.043,4.305 L -8.76,6.248 c -0.562,1.531 -2.127,2.365 -3.49,1.863 -1.365,-0.502 -2.013,-2.148 -1.449,-3.679 l 0.074,-0.202 c -0.586,-0.097 -1.162,-0.214 -1.723,-0.349 l -0.879,2.39 c -0.562,1.528 -2.124,2.362 -3.489,1.858 -1.362,-0.5 -2.013,-2.147 -1.45,-3.676 l 0.898,-2.441 C -20.799,1.717 -21.299,1.4 -21.77,1.064 l -3.757,10.215 c -0.563,1.532 -2.125,2.367 -3.491,1.864 -1.364,-0.502 -2.011,-2.151 -1.449,-3.68 l 5.269,-14.322 c 0.273,-1.211 0.079,-2.059 -0.623,-2.526 -0.007,-0.002 -0.016,-0.006 -0.023,-0.011 -3.572,-0.079 -6.696,-0.586 -7.371,-2.034 -0.862,-1.857 1.817,-3.547 4.705,-4.5 l 9.815,-4.9 c 2.83,-2.016 6.045,-2.051 9.418,-1.154 0.17,0.037 0.326,0.08 0.472,0.13 0.575,0.166 1.151,0.358 1.731,0.567 1.543,0.562 11.629,3.527 7.611,17.881 C 0.432,-0.91 0.25,-0.439 0,0"
         style="fill:#ffffff;fill-opacity:1;fill-rule:nonzero;stroke:none"
         id="path190" /></g><g
       id="g192"
       transform="matrix(1.33333,0,0,-1.33333,347.992,1009.6)"><path
         d="M 0,0 -1.738,4.727 C -2.17,5.898 -3.467,6.498 -4.631,6.068 -5.549,5.73 -6.113,4.857 -6.102,3.93 -6.73,4.09 -7.379,4.215 -8.043,4.305 L -8.76,6.248 c -0.562,1.531 -2.127,2.365 -3.49,1.863 -1.365,-0.502 -2.013,-2.148 -1.449,-3.679 l 0.074,-0.202 c -0.586,-0.097 -1.162,-0.214 -1.723,-0.349 l -0.879,2.39 c -0.562,1.528 -2.124,2.362 -3.489,1.858 -1.362,-0.5 -2.013,-2.147 -1.45,-3.676 l 0.898,-2.441 C -20.799,1.717 -21.299,1.4 -21.77,1.064 l -3.757,10.215 c -0.563,1.532 -2.125,2.367 -3.491,1.864 -1.364,-0.502 -2.011,-2.151 -1.449,-3.68 l 5.269,-14.322 c 0.273,-1.211 0.079,-2.059 -0.623,-2.526 -0.007,-0.002 -0.016,-0.006 -0.023,-0.011 -3.572,-0.079 -6.696,-0.586 -7.371,-2.034 -0.862,-1.857 1.817,-3.547 4.705,-4.5 l 9.815,-4.9 c 2.83,-2.016 6.045,-2.051 9.418,-1.154 0.17,0.037 0.326,0.08 0.472,0.13 0.575,0.166 1.151,0.358 1.731,0.567 1.543,0.562 11.629,3.527 7.611,17.881 C 0.432,-0.91 0.25,-0.439 0,0 Z"
         style="fill:none;stroke:#231f20;stroke-width:1;stroke-linecap:butt;stroke-linejoin:miter;stroke-miterlimit:4;stroke-dasharray:none;stroke-opacity:1"
         id="path194" /></g><text
       transform="matrix(1.33333,0,0,1.33333,0,1344)"
       style="font-variant:normal;font-weight:normal;font-stretch:normal;font-size:8px;font-family:Verdana;-inkscape-font-specification:Verdana;writing-mode:lr-tb;fill:#110f0d;fill-opacity:1;fill-rule:nonzero;stroke:none"
       id="text198"
       x="260.99609"
       y="-224.3652"><tspan
         x="260.99609"
         y="-224.3652"
         id="tspan196">2</tspan></text><text
       transform="matrix(1.33333,0,0,1.33333,0,1344)"
       style="font-variant:normal;font-weight:normal;font-stretch:normal;font-size:10px;font-family:Tahoma;-inkscape-font-specification:Tahoma;writing-mode:lr-tb;fill:#231f20;fill-opacity:1;fill-rule:nonzero;stroke:none"
       id="text290"
       x="74.538101"
       y="-254.93359"><tspan
         x="74.538101 79.518097 84.768097 89.228096 93.688103"
         y="-254.93359"
         id="tspan282">Lasso</tspan><tspan
         x="74.538101 79.788101 85.368103"
         y="-242.93359"
         id="tspan284">and</tspan><tspan
         x="74.538101 79.148102 82.7481 88.178101 92.6381"
         y="-230.93359"
         id="tspan286">cross</tspan><tspan
         id="tspan288"
         x="74.538101"
         y="-218.43359" /></text></g></svg>
