<?xml version="1.0" encoding="UTF-8" standalone="no"?>
<!-- Created with Inkscape (http://www.inkscape.org/) -->

<svg
   version="1.1"
   id="svg2"
   xml:space="preserve"
   width="428.55853"
   height="88.91188"
   viewBox="0 0 428.55853 88.91188"
   xmlns="http://www.w3.org/2000/svg"
   xmlns:svg="http://www.w3.org/2000/svg"><defs
     id="defs6" /><g
     id="layer14"
     style="display:inline"
     transform="translate(-104.5382,-1080.0882)"><text
       transform="matrix(1.33333,0,0,1.33333,0,1344)"
       style="font-variant:normal;font-weight:normal;font-stretch:normal;font-size:10px;font-family:Tahoma;-inkscape-font-specification:Tahoma;writing-mode:lr-tb;fill:#231f20;fill-opacity:1;fill-rule:nonzero;stroke:none"
       id="text784"
       x="77.422401"
       y="-161.3555"><tspan
         x="77.422401 83.4524 88.882401 92.222397 97.472397 100.8124"
         y="-161.3555"
         id="tspan782">Rotate</tspan></text><g
       id="g786"
       transform="matrix(1.33333,0,0,-1.33333,506.622,1108.28)"><path
         d="m 0,0 c -0.521,-0.459 -1.105,-0.861 -1.761,-1.184 -4.035,-1.982 -8.917,-0.322 -10.902,3.715 -1.983,4.035 -0.321,8.918 3.713,10.905 3.731,1.834 8.174,0.541 10.394,-2.854 l -2.04,-1.004 6.963,-2.371 2.375,6.965 -1.547,-0.76 c -3.791,6.549 -12.063,9.131 -18.957,5.74 -7.195,-3.537 -10.158,-12.238 -6.621,-19.433 3.54,-7.194 12.239,-10.158 19.435,-6.619 0.643,0.314 1.239,0.683 1.811,1.078 z"
         style="fill:#231f20;fill-opacity:1;fill-rule:nonzero;stroke:none"
         id="path788" /></g><g
       id="g790"
       transform="matrix(1.33333,0,0,-1.33333,506.622,1108.28)"><path
         d="m 0,0 c -0.521,-0.459 -1.105,-0.861 -1.761,-1.184 -4.035,-1.982 -8.917,-0.322 -10.902,3.715 -1.983,4.035 -0.321,8.918 3.713,10.905 3.731,1.834 8.174,0.541 10.394,-2.854 l -2.04,-1.004 6.963,-2.371 2.375,6.965 -1.547,-0.76 c -3.791,6.549 -12.063,9.131 -18.957,5.74 -7.195,-3.537 -10.158,-12.238 -6.621,-19.433 3.54,-7.194 12.239,-10.158 19.435,-6.619 0.643,0.314 1.239,0.683 1.811,1.078 z"
         style="fill:none;stroke:#231f20;stroke-width:1;stroke-linecap:butt;stroke-linejoin:miter;stroke-miterlimit:4;stroke-dasharray:none;stroke-opacity:1"
         id="path792" /></g><g
       id="g794"
       transform="matrix(1.33333,0,0,-1.33333,531.091,1140.71)"><path
         d="M 0,0 0.144,6.045 C 0.179,7.494 -0.965,8.695 -2.413,8.73 -3.858,8.766 -5.062,7.619 -5.094,6.172 L -5.126,4.869 C -5.604,5.158 -6.102,5.43 -6.613,5.686 V 8.58 c 0,1.899 -1.37,3.436 -3.062,3.436 -1.691,0 -3.061,-1.537 -3.061,-3.436 v -0.9 c -0.517,0.091 -1.028,0.164 -1.535,0.224 V 22.67 c 0,1.898 -1.371,3.435 -3.062,3.435 -1.691,0 -3.063,-1.537 -3.063,-3.435 V 7.84 c -0.695,-0.106 -1.37,-0.25 -2.019,-0.432 v 12.664 c 0,1.897 -1.37,3.436 -3.06,3.436 -1.691,0 -3.062,-1.539 -3.062,-3.436 V 2.32 c -0.187,-1.431 -0.741,-2.279 -1.692,-2.506 -0.01,0 -0.021,-0.003 -0.031,-0.005 -3.931,1.349 -7.546,2.05 -8.863,0.738 -1.69,-1.68 0.558,-4.6 3.329,-6.801 l 8.748,-9.291 c 2.278,-3.336 5.775,-4.666 9.817,-5.043 0.2,-0.025 0.39,-0.043 0.569,-0.047 0.693,-0.049 1.399,-0.072 2.117,-0.074 1.91,-0.008 14.113,-0.822 15.492,16.465 C 1.153,-2.801 0.786,-1.359 0,0"
         style="fill:#ffffff;fill-opacity:1;fill-rule:nonzero;stroke:none"
         id="path796" /></g><g
       id="g798"
       transform="matrix(1.33333,0,0,-1.33333,531.091,1140.71)"><path
         d="M 0,0 0.144,6.045 C 0.179,7.494 -0.965,8.695 -2.413,8.73 -3.858,8.766 -5.062,7.619 -5.094,6.172 L -5.126,4.869 C -5.604,5.158 -6.102,5.43 -6.613,5.686 V 8.58 c 0,1.899 -1.37,3.436 -3.062,3.436 -1.691,0 -3.061,-1.537 -3.061,-3.436 v -0.9 c -0.517,0.091 -1.028,0.164 -1.535,0.224 V 22.67 c 0,1.898 -1.371,3.435 -3.062,3.435 -1.691,0 -3.063,-1.537 -3.063,-3.435 V 7.84 c -0.695,-0.106 -1.37,-0.25 -2.019,-0.432 v 12.664 c 0,1.897 -1.37,3.436 -3.06,3.436 -1.691,0 -3.062,-1.539 -3.062,-3.436 V 2.32 c -0.187,-1.431 -0.741,-2.279 -1.692,-2.506 -0.01,0 -0.021,-0.003 -0.031,-0.005 -3.931,1.349 -7.546,2.05 -8.863,0.738 -1.69,-1.68 0.558,-4.6 3.329,-6.801 l 8.748,-9.291 c 2.278,-3.336 5.775,-4.666 9.817,-5.043 0.2,-0.025 0.39,-0.043 0.569,-0.047 0.693,-0.049 1.399,-0.072 2.117,-0.074 1.91,-0.008 14.113,-0.822 15.492,16.465 C 1.153,-2.801 0.786,-1.359 0,0 Z"
         style="fill:none;stroke:#231f20;stroke-width:1;stroke-linecap:butt;stroke-linejoin:miter;stroke-miterlimit:4;stroke-dasharray:none;stroke-opacity:1"
         id="path800" /></g><text
       transform="matrix(1.33333,0,0,1.33333,0,1344)"
       style="font-variant:normal;font-weight:normal;font-stretch:normal;font-size:8px;font-family:Verdana;-inkscape-font-specification:Verdana;writing-mode:lr-tb;fill:#231f20;fill-opacity:1;fill-rule:nonzero;stroke:none"
       id="text804"
       x="232.94141"
       y="-158.75391"><tspan
         x="232.94141 239.2374 339.90939 346.20541"
         y="-158.75391"
         id="tspan802">OROR</tspan></text><g
       id="g806"
       transform="matrix(1.33333,0,0,-1.33333,414.592,1112.75)"><path
         d="m 0,0 c 0,-3.094 -2.508,-5.602 -5.602,-5.602 -3.093,0 -5.602,2.508 -5.602,5.602 0,3.096 2.509,5.604 5.602,5.604 C -2.508,5.604 0,3.096 0,0"
         style="fill:#231f20;fill-opacity:1;fill-rule:nonzero;stroke:none"
         id="path808" /></g><g
       id="g810"
       transform="matrix(1.33333,0,0,-1.33333,414.592,1112.75)"><path
         d="m 0,0 c 0,-3.094 -2.508,-5.602 -5.602,-5.602 -3.093,0 -5.602,2.508 -5.602,5.602 0,3.096 2.509,5.604 5.602,5.604 C -2.508,5.604 0,3.096 0,0 Z"
         style="fill:none;stroke:#231f20;stroke-width:1;stroke-linecap:butt;stroke-linejoin:miter;stroke-miterlimit:4;stroke-dasharray:none;stroke-opacity:1"
         id="path812" /></g><g
       id="g814"
       transform="matrix(1.33333,0,0,-1.33333,441.355,1140.71)"><path
         d="M 0,0 0.145,6.045 C 0.18,7.494 -0.966,8.695 -2.411,8.73 -3.856,8.766 -5.059,7.619 -5.094,6.172 L -5.124,4.869 C -5.604,5.158 -6.101,5.43 -6.613,5.686 V 8.58 c 0,1.899 -1.37,3.436 -3.062,3.436 -1.689,0 -3.06,-1.537 -3.06,-3.436 v -0.9 c -0.516,0.091 -1.027,0.164 -1.536,0.224 v 3.211 c 0,1.897 -1.371,3.436 -3.06,3.436 -1.691,0 -3.063,-1.539 -3.063,-3.436 V 7.84 c -0.695,-0.106 -1.37,-0.25 -2.019,-0.432 v 12.664 c 0,1.897 -1.371,3.436 -3.062,3.436 -1.689,0 -3.06,-1.539 -3.06,-3.436 V 2.32 c -0.187,-1.431 -0.741,-2.279 -1.693,-2.506 -0.01,0 -0.022,-0.003 -0.03,-0.005 -3.933,1.349 -7.548,2.05 -8.865,0.738 -1.688,-1.68 0.56,-4.6 3.331,-6.801 l 8.746,-9.291 h 0.002 c 2.278,-3.336 5.774,-4.666 9.818,-5.043 0.199,-0.025 0.387,-0.043 0.568,-0.047 0.69,-0.049 1.397,-0.072 2.115,-0.074 1.909,-0.008 14.113,-0.822 15.492,16.465 C 1.153,-2.801 0.788,-1.359 0,0"
         style="fill:#ffffff;fill-opacity:1;fill-rule:nonzero;stroke:none"
         id="path816" /></g><g
       id="g818"
       transform="matrix(1.33333,0,0,-1.33333,441.355,1140.71)"><path
         d="M 0,0 0.145,6.045 C 0.18,7.494 -0.966,8.695 -2.411,8.73 -3.856,8.766 -5.059,7.619 -5.094,6.172 L -5.124,4.869 C -5.604,5.158 -6.101,5.43 -6.613,5.686 V 8.58 c 0,1.899 -1.37,3.436 -3.062,3.436 -1.689,0 -3.06,-1.537 -3.06,-3.436 v -0.9 c -0.516,0.091 -1.027,0.164 -1.536,0.224 v 3.211 c 0,1.897 -1.371,3.436 -3.06,3.436 -1.691,0 -3.063,-1.539 -3.063,-3.436 V 7.84 c -0.695,-0.106 -1.37,-0.25 -2.019,-0.432 v 12.664 c 0,1.897 -1.371,3.436 -3.062,3.436 -1.689,0 -3.06,-1.539 -3.06,-3.436 V 2.32 c -0.187,-1.431 -0.741,-2.279 -1.693,-2.506 -0.01,0 -0.022,-0.003 -0.03,-0.005 -3.933,1.349 -7.548,2.05 -8.865,0.738 -1.688,-1.68 0.56,-4.6 3.331,-6.801 l 8.746,-9.291 h 0.002 c 2.278,-3.336 5.774,-4.666 9.818,-5.043 0.199,-0.025 0.387,-0.043 0.568,-0.047 0.69,-0.049 1.397,-0.072 2.115,-0.074 1.909,-0.008 14.113,-0.822 15.492,16.465 C 1.153,-2.801 0.788,-1.359 0,0 Z"
         style="fill:none;stroke:#231f20;stroke-width:1;stroke-linecap:butt;stroke-linejoin:miter;stroke-miterlimit:4;stroke-dasharray:none;stroke-opacity:1"
         id="path820" /></g><g
       id="g822"
       transform="matrix(1.33333,0,0,-1.33333,390.582,1116.54)"><path
         d="m 0,0 c -0.402,1.254 -0.627,2.588 -0.627,3.977 0,7.197 5.835,13.033 13.032,13.033 5.232,0 9.729,-3.09 11.802,-7.539 L 23.024,9.172 27.273,6.117 29.55,10.828 28.257,10.5 c -2.568,6.23 -8.694,10.619 -15.853,10.619 -9.467,0 -17.142,-7.674 -17.142,-17.142 0,-1.37 0.163,-2.7 0.466,-3.977 z"
         style="fill:#231f20;fill-opacity:1;fill-rule:nonzero;stroke:none"
         id="path824" /></g><g
       id="g826"
       transform="matrix(1.33333,0,0,-1.33333,390.582,1116.54)"><path
         d="m 0,0 c -0.402,1.254 -0.627,2.588 -0.627,3.977 0,7.197 5.835,13.033 13.032,13.033 5.232,0 9.729,-3.09 11.802,-7.539 L 23.024,9.172 27.273,6.117 29.55,10.828 28.257,10.5 c -2.568,6.23 -8.694,10.619 -15.853,10.619 -9.467,0 -17.142,-7.674 -17.142,-17.142 0,-1.37 0.163,-2.7 0.466,-3.977 z"
         style="fill:none;stroke:#231f20;stroke-width:1;stroke-linecap:butt;stroke-linejoin:miter;stroke-miterlimit:4;stroke-dasharray:none;stroke-opacity:1"
         id="path828" /></g><g
       id="g830"
       transform="matrix(1.33333,0,0,-1.33333,344.223,1119.21)"><path
         d="M 0,0 3.22,5.113 C 3.991,6.34 5.61,6.709 6.835,5.938 8.059,5.168 8.426,3.547 7.652,2.322 L 6.96,1.221 C 7.521,1.197 8.083,1.148 8.651,1.078 l 1.601,2.412 c 1.049,1.582 3.042,2.104 4.451,1.168 1.409,-0.933 1.701,-2.974 0.651,-4.553 l -0.496,-0.75 c 0.478,-0.21 0.945,-0.433 1.401,-0.664 l 1.776,2.678 c 1.049,1.578 3.042,2.104 4.449,1.168 1.41,-0.935 1.703,-2.976 0.652,-4.555 l -1.811,-2.728 c 0.52,-0.475 1.002,-0.967 1.446,-1.477 l 7,10.551 c 1.049,1.582 3.042,2.104 4.452,1.17 1.409,-0.934 1.699,-2.975 0.651,-4.555 L 25.057,-13.85 c -0.636,-1.295 -0.643,-2.306 0.025,-3.021 0.007,-0.01 0.015,-0.016 0.022,-0.024 4.023,-1.048 7.42,-2.464 7.792,-4.287 0.48,-2.332 -3.007,-3.521 -6.534,-3.824 L 13.938,-27.91 c -3.745,-1.518 -7.394,-0.695 -10.971,1.228 -0.181,0.088 -0.348,0.18 -0.5,0.276 -0.603,0.342 -1.203,0.713 -1.803,1.107 -1.596,1.051 -12.216,7.121 -3.807,22.285 C -2.513,-1.699 -1.409,-0.701 0,0"
         style="fill:#ffffff;fill-opacity:1;fill-rule:nonzero;stroke:none"
         id="path832" /></g><g
       id="g834"
       transform="matrix(1.33333,0,0,-1.33333,344.223,1119.21)"><path
         d="M 0,0 3.22,5.113 C 3.991,6.34 5.61,6.709 6.835,5.938 8.059,5.168 8.426,3.547 7.652,2.322 L 6.96,1.221 C 7.521,1.197 8.083,1.148 8.651,1.078 l 1.601,2.412 c 1.049,1.582 3.042,2.104 4.451,1.168 1.409,-0.933 1.701,-2.974 0.651,-4.553 l -0.496,-0.75 c 0.478,-0.21 0.945,-0.433 1.401,-0.664 l 1.776,2.678 c 1.049,1.578 3.042,2.104 4.449,1.168 1.41,-0.935 1.703,-2.976 0.652,-4.555 l -1.811,-2.728 c 0.52,-0.475 1.002,-0.967 1.446,-1.477 l 7,10.551 c 1.049,1.582 3.042,2.104 4.452,1.17 1.409,-0.934 1.699,-2.975 0.651,-4.555 L 25.057,-13.85 c -0.636,-1.295 -0.643,-2.306 0.025,-3.021 0.007,-0.01 0.015,-0.016 0.022,-0.024 4.023,-1.048 7.42,-2.464 7.792,-4.287 0.48,-2.332 -3.007,-3.521 -6.534,-3.824 L 13.938,-27.91 c -3.745,-1.518 -7.394,-0.695 -10.971,1.228 -0.181,0.088 -0.348,0.18 -0.5,0.276 -0.603,0.342 -1.203,0.713 -1.803,1.107 -1.596,1.051 -12.216,7.121 -3.807,22.285 C -2.513,-1.699 -1.409,-0.701 0,0 Z"
         style="fill:none;stroke:#231f20;stroke-width:1;stroke-linecap:butt;stroke-linejoin:miter;stroke-miterlimit:4;stroke-dasharray:none;stroke-opacity:1"
         id="path836" /></g><g
       id="g838"
       transform="matrix(1.33333,0,0,-1.33333,267.262,1104.9)"><path
         d="m 0,0 c -3.541,5.459 -10.092,8.531 -16.812,7.248 -6.7,-1.281 -11.646,-6.521 -12.944,-12.877 l 4.315,0.828 c 1.424,4.069 4.876,7.281 9.376,8.141 4.912,0.941 9.696,-1.188 12.45,-5.043 l -1.057,-0.5 4.545,-2.137 1.281,4.883 z"
         style="fill:#231f20;fill-opacity:1;fill-rule:nonzero;stroke:none"
         id="path840" /></g><g
       id="g842"
       transform="matrix(1.33333,0,0,-1.33333,267.262,1104.9)"><path
         d="m 0,0 c -3.541,5.459 -10.092,8.531 -16.812,7.248 -6.7,-1.281 -11.646,-6.521 -12.944,-12.877 l 4.315,0.828 c 1.424,4.069 4.876,7.281 9.376,8.141 4.912,0.941 9.696,-1.188 12.45,-5.043 l -1.057,-0.5 4.545,-2.137 1.281,4.883 z"
         style="fill:none;stroke:#231f20;stroke-width:1;stroke-linecap:butt;stroke-linejoin:miter;stroke-miterlimit:4;stroke-dasharray:none;stroke-opacity:1"
         id="path844" /></g><g
       id="g846"
       transform="matrix(1.33333,0,0,-1.33333,258.466,1128.48)"><path
         d="M 0,0 V 3.172 C -4.793,1.533 -9.885,2.938 -13.2,6.348 l 0.991,0.654 -4.886,1.449 -0.587,-5.062 1.086,0.716 C -12.24,-0.807 -5.198,-2.881 1.388,-0.59 1.89,-0.416 2.376,-0.217 2.85,0 Z"
         style="fill:#231f20;fill-opacity:1;fill-rule:nonzero;stroke:none"
         id="path848" /></g><g
       id="g850"
       transform="matrix(1.33333,0,0,-1.33333,258.466,1128.48)"><path
         d="M 0,0 V 3.172 C -4.793,1.533 -9.885,2.938 -13.2,6.348 l 0.991,0.654 -4.886,1.449 -0.587,-5.062 1.086,0.716 C -12.24,-0.807 -5.198,-2.881 1.388,-0.59 1.89,-0.416 2.376,-0.217 2.85,0 Z"
         style="fill:none;stroke:#231f20;stroke-width:1;stroke-linecap:butt;stroke-linejoin:miter;stroke-miterlimit:4;stroke-dasharray:none;stroke-opacity:1"
         id="path852" /></g><g
       id="g854"
       transform="matrix(1.33333,0,0,-1.33333,299.384,1134.12)"><path
         d="M 0,0 -2.487,5.053 C -3.083,6.262 -4.547,6.76 -5.756,6.164 -6.963,5.57 -7.46,4.107 -6.863,2.896 L -6.328,1.807 C -6.849,1.838 -7.376,1.85 -7.908,1.838 L -9.157,4.23 c -0.818,1.565 -2.614,2.243 -4.008,1.514 -1.396,-0.728 -1.863,-2.59 -1.045,-4.156 l 0.389,-0.74 c -0.464,-0.149 -0.918,-0.311 -1.365,-0.479 l -1.385,2.651 c -0.817,1.564 -2.611,2.242 -4.007,1.513 -1.396,-0.728 -1.862,-2.59 -1.044,-4.154 l 1.412,-2.703 c -0.528,-0.389 -1.022,-0.799 -1.481,-1.227 l -5.46,10.447 c -0.819,1.567 -2.613,2.247 -4.008,1.516 -1.395,-0.728 -1.863,-2.59 -1.045,-4.154 l 7.656,-14.651 c 0.463,-1.261 0.371,-2.199 -0.315,-2.796 -0.009,-0.006 -0.015,-0.012 -0.022,-0.018 -3.828,-0.582 -7.112,-1.563 -7.635,-3.213 -0.668,-2.115 2.446,-3.555 5.682,-4.178 l 11.225,-3.892 h 10e-4 c 3.319,-1.77 6.777,-1.36 10.277,0.072 0.175,0.064 0.339,0.133 0.487,0.207 0.593,0.26 1.185,0.541 1.78,0.852 1.578,0.818 12,5.41 5.682,20.265 C 2.161,-1.813 1.235,-0.781 0,0"
         style="fill:#ffffff;fill-opacity:1;fill-rule:nonzero;stroke:none"
         id="path856" /></g><g
       id="g858"
       transform="matrix(1.33333,0,0,-1.33333,299.384,1134.12)"><path
         d="M 0,0 -2.487,5.053 C -3.083,6.262 -4.547,6.76 -5.756,6.164 -6.963,5.57 -7.46,4.107 -6.863,2.896 L -6.328,1.807 C -6.849,1.838 -7.376,1.85 -7.908,1.838 L -9.157,4.23 c -0.818,1.565 -2.614,2.243 -4.008,1.514 -1.396,-0.728 -1.863,-2.59 -1.045,-4.156 l 0.389,-0.74 c -0.464,-0.149 -0.918,-0.311 -1.365,-0.479 l -1.385,2.651 c -0.817,1.564 -2.611,2.242 -4.007,1.513 -1.396,-0.728 -1.862,-2.59 -1.044,-4.154 l 1.412,-2.703 c -0.528,-0.389 -1.022,-0.799 -1.481,-1.227 l -5.46,10.447 c -0.819,1.567 -2.613,2.247 -4.008,1.516 -1.395,-0.728 -1.863,-2.59 -1.045,-4.154 l 7.656,-14.651 c 0.463,-1.261 0.371,-2.199 -0.315,-2.796 -0.009,-0.006 -0.015,-0.012 -0.022,-0.018 -3.828,-0.582 -7.112,-1.563 -7.635,-3.213 -0.668,-2.115 2.446,-3.555 5.682,-4.178 l 11.225,-3.892 h 10e-4 c 3.319,-1.77 6.777,-1.36 10.277,0.072 0.175,0.064 0.339,0.133 0.487,0.207 0.593,0.26 1.185,0.541 1.78,0.852 1.578,0.818 12,5.41 5.682,20.265 C 2.161,-1.813 1.235,-0.781 0,0 Z"
         style="fill:none;stroke:#231f20;stroke-width:1;stroke-linecap:butt;stroke-linejoin:miter;stroke-miterlimit:4;stroke-dasharray:none;stroke-opacity:1"
         id="path860" /></g><g
       id="g862"
       transform="matrix(1.33333,0,0,-1.33333,190.836,1111.41)"><path
         d="M 0,0 2.975,4.777 C 3.686,5.922 5.19,6.275 6.335,5.564 7.479,4.852 7.828,3.346 7.114,2.201 L 6.475,1.172 C 6.995,1.15 7.521,1.109 8.051,1.047 l 1.477,2.254 c 0.969,1.476 2.823,1.976 4.137,1.113 1.317,-0.863 1.6,-2.764 0.632,-4.238 l -0.459,-0.701 c 0.447,-0.192 0.883,-0.399 1.308,-0.61 l 1.639,2.502 c 0.97,1.475 2.822,1.973 4.138,1.11 1.317,-0.866 1.599,-2.762 0.631,-4.239 l -1.673,-2.549 c 0.486,-0.441 0.938,-0.896 1.352,-1.369 l 6.466,9.86 c 0.969,1.476 2.822,1.974 4.138,1.111 1.314,-0.863 1.597,-2.76 0.629,-4.236 L 23.4,-12.768 c -0.584,-1.211 -0.586,-2.154 0.038,-2.814 0.008,-0.006 0.016,-0.014 0.022,-0.023 3.751,-0.956 6.924,-2.254 7.277,-3.95 0.457,-2.17 -2.784,-3.297 -6.065,-3.593 l -11.553,-2.768 h -10e-4 c -3.476,-1.432 -6.879,-0.684 -10.221,1.088 -0.168,0.08 -0.322,0.166 -0.464,0.254 -0.564,0.314 -1.126,0.658 -1.686,1.021 -1.492,0.973 -11.409,6.569 -3.656,20.729 0.578,1.23 1.6,2.166 2.909,2.824"
         style="fill:#ffffff;fill-opacity:1;fill-rule:nonzero;stroke:none"
         id="path864" /></g><g
       id="g866"
       transform="matrix(1.33333,0,0,-1.33333,190.836,1111.41)"><path
         d="M 0,0 2.975,4.777 C 3.686,5.922 5.19,6.275 6.335,5.564 7.479,4.852 7.828,3.346 7.114,2.201 L 6.475,1.172 C 6.995,1.15 7.521,1.109 8.051,1.047 l 1.477,2.254 c 0.969,1.476 2.823,1.976 4.137,1.113 1.317,-0.863 1.6,-2.764 0.632,-4.238 l -0.459,-0.701 c 0.447,-0.192 0.883,-0.399 1.308,-0.61 l 1.639,2.502 c 0.97,1.475 2.822,1.973 4.138,1.11 1.317,-0.866 1.599,-2.762 0.631,-4.239 l -1.673,-2.549 c 0.486,-0.441 0.938,-0.896 1.352,-1.369 l 6.466,9.86 c 0.969,1.476 2.822,1.974 4.138,1.111 1.314,-0.863 1.597,-2.76 0.629,-4.236 L 23.4,-12.768 c -0.584,-1.211 -0.586,-2.154 0.038,-2.814 0.008,-0.006 0.016,-0.014 0.022,-0.023 3.751,-0.956 6.924,-2.254 7.277,-3.95 0.457,-2.17 -2.784,-3.297 -6.065,-3.593 l -11.553,-2.768 h -10e-4 c -3.476,-1.432 -6.879,-0.684 -10.221,1.088 -0.168,0.08 -0.322,0.166 -0.464,0.254 -0.564,0.314 -1.126,0.658 -1.686,1.021 -1.492,0.973 -11.409,6.569 -3.656,20.729 0.578,1.23 1.6,2.166 2.909,2.824 z"
         style="fill:none;stroke:#231f20;stroke-width:1;stroke-linecap:butt;stroke-linejoin:miter;stroke-miterlimit:4;stroke-dasharray:none;stroke-opacity:1"
         id="path868" /></g></g></svg>
