<?xml version="1.0" encoding="UTF-8" standalone="no"?>
<!-- Created with Inkscape (http://www.inkscape.org/) -->

<svg
   version="1.1"
   id="svg2"
   xml:space="preserve"
   width="576.97455"
   height="57.238918"
   viewBox="0 0 576.97454 57.23892"
   xmlns="http://www.w3.org/2000/svg"
   xmlns:svg="http://www.w3.org/2000/svg"><defs
     id="defs6" /><g
     id="layer18"
     transform="translate(-96.356813,-95.878724)"
     style="display:inline"><g
       id="g92495"><g
         id="g200"
         transform="matrix(1.33333,0,0,-1.33333,101.329,118.768)"
         style="display:inline"><path
           d="m 0,0 c 0,-10.857 8.802,-19.66 19.66,-19.66 10.858,0 19.66,8.803 19.66,19.66 0,7.026 -3.687,13.189 -9.23,16.667 H 9.229 C 3.686,13.189 0,7.026 0,0"
           style="fill:#ffffff;fill-opacity:1;fill-rule:nonzero;stroke:none"
           id="path202" /></g><g
         id="g204"
         transform="matrix(1.33333,0,0,-1.33333,101.329,118.768)"
         style="display:inline"><path
           d="m 0,0 c 0,-10.857 8.802,-19.66 19.66,-19.66 10.858,0 19.66,8.803 19.66,19.66 0,7.026 -3.687,13.189 -9.23,16.667 H 9.229 C 3.686,13.189 0,7.026 0,0 Z"
           style="fill:none;stroke:#231f20;stroke-width:1;stroke-linecap:butt;stroke-linejoin:miter;stroke-miterlimit:4;stroke-dasharray:none;stroke-opacity:1"
           id="path206" /></g><g
         id="g208"
         transform="matrix(1.33333,0,0,-1.33333,146.62,118.768)"
         style="display:inline"><path
           d="m 0,0 c 0,-7.903 -6.406,-14.31 -14.309,-14.31 -7.903,0 -14.31,6.407 -14.31,14.31 0,7.903 6.407,14.31 14.31,14.31 C -6.406,14.31 0,7.903 0,0"
           style="fill:#ffffff;fill-opacity:1;fill-rule:nonzero;stroke:none"
           id="path210" /></g><g
         id="g212"
         transform="matrix(1.33333,0,0,-1.33333,146.62,118.768)"
         style="display:inline"><path
           d="m 0,0 c 0,-7.903 -6.406,-14.31 -14.309,-14.31 -7.903,0 -14.31,6.407 -14.31,14.31 0,7.903 6.407,14.31 14.31,14.31 C -6.406,14.31 0,7.903 0,0 Z"
           style="fill:none;stroke:#231f20;stroke-width:1;stroke-linecap:butt;stroke-linejoin:miter;stroke-miterlimit:4;stroke-dasharray:none;stroke-opacity:1"
           id="path214" /></g><g
         id="g216"
         transform="matrix(1.33333,0,0,-1.33333,139.534,118.768)"
         style="display:inline"><path
           d="m 0,0 c 0,-4.967 -4.027,-8.995 -8.994,-8.995 -4.967,0 -8.994,4.028 -8.994,8.995 0,4.967 4.027,8.995 8.994,8.995 C -4.027,8.995 0,4.967 0,0"
           style="fill:#ffffff;fill-opacity:1;fill-rule:nonzero;stroke:none"
           id="path218" /></g><g
         id="g220"
         transform="matrix(1.33333,0,0,-1.33333,139.534,118.768)"
         style="display:inline"><path
           d="m 0,0 c 0,-4.967 -4.027,-8.995 -8.994,-8.995 -4.967,0 -8.994,4.028 -8.994,8.995 0,4.967 4.027,8.995 8.994,8.995 C -4.027,8.995 0,4.967 0,0 Z"
           style="fill:none;stroke:#231f20;stroke-width:1;stroke-linecap:butt;stroke-linejoin:miter;stroke-miterlimit:4;stroke-dasharray:none;stroke-opacity:1"
           id="path222" /></g><g
         id="g224"
         transform="matrix(1.33333,0,0,-1.33333,101.046,152.449)"
         style="display:inline"><path
           d="M 0,0 H 35.111 C 35.094,0.894 34.617,1.754 33.778,2.215 32.583,2.873 31.096,2.48 30.367,1.35 30.052,1.959 29.699,2.564 29.31,3.157 l 0.594,1.079 C 30.805,5.873 30.352,7.851 28.893,8.654 27.67,9.327 26.129,8.958 25.131,7.857 25.129,7.86 25.125,7.864 25.122,7.866 24.574,8.324 24.017,8.752 23.454,9.153 l 0.274,0.496 c 0.9,1.638 0.448,3.615 -1.012,4.419 -1.459,0.803 -3.372,0.126 -4.273,-1.511 L 18.14,12.006 c -0.652,0.238 -1.302,0.434 -1.948,0.587 l 6.014,10.929 c 0.901,1.637 0.447,3.615 -1.012,4.418 -1.459,0.803 -3.373,0.126 -4.273,-1.511 L 8.491,11.108 C 7.65,9.962 6.771,9.494 5.841,9.75 5.831,9.752 5.821,9.756 5.811,9.759 3.059,12.791 0.272,15.112 -1.487,14.605 -3.742,13.957 -3.19,10.37 -1.844,7.155 Z"
           style="fill:#231f20;fill-opacity:1;fill-rule:nonzero;stroke:none"
           id="path226" /></g><g
         id="g228"
         transform="matrix(1.33333,0,0,-1.33333,101.046,152.449)"
         style="display:inline"><path
           d="M 0,0 H 35.111 C 35.094,0.894 34.617,1.754 33.778,2.215 32.583,2.873 31.096,2.48 30.367,1.35 30.052,1.959 29.699,2.564 29.31,3.157 l 0.594,1.079 C 30.805,5.873 30.352,7.851 28.893,8.654 27.67,9.327 26.129,8.958 25.131,7.857 25.129,7.86 25.125,7.864 25.122,7.866 24.574,8.324 24.017,8.752 23.454,9.153 l 0.274,0.496 c 0.9,1.638 0.448,3.615 -1.012,4.419 -1.459,0.803 -3.372,0.126 -4.273,-1.511 L 18.14,12.006 c -0.652,0.238 -1.302,0.434 -1.948,0.587 l 6.014,10.929 c 0.901,1.637 0.447,3.615 -1.012,4.418 -1.459,0.803 -3.373,0.126 -4.273,-1.511 L 8.491,11.108 C 7.65,9.962 6.771,9.494 5.841,9.75 5.831,9.752 5.821,9.756 5.811,9.759 3.059,12.791 0.272,15.112 -1.487,14.605 -3.742,13.957 -3.19,10.37 -1.844,7.155 Z"
           style="fill:none;stroke:#231f20;stroke-width:1;stroke-linecap:butt;stroke-linejoin:miter;stroke-miterlimit:4;stroke-dasharray:none;stroke-opacity:1"
           id="path230" /></g><path
         d="M 116.619,893.664 H 74.693 v 41.925 h 41.926 z"
         style="display:inline;fill:none;stroke:#231f20;stroke-width:1;stroke-linecap:butt;stroke-linejoin:miter;stroke-miterlimit:4;stroke-dasharray:none;stroke-opacity:1"
         id="path232"
         transform="matrix(1.33333,0,0,-1.33333,0,1344)" /><text
         transform="matrix(1.33333,0,0,1.33333,0,1344)"
         style="font-variant:normal;font-weight:bold;font-stretch:normal;font-size:24px;font-family:Tahoma;-inkscape-font-specification:Tahoma-Bold;writing-mode:lr-tb;display:inline;fill:#231f20;fill-opacity:1;fill-rule:nonzero;stroke:none"
         id="text236"
         x="123.7866"
         y="-895.84277"><tspan
           x="123.7866 138.47459 153.28259 168.64259 181.2906 196.6506 203.6826 221.56261 235.8186 248.1786 258.1626 273.52258 283.9386 298.19461 305.22659 322.6506 336.90659 346.07458 360.3306 370.74661 385.00259 400.36258 413.01059 427.2666 434.29858 452.17859 467.5386 474.78659 489.8826"
           y="-895.84277"
           id="tspan234">Touch Gesture Reference Guide</tspan></text></g></g></svg>
