<?xml version="1.0" encoding="UTF-8" standalone="no"?>
<!-- Created with Inkscape (http://www.inkscape.org/) -->

<svg
   version="1.1"
   id="svg2"
   xml:space="preserve"
   width="141.81088"
   height="67.659225"
   viewBox="0 0 141.81088 67.659225"
   xmlns="http://www.w3.org/2000/svg"
   xmlns:svg="http://www.w3.org/2000/svg"><defs
     id="defs6" /><g
     id="layer1"
     style="display:inline"
     transform="translate(-99.344824,-171.25603)"><g
       id="g38"
       transform="matrix(1.33333,0,0,-1.33333,214.706,182.072)"><path
         d="m 0,0 c 0,-3.927 -3.186,-7.112 -7.113,-7.112 -3.928,0 -7.112,3.185 -7.112,7.112 0,3.928 3.184,7.112 7.112,7.112 C -3.186,7.112 0,3.928 0,0 Z"
         style="fill:none;stroke:#231f20;stroke-width:2;stroke-linecap:butt;stroke-linejoin:miter;stroke-miterlimit:4;stroke-dasharray:none;stroke-opacity:1"
         id="path40" /></g><g
       id="g42"
       transform="matrix(1.33333,0,0,-1.33333,240.383,213.818)"><path
         d="m 0,0 v 5.893 c 0,1.457 -1.18,2.639 -2.633,2.639 -1.144,0 -2.115,-0.731 -2.478,-1.753 -0.625,0.429 -1.287,0.828 -1.981,1.196 v 2.421 c 0,1.908 -1.379,3.455 -3.078,3.455 -1.701,0 -3.078,-1.547 -3.078,-3.455 v -0.253 c -0.684,0.13 -1.361,0.235 -2.031,0.314 v 2.977 c 0,1.907 -1.379,3.452 -3.08,3.452 -1.698,0 -3.077,-1.545 -3.077,-3.452 v -3.042 c -0.701,-0.109 -1.378,-0.253 -2.031,-0.434 V 22.69 c 0,1.908 -1.377,3.455 -3.078,3.455 -1.701,0 -3.078,-1.547 -3.078,-3.455 V 4.84 c -0.188,-1.438 -0.744,-2.29 -1.703,-2.519 -0.008,-0.002 -0.02,-0.003 -0.029,-0.006 -3.954,1.359 -7.588,2.062 -8.913,0.745 -1.697,-1.691 0.563,-4.626 3.348,-6.84 l 8.795,-9.342 c 2.293,-3.354 5.807,-4.692 9.873,-5.07 0.201,-0.027 0.391,-0.043 0.57,-0.047 0.698,-0.049 1.409,-0.074 2.129,-0.076 1.922,-0.005 14.192,-0.825 15.576,16.554 C 0.107,-1.172 0.096,-0.583 0,0"
         style="fill:#ffffff;fill-opacity:1;fill-rule:nonzero;stroke:none"
         id="path44" /></g><g
       id="g46"
       transform="matrix(1.33333,0,0,-1.33333,240.383,213.818)"><path
         d="m 0,0 v 5.893 c 0,1.457 -1.18,2.639 -2.633,2.639 -1.144,0 -2.115,-0.731 -2.478,-1.753 -0.625,0.429 -1.287,0.828 -1.981,1.196 v 2.421 c 0,1.908 -1.379,3.455 -3.078,3.455 -1.701,0 -3.078,-1.547 -3.078,-3.455 v -0.253 c -0.684,0.13 -1.361,0.235 -2.031,0.314 v 2.977 c 0,1.907 -1.379,3.452 -3.08,3.452 -1.698,0 -3.077,-1.545 -3.077,-3.452 v -3.042 c -0.701,-0.109 -1.378,-0.253 -2.031,-0.434 V 22.69 c 0,1.908 -1.377,3.455 -3.078,3.455 -1.701,0 -3.078,-1.547 -3.078,-3.455 V 4.84 c -0.188,-1.438 -0.744,-2.29 -1.703,-2.519 -0.008,-0.002 -0.02,-0.003 -0.029,-0.006 -3.954,1.359 -7.588,2.062 -8.913,0.745 -1.697,-1.691 0.563,-4.626 3.348,-6.84 l 8.795,-9.342 c 2.293,-3.354 5.807,-4.692 9.873,-5.07 0.201,-0.027 0.391,-0.043 0.57,-0.047 0.698,-0.049 1.409,-0.074 2.129,-0.076 1.922,-0.005 14.192,-0.825 15.576,16.554 C 0.107,-1.172 0.096,-0.583 0,0 Z"
         style="fill:none;stroke:#231f20;stroke-width:1;stroke-linecap:butt;stroke-linejoin:miter;stroke-miterlimit:4;stroke-dasharray:none;stroke-opacity:1"
         id="path48" /></g><text
       transform="matrix(1.33333,0,0,1.33333,0,1344)"
       style="font-variant:normal;font-weight:normal;font-stretch:normal;font-size:10px;font-family:Tahoma;-inkscape-font-specification:Tahoma;writing-mode:lr-tb;fill:#231f20;fill-opacity:1;fill-rule:nonzero;stroke:none"
       id="text260"
       x="74.538101"
       y="-850.69818"><tspan
         x="74.538101 79.278099 84.528099"
         y="-850.69818"
         id="tspan258">Tap</tspan></text></g></svg>
