<?xml version="1.0" encoding="UTF-8" standalone="no"?>
<!-- Created with Inkscape (http://www.inkscape.org/) -->

<svg
   version="1.1"
   id="svg2"
   xml:space="preserve"
   width="229.19647"
   height="159.70889"
   viewBox="0 0 229.19647 159.70889"
   xmlns="http://www.w3.org/2000/svg"
   xmlns:svg="http://www.w3.org/2000/svg"><defs
     id="defs6" /><g
     id="layer3"
     style="display:inline"
     transform="translate(-100.69248,-262.18935)"><g
       id="g18"
       transform="matrix(1.33333,0,0,-1.33333,214.128,280.591)"><path
         d="m 0,0 c 0,-0.493 -0.051,-0.975 -0.146,-1.44 0.525,-0.123 1.07,-0.196 1.633,-0.196 3.927,0 7.113,3.185 7.113,7.112 0,3.928 -3.186,7.112 -7.113,7.112 -3.435,0 -6.3,-2.435 -6.966,-5.672 l -0.146,0.032 c 0,0.493 0.146,-0.032 0.146,-0.032 -0.526,0.124 -1.071,0.196 -1.634,0.196 -3.928,0 -7.112,-3.184 -7.112,-7.112 0,-3.927 3.184,-7.112 7.112,-7.112 3.434,0 6.3,2.435 6.967,5.672"
         style="fill:#ffffff;fill-opacity:1;fill-rule:nonzero;stroke:#231f20;stroke-width:2;stroke-linecap:square;stroke-linejoin:round;stroke-miterlimit:4;stroke-dasharray:none;stroke-opacity:1"
         id="path20" /></g><g
       id="g50"
       transform="matrix(1.33333,0,0,-1.33333,240.383,311.758)"><path
         d="m 0,0 v 5.893 c 0,1.457 -1.18,2.639 -2.633,2.639 -1.144,0 -2.115,-0.731 -2.478,-1.753 -0.625,0.429 -1.287,0.828 -1.981,1.196 v 2.421 c 0,1.908 -1.379,3.455 -3.078,3.455 -1.701,0 -3.078,-1.547 -3.078,-3.455 v -0.253 c -0.684,0.13 -1.361,0.235 -2.031,0.314 v 17.489 c 0,1.907 -1.379,3.452 -3.08,3.452 -1.698,0 -3.077,-1.545 -3.077,-3.452 V 10.392 c -0.701,-0.109 -1.378,-0.253 -2.031,-0.434 V 22.69 c 0,1.908 -1.377,3.455 -3.078,3.455 -1.701,0 -3.078,-1.547 -3.078,-3.455 V 4.84 c -0.188,-1.438 -0.744,-2.29 -1.703,-2.519 -0.008,-0.002 -0.02,-0.003 -0.029,-0.006 -3.954,1.359 -7.588,2.062 -8.913,0.745 -1.697,-1.691 0.563,-4.626 3.348,-6.84 l 8.795,-9.342 c 2.293,-3.354 5.807,-4.692 9.873,-5.07 0.201,-0.027 0.391,-0.043 0.57,-0.047 0.698,-0.049 1.409,-0.074 2.129,-0.076 1.922,-0.005 14.192,-0.825 15.576,16.554 C 0.107,-1.172 0.096,-0.583 0,0"
         style="fill:#ffffff;fill-opacity:1;fill-rule:nonzero;stroke:none"
         id="path52" /></g><g
       id="g54"
       transform="matrix(1.33333,0,0,-1.33333,240.383,311.758)"><path
         d="m 0,0 v 5.893 c 0,1.457 -1.18,2.639 -2.633,2.639 -1.144,0 -2.115,-0.731 -2.478,-1.753 -0.625,0.429 -1.287,0.828 -1.981,1.196 v 2.421 c 0,1.908 -1.379,3.455 -3.078,3.455 -1.701,0 -3.078,-1.547 -3.078,-3.455 v -0.253 c -0.684,0.13 -1.361,0.235 -2.031,0.314 v 17.489 c 0,1.907 -1.379,3.452 -3.08,3.452 -1.698,0 -3.077,-1.545 -3.077,-3.452 V 10.392 c -0.701,-0.109 -1.378,-0.253 -2.031,-0.434 V 22.69 c 0,1.908 -1.377,3.455 -3.078,3.455 -1.701,0 -3.078,-1.547 -3.078,-3.455 V 4.84 c -0.188,-1.438 -0.744,-2.29 -1.703,-2.519 -0.008,-0.002 -0.02,-0.003 -0.029,-0.006 -3.954,1.359 -7.588,2.062 -8.913,0.745 -1.697,-1.691 0.563,-4.626 3.348,-6.84 l 8.795,-9.342 c 2.293,-3.354 5.807,-4.692 9.873,-5.07 0.201,-0.027 0.391,-0.043 0.57,-0.047 0.698,-0.049 1.409,-0.074 2.129,-0.076 1.922,-0.005 14.192,-0.825 15.576,16.554 C 0.107,-1.172 0.096,-0.583 0,0 Z"
         style="fill:none;stroke:#231f20;stroke-width:1;stroke-linecap:butt;stroke-linejoin:miter;stroke-miterlimit:4;stroke-dasharray:none;stroke-opacity:1"
         id="path56" /></g><g
       id="g58"
       transform="matrix(1.33333,0,0,-1.33333,281.451,394.418)"><path
         d="m 0,0 c 0,-3.927 -3.186,-7.112 -7.113,-7.112 -3.928,0 -7.112,3.185 -7.112,7.112 0,3.928 3.184,7.112 7.112,7.112 C -3.186,7.112 0,3.928 0,0"
         style="fill:#ffffff;fill-opacity:1;fill-rule:nonzero;stroke:none"
         id="path60" /></g><g
       id="g62"
       transform="matrix(1.33333,0,0,-1.33333,281.451,394.418)"><path
         d="m 0,0 c 0,-3.927 -3.186,-7.112 -7.113,-7.112 -3.928,0 -7.112,3.185 -7.112,7.112 0,3.928 3.184,7.112 7.112,7.112 C -3.186,7.112 0,3.928 0,0 Z"
         style="fill:none;stroke:#231f20;stroke-width:2;stroke-linecap:butt;stroke-linejoin:miter;stroke-miterlimit:4;stroke-dasharray:none;stroke-opacity:1"
         id="path64" /></g><g
       id="g1002"
       transform="matrix(1.33333,0,0,-1.33333,302.49,282.231)"><path
         d="m 0,0 c 0.822,-3.019 3.576,-5.242 6.855,-5.242 3.927,0 7.113,3.184 7.113,7.112 0,3.927 -3.186,7.111 -7.113,7.111 -0.558,0 -1.098,-0.07 -1.619,-0.192"
         style="fill:#ffffff;fill-opacity:1;fill-rule:nonzero;stroke:#231f20;stroke-width:2;stroke-linecap:butt;stroke-linejoin:miter;stroke-miterlimit:4;stroke-dasharray:none;stroke-opacity:1"
         id="path1004" /></g><g
       id="g1006"
       transform="matrix(1.33333,0,0,-1.33333,290.847,271.042)"><path
         d="M 0,0 0.146,-0.032 C 0.146,-0.032 0,0.493 0,0"
         style="fill:#ffffff;fill-opacity:1;fill-rule:nonzero;stroke:none"
         id="path1008" /></g><g
       id="g1010"
       transform="matrix(1.33333,0,0,-1.33333,290.847,271.042)"><path
         d="M 0,0 0.146,-0.032 C 0.146,-0.032 0,0.493 0,0 Z"
         style="fill:none;stroke:#231f20;stroke-width:2;stroke-linecap:square;stroke-linejoin:round;stroke-miterlimit:4;stroke-dasharray:none;stroke-opacity:1"
         id="path1012" /></g><g
       id="g1014"
       transform="matrix(1.33333,0,0,-1.33333,309.471,270.512)"><path
         d="m 0,0 c -0.822,3.019 -3.577,5.242 -6.856,5.242 -3.435,0 -6.3,-2.434 -6.966,-5.672 -0.526,0.124 -1.071,0.196 -1.634,0.196 -3.928,0 -7.112,-3.184 -7.112,-7.112 0,-3.927 3.184,-7.112 7.112,-7.112 3.434,0 6.301,2.436 6.967,5.672 l 0.146,1.44 c 0,-0.493 -0.051,-0.975 -0.146,-1.44 0.525,-0.123 1.07,-0.195 1.633,-0.195 0.558,0 1.099,0.07 1.62,0.192 -0.163,0.597 -0.257,1.222 -0.257,1.87"
         style="fill:#ffffff;fill-opacity:1;fill-rule:nonzero;stroke:#231f20;stroke-width:2;stroke-linecap:square;stroke-linejoin:round;stroke-miterlimit:4;stroke-dasharray:none;stroke-opacity:1"
         id="path1016" /></g><g
       id="g1018"
       transform="matrix(1.33333,0,0,-1.33333,324.387,311.113)"><path
         d="m 0,0 v 5.893 c 0,1.457 -1.18,2.639 -2.633,2.639 -1.144,0 -2.115,-0.731 -2.478,-1.753 -0.625,0.429 -1.287,0.828 -1.981,1.196 V 23.36 c 0,1.908 -1.379,3.455 -3.078,3.455 -1.701,0 -3.078,-1.547 -3.078,-3.455 V 10.143 c -0.684,0.13 -1.361,0.235 -2.031,0.314 v 17.489 c 0,1.907 -1.379,3.452 -3.08,3.452 -1.698,0 -3.077,-1.545 -3.077,-3.452 V 10.392 c -0.701,-0.109 -1.378,-0.253 -2.031,-0.434 V 22.69 c 0,1.908 -1.377,3.455 -3.078,3.455 -1.701,0 -3.078,-1.547 -3.078,-3.455 V 4.84 c -0.188,-1.438 -0.744,-2.29 -1.703,-2.519 -0.008,-0.002 -0.02,-0.003 -0.029,-0.006 -3.954,1.359 -7.588,2.062 -8.913,0.745 -1.697,-1.691 0.563,-4.626 3.348,-6.84 l 8.795,-9.342 c 2.293,-3.354 5.807,-4.692 9.873,-5.07 0.201,-0.027 0.391,-0.043 0.57,-0.047 0.698,-0.049 1.409,-0.074 2.129,-0.076 1.922,-0.005 14.192,-0.825 15.576,16.554 C 0.107,-1.172 0.096,-0.583 0,0"
         style="fill:#ffffff;fill-opacity:1;fill-rule:nonzero;stroke:none"
         id="path1020" /></g><g
       id="g1022"
       transform="matrix(1.33333,0,0,-1.33333,324.387,311.113)"><path
         d="m 0,0 v 5.893 c 0,1.457 -1.18,2.639 -2.633,2.639 -1.144,0 -2.115,-0.731 -2.478,-1.753 -0.625,0.429 -1.287,0.828 -1.981,1.196 V 23.36 c 0,1.908 -1.379,3.455 -3.078,3.455 -1.701,0 -3.078,-1.547 -3.078,-3.455 V 10.143 c -0.684,0.13 -1.361,0.235 -2.031,0.314 v 17.489 c 0,1.907 -1.379,3.452 -3.08,3.452 -1.698,0 -3.077,-1.545 -3.077,-3.452 V 10.392 c -0.701,-0.109 -1.378,-0.253 -2.031,-0.434 V 22.69 c 0,1.908 -1.377,3.455 -3.078,3.455 -1.701,0 -3.078,-1.547 -3.078,-3.455 V 4.84 c -0.188,-1.438 -0.744,-2.29 -1.703,-2.519 -0.008,-0.002 -0.02,-0.003 -0.029,-0.006 -3.954,1.359 -7.588,2.062 -8.913,0.745 -1.697,-1.691 0.563,-4.626 3.348,-6.84 l 8.795,-9.342 c 2.293,-3.354 5.807,-4.692 9.873,-5.07 0.201,-0.027 0.391,-0.043 0.57,-0.047 0.698,-0.049 1.409,-0.074 2.129,-0.076 1.922,-0.005 14.192,-0.825 15.576,16.554 C 0.107,-1.172 0.096,-0.583 0,0 Z"
         style="fill:none;stroke:#231f20;stroke-width:1;stroke-linecap:butt;stroke-linejoin:miter;stroke-miterlimit:4;stroke-dasharray:none;stroke-opacity:1"
         id="path1024" /></g><g
       id="g1026"
       transform="matrix(1.33333,0,0,-1.33333,204.721,356.73)"><path
         d="M 0,0 0.146,-0.032 C 0.146,-0.032 0,0.493 0,0"
         style="fill:#ffffff;fill-opacity:1;fill-rule:nonzero;stroke:none"
         id="path1028" /></g><g
       id="g1030"
       transform="matrix(1.33333,0,0,-1.33333,204.721,356.73)"><path
         d="M 0,0 0.146,-0.032 C 0.146,-0.032 0,0.493 0,0 Z"
         style="fill:none;stroke:#231f20;stroke-width:2;stroke-linecap:square;stroke-linejoin:round;stroke-miterlimit:4;stroke-dasharray:none;stroke-opacity:1"
         id="path1032" /></g><g
       id="g1034"
       transform="matrix(1.33333,0,0,-1.33333,226.057,374.88)"><path
         d="m 0,0 c -0.1,-0.474 -0.153,-0.964 -0.153,-1.468 0,-3.927 3.184,-7.112 7.112,-7.112 3.927,0 7.113,3.185 7.113,7.112 0,3.928 -3.186,7.112 -7.113,7.112 -0.14,0 -0.277,-0.013 -0.415,-0.021 0.1,0.474 0.154,0.964 0.154,1.468 0,3.928 -3.186,7.112 -7.113,7.112 -0.558,0 -1.098,-0.071 -1.619,-0.193 -0.822,3.019 -3.577,5.242 -6.856,5.242 -3.435,0 -6.3,-2.434 -6.966,-5.671 -0.526,0.123 -1.071,0.195 -1.634,0.195 -3.928,0 -7.112,-3.184 -7.112,-7.111 0,-3.928 3.184,-7.112 7.112,-7.112 3.434,0 6.301,2.435 6.967,5.672 l 0.146,1.44 c 0,-0.494 -0.051,-0.976 -0.146,-1.44 0.525,-0.124 1.07,-0.196 1.633,-0.196 0.558,0 1.098,0.071 1.619,0.192 -0.162,0.597 -0.256,1.222 -0.256,1.87 l 0.256,-1.87 c 0.822,-3.019 3.576,-5.242 6.856,-5.242 0.14,0 0.277,0.013 0.415,0.021"
         style="fill:#ffffff;fill-opacity:1;fill-rule:nonzero;stroke:#231f20;stroke-width:2;stroke-linecap:butt;stroke-linejoin:miter;stroke-miterlimit:4;stroke-dasharray:none;stroke-opacity:1"
         id="path1036" /></g><g
       id="g1038"
       transform="matrix(1.33333,0,0,-1.33333,238.594,396.801)"><path
         d="m 0,0 v 5.893 c 0,1.457 0.519,11.251 -2.703,11.251 -3.371,0 -2.045,-9.343 -2.408,-10.365 -0.625,0.429 -1.287,0.828 -1.981,1.196 V 23.36 c 0,1.908 -1.379,3.455 -3.078,3.455 -1.701,0 -3.078,-1.547 -3.078,-3.455 V 10.143 c -0.684,0.13 -1.361,0.235 -2.031,0.314 v 17.489 c 0,1.907 -1.379,3.452 -3.08,3.452 -1.698,0 -3.077,-1.545 -3.077,-3.452 V 10.392 c -0.701,-0.109 -1.378,-0.253 -2.031,-0.434 V 22.69 c 0,1.908 -1.377,3.455 -3.078,3.455 -1.701,0 -3.078,-1.547 -3.078,-3.455 V 4.84 c -0.188,-1.438 -0.744,-2.29 -1.703,-2.519 -0.008,-0.002 -0.02,-0.003 -0.029,-0.006 -3.954,1.359 -7.588,2.062 -8.913,0.745 -1.697,-1.691 0.563,-4.626 3.348,-6.84 l 8.795,-9.342 c 2.293,-3.354 5.807,-4.692 9.873,-5.07 0.201,-0.027 0.391,-0.043 0.57,-0.047 0.698,-0.049 1.409,-0.074 2.129,-0.076 1.922,-0.005 14.192,-0.825 15.576,16.554 C 0.107,-1.172 0.096,-0.583 0,0"
         style="fill:#ffffff;fill-opacity:1;fill-rule:nonzero;stroke:none"
         id="path1040" /></g><g
       id="g1042"
       transform="matrix(1.33333,0,0,-1.33333,238.594,396.801)"><path
         d="m 0,0 -0.07,14.504 c 0,1.457 -1.18,2.64 -2.633,2.64 -1.297,0 -2.422,-1.137 -2.422,-2.592 L -5.111,6.779 C -5.736,7.208 -6.398,7.607 -7.092,7.975 V 23.36 c 0,1.908 -1.379,3.455 -3.078,3.455 -1.701,0 -3.078,-1.547 -3.078,-3.455 V 10.143 c -0.684,0.13 -1.361,0.235 -2.031,0.314 v 17.489 c 0,1.907 -1.379,3.452 -3.08,3.452 -1.698,0 -3.077,-1.545 -3.077,-3.452 V 10.392 c -0.701,-0.109 -1.378,-0.253 -2.031,-0.434 V 22.69 c 0,1.908 -1.377,3.455 -3.078,3.455 -1.701,0 -3.078,-1.547 -3.078,-3.455 V 4.84 c -0.188,-1.438 -0.744,-2.29 -1.703,-2.519 -0.008,-0.002 -0.02,-0.003 -0.029,-0.006 -3.954,1.359 -7.588,2.062 -8.913,0.745 -1.697,-1.691 0.563,-4.626 3.348,-6.84 l 8.795,-9.342 c 2.293,-3.354 5.807,-4.692 9.873,-5.07 0.201,-0.027 0.391,-0.043 0.57,-0.047 0.698,-0.049 1.409,-0.074 2.129,-0.076 1.922,-0.005 14.192,-0.825 15.576,16.554 C 0.107,-1.172 0.096,-0.583 0,0 Z"
         style="fill:none;stroke:#231f20;stroke-width:1;stroke-linecap:butt;stroke-linejoin:miter;stroke-miterlimit:4;stroke-dasharray:none;stroke-opacity:1"
         id="path1044" /></g><g
       id="g1046"
       transform="matrix(1.33333,0,0,-1.33333,288.456,357.171)"><path
         d="M 0,0 0.146,-0.032 C 0.146,-0.032 0,0.493 0,0"
         style="fill:#ffffff;fill-opacity:1;fill-rule:nonzero;stroke:none"
         id="path1048" /></g><g
       id="g1050"
       transform="matrix(1.33333,0,0,-1.33333,288.456,357.171)"><path
         d="M 0,0 0.146,-0.032 C 0.146,-0.032 0,0.493 0,0 Z"
         style="fill:none;stroke:#231f20;stroke-width:2;stroke-linecap:square;stroke-linejoin:round;stroke-miterlimit:4;stroke-dasharray:none;stroke-opacity:1"
         id="path1052" /></g><g
       id="g1054"
       transform="matrix(1.33333,0,0,-1.33333,309.793,375.321)"><path
         d="m 0,0 c -0.1,-0.474 -0.153,-0.964 -0.153,-1.468 0,-3.927 3.184,-7.112 7.112,-7.112 3.927,0 7.113,3.185 7.113,7.112 0,3.928 -3.186,7.112 -7.113,7.112 -0.14,0 -0.277,-0.013 -0.415,-0.021 0.1,0.474 0.154,0.964 0.154,1.468 0,3.928 -3.186,7.112 -7.113,7.112 -0.558,0 -1.098,-0.071 -1.619,-0.193 -0.822,3.019 -3.577,5.242 -6.856,5.242 -3.435,0 -6.3,-2.434 -6.966,-5.671 -0.526,0.123 -1.071,0.195 -1.634,0.195 -3.928,0 -7.112,-3.184 -7.112,-7.111 0,-3.928 3.184,-7.112 7.112,-7.112 3.434,0 6.301,2.435 6.967,5.672 l 0.146,1.44 c 0,-0.494 -0.051,-0.976 -0.146,-1.44 0.525,-0.124 1.07,-0.196 1.633,-0.196 0.558,0 1.098,0.071 1.619,0.192 -0.162,0.597 -0.256,1.222 -0.256,1.87 l 0.256,-1.87 c 0.822,-3.019 3.576,-5.242 6.856,-5.242 0.14,0 0.277,0.013 0.415,0.021"
         style="fill:#ffffff;fill-opacity:1;fill-rule:nonzero;stroke:#231f20;stroke-width:2;stroke-linecap:butt;stroke-linejoin:miter;stroke-miterlimit:4;stroke-dasharray:none;stroke-opacity:1"
         id="path1056" /></g><g
       id="g1058"
       transform="matrix(1.33333,0,0,-1.33333,322.403,396.801)"><path
         d="m 0,0 v 5.893 c 0,1.457 0.519,11.251 -2.703,11.251 -3.371,0 -2.045,-9.343 -2.408,-10.365 -0.625,0.429 -1.287,0.828 -1.981,1.196 V 23.36 c 0,1.908 -1.379,3.455 -3.078,3.455 -1.701,0 -3.078,-1.547 -3.078,-3.455 V 10.143 c -0.684,0.13 -1.361,0.235 -2.031,0.314 v 17.489 c 0,1.907 -1.379,3.452 -3.08,3.452 -1.698,0 -3.077,-1.545 -3.077,-3.452 V 10.392 c -0.701,-0.109 -1.378,-0.253 -2.031,-0.434 V 22.69 c 0,1.908 -1.377,3.455 -3.078,3.455 -1.701,0 -3.078,-1.547 -3.078,-3.455 V 4.84 c -0.188,-1.438 -0.744,-2.29 -1.703,-2.519 -0.008,-0.002 -0.02,-0.003 -0.029,-0.006 -3.954,1.359 -7.588,2.062 -8.913,0.745 -1.697,-1.691 0.563,-4.626 3.348,-6.84 l 8.795,-9.342 c 2.293,-3.354 5.807,-4.692 9.873,-5.07 0.201,-0.027 0.391,-0.043 0.57,-0.047 0.698,-0.049 1.409,-0.074 2.129,-0.076 1.922,-0.005 14.192,-0.825 15.576,16.554 C 0.107,-1.172 0.096,-0.583 0,0"
         style="fill:#ffffff;fill-opacity:1;fill-rule:nonzero;stroke:none"
         id="path1060" /></g><g
       id="g1062"
       transform="matrix(1.33333,0,0,-1.33333,322.403,396.801)"><path
         d="m 0,0 -0.07,14.504 c 0,1.457 -1.18,2.64 -2.633,2.64 -1.297,0 -2.422,-1.137 -2.422,-2.592 L -5.111,6.779 C -5.736,7.208 -6.398,7.607 -7.092,7.975 V 23.36 c 0,1.908 -1.379,3.455 -3.078,3.455 -1.701,0 -3.078,-1.547 -3.078,-3.455 V 10.143 c -0.684,0.13 -1.361,0.235 -2.031,0.314 v 17.489 c 0,1.907 -1.379,3.452 -3.08,3.452 -1.698,0 -3.077,-1.545 -3.077,-3.452 V 10.392 c -0.701,-0.109 -1.378,-0.253 -2.031,-0.434 V 22.69 c 0,1.908 -1.377,3.455 -3.078,3.455 -1.701,0 -3.078,-1.547 -3.078,-3.455 V 4.84 c -0.188,-1.438 -0.744,-2.29 -1.703,-2.519 -0.008,-0.002 -0.02,-0.003 -0.029,-0.006 -3.954,1.359 -7.588,2.062 -8.913,0.745 -1.697,-1.691 0.563,-4.626 3.348,-6.84 l 8.795,-9.342 c 2.293,-3.354 5.807,-4.692 9.873,-5.07 0.201,-0.027 0.391,-0.043 0.57,-0.047 0.698,-0.049 1.409,-0.074 2.129,-0.076 1.922,-0.005 14.192,-0.825 15.576,16.554 C 0.107,-1.172 0.096,-0.583 0,0 Z"
         style="fill:none;stroke:#231f20;stroke-width:1;stroke-linecap:butt;stroke-linejoin:miter;stroke-miterlimit:4;stroke-dasharray:none;stroke-opacity:1"
         id="path1064" /></g><text
       transform="matrix(1.33333,0,0,1.33333,0,1344)"
       style="font-variant:normal;font-weight:normal;font-stretch:normal;font-size:10px;font-family:Tahoma;-inkscape-font-specification:Tahoma;writing-mode:lr-tb;fill:#231f20;fill-opacity:1;fill-rule:nonzero;stroke:none"
       id="text13850"
       x="75.250992"
       y="-488.8457"><tspan
         id="tspan13844"
         x="75.250992"
         y="-488.8457" /><tspan
         id="tspan13846"
         y="-757.8457"
         x="75.250992 82.960991 88.530991 90.820992 94.160988 96.450989 100.08099 103.26099 105.55099 111.13099 116.66099 121.92099">Multi-finger</tspan><tspan
         id="tspan13848"
         y="-745.8457"
         x="75.250992 78.590988 83.840988">tap</tspan></text></g></svg>
