<?xml version="1.0" encoding="UTF-8" standalone="no"?>
<!-- Created with Inkscape (http://www.inkscape.org/) -->

<svg
   version="1.1"
   id="svg2"
   xml:space="preserve"
   width="206.10077"
   height="156.62404"
   viewBox="0 0 206.10077 156.62404"
   xmlns="http://www.w3.org/2000/svg"
   xmlns:svg="http://www.w3.org/2000/svg"><defs
     id="defs6" /><g
     id="layer4"
     transform="translate(-411.81017,-265.37435)"
     style="display:inline"><g
       id="g92549"><text
         transform="matrix(1.33333,0,0,1.33333,0,1344)"
         style="font-variant:normal;font-weight:normal;font-stretch:normal;font-size:10px;font-family:Tahoma;-inkscape-font-specification:Tahoma;writing-mode:lr-tb;fill:#231f20;fill-opacity:1;fill-rule:nonzero;stroke:none"
         id="text752"
         x="308.25781"
         y="-754.55469"><tspan
           x="308.25781 313.76779 317.3378 322.59781 327.0578"
           y="-754.55469"
           id="tspan748">Press</tspan><tspan
           x="308.25781 313.50781 319.0878 324.6178 327.7478 331.0878 336.3378"
           y="-742.55469"
           id="tspan750">and tap</tspan></text><g
         id="g758"
         transform="matrix(1.33333,0,0,-1.33333,508.659,280.437)"><path
           d="m 0,0 c 0,-2.799 -2.27,-5.066 -5.067,-5.066 -2.798,0 -5.068,2.267 -5.068,5.066 0,2.799 2.27,5.066 5.068,5.066 C -2.27,5.066 0,2.799 0,0"
           style="fill:#231f20;fill-opacity:1;fill-rule:nonzero;stroke:none"
           id="path760" /></g><g
         id="g762"
         transform="matrix(1.33333,0,0,-1.33333,508.659,280.437)"><path
           d="m 0,0 c 0,-2.799 -2.27,-5.066 -5.067,-5.066 -2.798,0 -5.068,2.267 -5.068,5.066 0,2.799 2.27,5.066 5.068,5.066 C -2.27,5.066 0,2.799 0,0 Z"
           style="fill:none;stroke:#231f20;stroke-width:1;stroke-linecap:butt;stroke-linejoin:miter;stroke-miterlimit:4;stroke-dasharray:none;stroke-opacity:1"
           id="path764" /></g><g
         id="g766"
         transform="matrix(1.33333,0,0,-1.33333,521.359,273.937)"><path
           d="m 0,0 c 0,-3.271 -2.65,-5.922 -5.922,-5.922 -3.269,0 -5.922,2.651 -5.922,5.922 0,3.27 2.653,5.922 5.922,5.922 C -2.65,5.922 0,3.27 0,0"
           style="fill:#ffffff;fill-opacity:1;fill-rule:nonzero;stroke:none"
           id="path768" /></g><g
         id="g770"
         transform="matrix(1.33333,0,0,-1.33333,521.359,273.937)"><path
           d="m 0,0 c 0,-3.271 -2.65,-5.922 -5.922,-5.922 -3.269,0 -5.922,2.651 -5.922,5.922 0,3.27 2.653,5.922 5.922,5.922 C -2.65,5.922 0,3.27 0,0 Z"
           style="fill:none;stroke:#231f20;stroke-width:1;stroke-linecap:butt;stroke-linejoin:miter;stroke-miterlimit:4;stroke-dasharray:none;stroke-opacity:1"
           id="path772" /></g><g
         id="g774"
         transform="matrix(1.33333,0,0,-1.33333,535.956,310.456)"><path
           d="M 0,0 V 5.676 C 0,7.08 -1.137,9.07 -2.539,9.07 -3.641,9.07 -4.574,8.367 -4.924,7.385 l -1.055,0.296 v 2.332 c 0,1.837 -1.326,3.325 -2.964,3.325 -1.637,0 -2.965,-1.488 -2.965,-3.325 V 9.768 c -0.658,0.127 -1.311,0.226 -1.957,0.301 V 25.76 c 0,1.838 -1.327,3.324 -2.963,3.324 -1.639,0 -2.967,-1.486 -2.967,-3.324 V 10.008 c -0.674,-0.105 -2.183,-0.243 -2.81,-0.416 v 12.263 c 0,1.837 -1.33,3.327 -2.965,3.327 -1.639,0 -2.965,-1.49 -2.965,-3.327 V 4.66 c -0.182,-1.385 -0.719,-2.205 -1.641,-2.426 -0.009,-0.002 -0.018,-0.004 -0.029,-0.005 -3.809,1.308 -7.31,1.986 -8.586,0.714 -1.633,-1.626 0.543,-4.456 3.226,-6.586 l 8.471,-8.999 c 2.209,-3.228 5.594,-4.519 9.512,-4.884 0.191,-0.026 0.375,-0.039 0.552,-0.043 0.669,-0.047 1.35,-0.073 2.048,-0.073 1.849,-0.005 13.669,-0.796 15.004,15.946 C 0.104,-1.129 0.092,-0.563 0,0"
           style="fill:#ffffff;fill-opacity:1;fill-rule:nonzero;stroke:none"
           id="path776" /></g><g
         id="g778"
         transform="matrix(1.33333,0,0,-1.33333,535.956,310.456)"><path
           d="M 0,0 V 5.676 C 0,7.08 -1.137,9.07 -2.539,9.07 -3.641,9.07 -4.574,8.367 -4.924,7.385 l -1.055,0.296 v 2.332 c 0,1.837 -1.326,3.325 -2.964,3.325 -1.637,0 -2.965,-1.488 -2.965,-3.325 V 9.768 c -0.658,0.127 -1.311,0.226 -1.957,0.301 V 25.76 c 0,1.838 -1.327,3.324 -2.963,3.324 -1.639,0 -2.967,-1.486 -2.967,-3.324 V 10.008 c -0.674,-0.105 -2.183,-0.243 -2.81,-0.416 v 12.263 c 0,1.837 -1.33,3.327 -2.965,3.327 -1.639,0 -2.965,-1.49 -2.965,-3.327 V 4.66 c -0.182,-1.385 -0.719,-2.205 -1.641,-2.426 -0.009,-0.002 -0.018,-0.004 -0.029,-0.005 -3.809,1.308 -7.31,1.986 -8.586,0.714 -1.633,-1.626 0.543,-4.456 3.226,-6.586 l 8.471,-8.999 c 2.209,-3.228 5.594,-4.519 9.512,-4.884 0.191,-0.026 0.375,-0.039 0.552,-0.043 0.669,-0.047 1.35,-0.073 2.048,-0.073 1.849,-0.005 13.669,-0.796 15.004,15.946 C 0.104,-1.129 0.092,-0.563 0,0 Z"
           style="fill:none;stroke:#231f20;stroke-width:1;stroke-linecap:butt;stroke-linejoin:miter;stroke-miterlimit:4;stroke-dasharray:none;stroke-opacity:1"
           id="path780" /></g><g
         id="g964"
         transform="matrix(1.33333,0,0,-1.33333,520.357,359.691)"><path
           d="m 0,0 c 0,-2.799 -2.269,-5.066 -5.068,-5.066 -2.799,0 -5.065,2.267 -5.065,5.066 0,2.799 2.266,5.066 5.065,5.066 C -2.269,5.066 0,2.799 0,0"
           style="fill:#231f20;fill-opacity:1;fill-rule:nonzero;stroke:none"
           id="path966" /></g><g
         id="g968"
         transform="matrix(1.33333,0,0,-1.33333,520.357,359.691)"><path
           d="m 0,0 c 0,-2.799 -2.269,-5.066 -5.068,-5.066 -2.799,0 -5.065,2.267 -5.065,5.066 0,2.799 2.266,5.066 5.065,5.066 C -2.269,5.066 0,2.799 0,0 Z"
           style="fill:none;stroke:#231f20;stroke-width:1;stroke-linecap:butt;stroke-linejoin:miter;stroke-miterlimit:4;stroke-dasharray:none;stroke-opacity:1"
           id="path970" /></g><g
         id="g972"
         transform="matrix(1.33333,0,0,-1.33333,479.729,393.707)"><path
           d="m 0,0 v 5.676 c 0,1.404 1.135,2.541 2.535,2.541 1.104,0 2.036,-0.703 2.387,-1.686 0.6,0.41 1.24,0.797 1.91,1.151 v 2.332 c 0,1.836 1.325,3.326 2.963,3.326 1.639,0 2.965,-1.49 2.965,-3.326 V 9.768 c 0.66,0.127 1.311,0.228 1.957,0.302 v 2.868 c 0,1.837 1.328,3.326 2.965,3.326 1.637,0 2.964,-1.489 2.964,-3.326 v -2.93 c 0.675,-0.104 1.329,-0.242 1.958,-0.414 v 12.261 c 0,1.838 1.328,3.327 2.963,3.327 1.64,0 2.965,-1.489 2.965,-3.327 V 4.662 c 0.183,-1.387 0.72,-2.207 1.642,-2.428 0.008,-0.002 0.018,-0.004 0.029,-0.004 3.807,1.307 7.309,1.985 8.584,0.713 1.635,-1.625 -0.541,-4.455 -3.224,-6.586 l -8.473,-9 c -2.207,-3.226 -5.592,-4.517 -9.51,-4.882 -0.193,-0.026 -0.375,-0.041 -0.552,-0.045 -0.67,-0.047 -1.352,-0.073 -2.049,-0.073 C 13.129,-17.648 1.311,-18.438 -0.023,-1.695 -0.104,-1.129 -0.095,-0.563 0,0"
           style="fill:#ffffff;fill-opacity:1;fill-rule:nonzero;stroke:none"
           id="path974" /></g><g
         id="g976"
         transform="matrix(1.33333,0,0,-1.33333,479.729,393.707)"><path
           d="m 0,0 v 5.676 c 0,1.404 1.135,2.541 2.535,2.541 1.104,0 2.036,-0.703 2.387,-1.686 0.6,0.41 1.24,0.797 1.91,1.151 v 2.332 c 0,1.836 1.325,3.326 2.963,3.326 1.639,0 2.965,-1.49 2.965,-3.326 V 9.768 c 0.66,0.127 1.311,0.228 1.957,0.302 v 2.868 c 0,1.837 1.328,3.326 2.965,3.326 1.637,0 2.964,-1.489 2.964,-3.326 v -2.93 c 0.675,-0.104 1.329,-0.242 1.958,-0.414 v 12.261 c 0,1.838 1.328,3.327 2.963,3.327 1.64,0 2.965,-1.489 2.965,-3.327 V 4.662 c 0.183,-1.387 0.72,-2.207 1.642,-2.428 0.008,-0.002 0.018,-0.004 0.029,-0.004 3.807,1.307 7.309,1.985 8.584,0.713 1.635,-1.625 -0.541,-4.455 -3.224,-6.586 l -8.473,-9 c -2.207,-3.226 -5.592,-4.517 -9.51,-4.882 -0.193,-0.026 -0.375,-0.041 -0.552,-0.045 -0.67,-0.047 -1.352,-0.073 -2.049,-0.073 C 13.129,-17.648 1.311,-18.438 -0.023,-1.695 -0.104,-1.129 -0.095,-0.563 0,0 Z"
           style="fill:none;stroke:#231f20;stroke-width:1;stroke-linecap:butt;stroke-linejoin:miter;stroke-miterlimit:4;stroke-dasharray:none;stroke-opacity:1"
           id="path978" /></g><g
         id="g980"
         transform="matrix(1.33333,0,0,-1.33333,587.647,361.257)"><path
           d="m 0,0 c -1.426,-3.658 -5.551,-5.473 -9.211,-4.045 -3.658,1.424 -5.469,5.549 -4.045,9.207 1.426,3.66 5.549,5.473 9.207,4.047 C -0.389,7.783 1.424,3.66 0,0 Z"
           style="fill:none;stroke:#231f20;stroke-width:2;stroke-linecap:butt;stroke-linejoin:miter;stroke-miterlimit:4;stroke-dasharray:none;stroke-opacity:1"
           id="path982" /></g><g
         id="g984"
         transform="matrix(1.33333,0,0,-1.33333,595.122,402.887)"><path
           d="M 0,0 2.565,5.063 C 3.2,6.316 2.701,7.844 1.452,8.477 0.468,8.975 -0.683,8.77 -1.438,8.051 -1.79,8.688 -2.185,9.322 -2.623,9.939 l 1.055,2.082 c 0.829,1.637 0.319,3.567 -1.141,4.305 -1.462,0.74 -3.318,0.012 -4.147,-1.627 l -0.112,-0.22 c -0.531,0.412 -1.067,0.798 -1.609,1.156 l 1.297,2.558 c 0.831,1.641 0.317,3.567 -1.143,4.307 -1.462,0.74 -3.316,0.014 -4.147,-1.627 l -1.325,-2.615 c -0.649,0.213 -1.293,0.385 -1.932,0.515 l 5.542,10.94 c 0.829,1.639 0.317,3.564 -1.143,4.307 -1.462,0.74 -3.317,0.009 -4.147,-1.627 l -7.771,-15.338 c -0.788,-1.155 -1.638,-1.645 -2.56,-1.424 -0.008,0.002 -0.019,0.006 -0.029,0.008 -2.805,2.886 -5.623,5.074 -7.335,4.517 -2.193,-0.713 -1.531,-4.22 -0.099,-7.332 l 3.491,-11.857 c 0.51,-3.877 2.945,-6.559 6.274,-8.656 0.163,-0.11 0.318,-0.206 0.473,-0.29 0.576,-0.343 1.176,-0.673 1.797,-0.988 1.646,-0.844 11.833,-6.888 20.589,7.444 C -0.418,-1.055 -0.17,-0.543 0,0"
           style="fill:#ffffff;fill-opacity:1;fill-rule:nonzero;stroke:none"
           id="path986" /></g><g
         id="g988"
         transform="matrix(1.33333,0,0,-1.33333,595.122,402.887)"><path
           d="M 0,0 2.565,5.063 C 3.2,6.316 2.701,7.844 1.452,8.477 0.468,8.975 -0.683,8.77 -1.438,8.051 -1.79,8.688 -2.185,9.322 -2.623,9.939 l 1.055,2.082 c 0.829,1.637 0.319,3.567 -1.141,4.305 -1.462,0.74 -3.318,0.012 -4.147,-1.627 l -0.112,-0.22 c -0.531,0.412 -1.067,0.798 -1.609,1.156 l 1.297,2.558 c 0.831,1.641 0.317,3.567 -1.143,4.307 -1.462,0.74 -3.316,0.014 -4.147,-1.627 l -1.325,-2.615 c -0.649,0.213 -1.293,0.385 -1.932,0.515 l 5.542,10.94 c 0.829,1.639 0.317,3.564 -1.143,4.307 -1.462,0.74 -3.317,0.009 -4.147,-1.627 l -7.771,-15.338 c -0.788,-1.155 -1.638,-1.645 -2.56,-1.424 -0.008,0.002 -0.019,0.006 -0.029,0.008 -2.805,2.886 -5.623,5.074 -7.335,4.517 -2.193,-0.713 -1.531,-4.22 -0.099,-7.332 l 3.491,-11.857 c 0.51,-3.877 2.945,-6.559 6.274,-8.656 0.163,-0.11 0.318,-0.206 0.473,-0.29 0.576,-0.343 1.176,-0.673 1.797,-0.988 1.646,-0.844 11.833,-6.888 20.589,7.444 C -0.418,-1.055 -0.17,-0.543 0,0 Z"
           style="fill:none;stroke:#231f20;stroke-width:1;stroke-linecap:butt;stroke-linejoin:miter;stroke-miterlimit:4;stroke-dasharray:none;stroke-opacity:1"
           id="path990" /></g><text
         transform="matrix(1.33333,0,0,1.33333,0,1344)"
         style="font-variant:normal;font-weight:normal;font-stretch:normal;font-size:8px;font-family:Verdana;-inkscape-font-specification:Verdana;writing-mode:lr-tb;fill:#231f20;fill-opacity:1;fill-rule:nonzero;stroke:none"
         id="text996"
         x="391.9053"
         y="-692.50293"><tspan
           x="391.9053"
           y="-692.50293"
           id="tspan992">1</tspan><tspan
           x="459.14529"
           y="-691.50293"
           id="tspan994">2</tspan></text></g></g></svg>
