<?xml version="1.0" encoding="UTF-8" standalone="no"?>
<!-- Created with Inkscape (http://www.inkscape.org/) -->

<svg
   version="1.1"
   id="svg2"
   xml:space="preserve"
   width="138.65414"
   height="70.424553"
   viewBox="0 0 138.65414 70.424555"
   xmlns="http://www.w3.org/2000/svg"
   xmlns:svg="http://www.w3.org/2000/svg"><defs
     id="defs6" /><g
     id="layer5"
     transform="translate(-100.69248,-443.3767)"
     style="display:inline"><g
       id="g92609"><g
         id="g22"
         transform="matrix(1.33333,0,0,-1.33333,211.391,457.422)"><path
           d="m 0,0 c 0,-3.367 -2.73,-6.099 -6.099,-6.099 -3.368,0 -6.098,2.732 -6.098,6.099 0,3.367 2.73,6.099 6.098,6.099 C -2.73,6.099 0,3.367 0,0 Z"
           style="fill:none;stroke:#231f20;stroke-width:1;stroke-linecap:butt;stroke-linejoin:miter;stroke-miterlimit:4;stroke-dasharray:none;stroke-opacity:1"
           id="path24" /></g><g
         id="g26"
         transform="matrix(1.33333,0,0,-1.33333,215.973,457.422)"><path
           d="m 0,0 c 0,-5.264 -4.27,-9.534 -9.535,-9.534 -5.266,0 -9.533,4.27 -9.533,9.534 0,5.266 4.267,9.534 9.533,9.534 C -4.27,9.534 0,5.266 0,0 Z"
           style="fill:none;stroke:#231f20;stroke-width:2;stroke-linecap:butt;stroke-linejoin:miter;stroke-miterlimit:4;stroke-dasharray:none;stroke-opacity:1"
           id="path28" /></g><g
         id="g30"
         transform="matrix(1.33333,0,0,-1.33333,238.575,488.704)"><path
           d="m 0,0 v 5.893 c 0,1.457 -1.18,2.639 -2.633,2.639 -1.145,0 -2.115,-0.731 -2.479,-1.753 -0.624,0.429 -1.287,0.828 -1.981,1.196 v 2.421 c 0,1.908 -1.379,3.455 -3.078,3.455 -1.701,0 -3.078,-1.547 -3.078,-3.455 v -0.253 c -0.684,0.13 -1.361,0.235 -2.03,0.314 v 2.977 c 0,1.907 -1.379,3.452 -3.08,3.452 -1.7,0 -3.078,-1.545 -3.078,-3.452 v -3.042 c -0.7,-0.109 -1.378,-0.253 -2.032,-0.434 V 22.69 c 0,1.908 -1.377,3.455 -3.077,3.455 -1.7,0 -3.078,-1.547 -3.078,-3.455 V 4.84 c -0.189,-1.438 -0.744,-2.29 -1.702,-2.519 -0.01,-0.002 -0.021,-0.003 -0.03,-0.006 -3.954,1.359 -7.587,2.062 -8.913,0.745 -1.697,-1.691 0.562,-4.626 3.348,-6.84 l 8.796,-9.342 c 2.291,-3.354 5.807,-4.692 9.871,-5.07 0.201,-0.027 0.391,-0.043 0.572,-0.047 0.698,-0.049 1.408,-0.074 2.128,-0.076 1.921,-0.005 14.193,-0.825 15.577,16.554 C 0.105,-1.172 0.096,-0.583 0,0"
           style="fill:#ffffff;fill-opacity:1;fill-rule:nonzero;stroke:none"
           id="path32" /></g><g
         id="g34"
         transform="matrix(1.33333,0,0,-1.33333,238.575,488.704)"><path
           d="m 0,0 v 5.893 c 0,1.457 -1.18,2.639 -2.633,2.639 -1.145,0 -2.115,-0.731 -2.479,-1.753 -0.624,0.429 -1.287,0.828 -1.981,1.196 v 2.421 c 0,1.908 -1.379,3.455 -3.078,3.455 -1.701,0 -3.078,-1.547 -3.078,-3.455 v -0.253 c -0.684,0.13 -1.361,0.235 -2.03,0.314 v 2.977 c 0,1.907 -1.379,3.452 -3.08,3.452 -1.7,0 -3.078,-1.545 -3.078,-3.452 v -3.042 c -0.7,-0.109 -1.378,-0.253 -2.032,-0.434 V 22.69 c 0,1.908 -1.377,3.455 -3.077,3.455 -1.7,0 -3.078,-1.547 -3.078,-3.455 V 4.84 c -0.189,-1.438 -0.744,-2.29 -1.702,-2.519 -0.01,-0.002 -0.021,-0.003 -0.03,-0.006 -3.954,1.359 -7.587,2.062 -8.913,0.745 -1.697,-1.691 0.562,-4.626 3.348,-6.84 l 8.796,-9.342 c 2.291,-3.354 5.807,-4.692 9.871,-5.07 0.201,-0.027 0.391,-0.043 0.572,-0.047 0.698,-0.049 1.408,-0.074 2.128,-0.076 1.921,-0.005 14.193,-0.825 15.577,16.554 C 0.105,-1.172 0.096,-0.583 0,0 Z"
           style="fill:none;stroke:#231f20;stroke-width:1;stroke-linecap:butt;stroke-linejoin:miter;stroke-miterlimit:4;stroke-dasharray:none;stroke-opacity:1"
           id="path36" /></g><text
         transform="matrix(1.33333,0,0,1.33333,0,1344)"
         style="font-variant:normal;font-weight:normal;font-stretch:normal;font-size:10px;font-family:Tahoma;-inkscape-font-specification:Tahoma;writing-mode:lr-tb;fill:#231f20;fill-opacity:1;fill-rule:nonzero;stroke:none"
         id="text252"
         x="74.538101"
         y="-645.57129"><tspan
           x="74.538101 81.3181 86.7481 92.328102 97.858101 100.1481 105.4081 108.5381 111.8781 117.1281"
           y="-645.57129"
           id="tspan250">Double tap</tspan></text></g></g></svg>
