<?xml version="1.0" encoding="UTF-8" standalone="no"?>
<!-- Created with Inkscape (http://www.inkscape.org/) -->

<svg
   version="1.1"
   id="svg2"
   xml:space="preserve"
   width="289.86826"
   height="65.307564"
   viewBox="0 0 289.86826 65.307564"
   xmlns="http://www.w3.org/2000/svg"
   xmlns:svg="http://www.w3.org/2000/svg"><defs
     id="defs6" /><g
     id="layer6"
     style="display:inline"
     transform="translate(-411.74506,-448.28802)"><g
       id="g78"
       transform="matrix(1.33333,0,0,-1.33333,496.063,485.033)"><path
         d="m 0,0 c 0,-2.813 -2.277,-5.088 -5.086,-5.088 -2.809,0 -5.086,2.275 -5.086,5.088 0,2.809 2.277,5.084 5.086,5.084 C -2.277,5.084 0,2.809 0,0"
         style="fill:#211d1d;fill-opacity:1;fill-rule:nonzero;stroke:none"
         id="path80" /></g><g
       id="g82"
       transform="matrix(1.33333,0,0,-1.33333,496.063,485.033)"><path
         d="m 0,0 c 0,-2.813 -2.277,-5.088 -5.086,-5.088 -2.809,0 -5.086,2.275 -5.086,5.088 0,2.809 2.277,5.084 5.086,5.084 C -2.277,5.084 0,2.809 0,0"
         style="fill:#231f20;fill-opacity:1;fill-rule:nonzero;stroke:none"
         id="path84" /></g><g
       id="g86"
       transform="matrix(1.33333,0,0,-1.33333,496.063,485.033)"><path
         d="m 0,0 c 0,-2.813 -2.277,-5.088 -5.086,-5.088 -2.809,0 -5.086,2.275 -5.086,5.088 0,2.809 2.277,5.084 5.086,5.084 C -2.277,5.084 0,2.809 0,0 Z"
         style="fill:none;stroke:#231f20;stroke-width:1;stroke-linecap:butt;stroke-linejoin:miter;stroke-miterlimit:4;stroke-dasharray:none;stroke-opacity:1"
         id="path88" /></g><g
       id="g90"
       transform="matrix(1.33333,0,0,-1.33333,525.224,457.736)"><path
         d="M 0,0 -4.127,3.467 V 2.053 h -18.721 v -4.106 h 18.721 v -1.414 z"
         style="fill:#231f20;fill-opacity:1;fill-rule:nonzero;stroke:none"
         id="path92" /></g><g
       id="g94"
       transform="matrix(1.33333,0,0,-1.33333,525.224,457.736)"><path
         d="M 0,0 -4.127,3.467 V 2.053 h -18.721 v -4.106 h 18.721 v -1.414 z"
         style="fill:none;stroke:#231f20;stroke-width:1;stroke-linecap:butt;stroke-linejoin:miter;stroke-miterlimit:4;stroke-dasharray:none;stroke-opacity:1"
         id="path96" /></g><g
       id="g98"
       transform="matrix(1.33333,0,0,-1.33333,499.419,486.277)"><path
         d="m 0,0 c -0.012,-0.006 -0.021,-0.008 -0.033,-0.012 -2.735,0.446 -2.268,-3.445 0.574,-3.445 6.91,0 8.289,13.586 8.289,13.586 C 7.953,9.836 7.123,9.49 6.346,9.096 L 1.402,22.41 c -0.701,1.883 -2.625,2.903 -4.304,2.281 -1.678,-0.623 -2.471,-2.654 -1.774,-4.537 L 1.123,4.537 1.117,4.531 C 1.598,2.068 1.254,0.535 0,0"
         style="fill:#ffffff;fill-opacity:1;fill-rule:nonzero;stroke:none"
         id="path100" /></g><g
       id="g102"
       transform="matrix(1.33333,0,0,-1.33333,499.419,486.277)"><path
         d="m 0,0 c -0.012,-0.006 -0.021,-0.008 -0.033,-0.012 -2.735,0.446 -2.268,-3.445 0.574,-3.445 6.91,0 8.289,13.586 8.289,13.586 C 7.953,9.836 7.123,9.49 6.346,9.096 L 1.402,22.41 c -0.701,1.883 -2.625,2.903 -4.304,2.281 -1.678,-0.623 -2.471,-2.654 -1.774,-4.537 L 1.123,4.537 1.117,4.531 C 1.598,2.068 1.254,0.535 0,0 Z"
         style="fill:none;stroke:#211d1d;stroke-width:1;stroke-linecap:butt;stroke-linejoin:miter;stroke-miterlimit:4;stroke-dasharray:2, 2;stroke-dashoffset:0;stroke-opacity:1"
         id="path104" /></g><g
       id="g106"
       transform="matrix(1.33333,0,0,-1.33333,542.714,484.426)"><path
         d="m 0,0 v 5.77 c 0,1.535 -1.24,2.777 -2.773,2.777 -1.532,0 -2.772,-1.242 -2.772,-2.777 V 5.602 c -0.293,0.181 -0.592,0.355 -0.896,0.523 v 2.846 c 0,2.008 -1.452,3.636 -3.241,3.636 -1.791,0 -3.24,-1.628 -3.24,-3.636 V 8.523 c -0.082,0.018 -0.164,0.034 -0.244,0.051 -0.291,0.057 -0.58,0.106 -0.869,0.155 v 2.584 c 0,2.009 -1.449,3.636 -3.24,3.636 -1.789,0 -3.241,-1.627 -3.241,-3.636 V 9.018 c -0.625,-0.055 -0.722,-0.137 -1.32,-0.243 l 3.037,10.916 c 0.621,1.911 -0.256,3.907 -1.957,4.463 -1.703,0.551 -3.586,-0.55 -4.205,-2.457 L -29.027,7.086 -30.82,0.521 c -0.141,-0.068 -1.315,-0.126 -1.477,-0.164 -0.01,0 -0.021,-0.003 -0.029,-0.007 -4.164,1.431 -7.988,2.17 -9.383,0.785 -1.787,-1.781 0.59,-4.871 3.523,-7.199 l 9.26,-9.838 c 2.412,-3.53 6.113,-4.94 10.397,-5.338 0.209,-0.028 0.406,-0.045 0.597,-0.049 0.733,-0.053 1.481,-0.076 2.243,-0.078 2.019,-0.008 14.939,-0.869 16.398,17.428 C 0.898,-2.605 0.625,-1.273 0,0"
         style="fill:#ffffff;fill-opacity:1;fill-rule:nonzero;stroke:#231f20;stroke-width:1;stroke-linecap:butt;stroke-linejoin:miter;stroke-miterlimit:4;stroke-dasharray:none;stroke-opacity:1"
         id="path108" /></g><g
       id="g110"
       transform="matrix(1.33333,0,0,-1.33333,542.714,484.426)"><path
         d="m 0,0 v 5.77 c 0,1.535 -1.24,2.777 -2.773,2.777 -1.532,0 -2.772,-1.242 -2.772,-2.777 V 5.602 c -0.293,0.181 -0.592,0.355 -0.896,0.523 v 2.846 c 0,2.008 -1.452,3.636 -3.241,3.636 -1.791,0 -3.24,-1.628 -3.24,-3.636 V 8.523 c -0.082,0.018 -0.164,0.034 -0.244,0.051 -0.291,0.057 -0.58,0.106 -0.869,0.155 v 2.584 c 0,2.009 -1.449,3.636 -3.24,3.636 -1.789,0 -3.241,-1.627 -3.241,-3.636 V 9.018 c -0.625,-0.055 -0.722,-0.137 -1.32,-0.243 l 3.037,10.916 c 0.621,1.911 -0.256,3.907 -1.957,4.463 -1.703,0.551 -3.586,-0.55 -4.205,-2.457 L -29.027,7.086 -30.82,0.521 c -0.141,-0.068 -1.315,-0.126 -1.477,-0.164 -0.01,0 -0.021,-0.003 -0.029,-0.007 -4.164,1.431 -7.988,2.17 -9.383,0.785 -1.787,-1.781 0.59,-4.871 3.523,-7.199 l 9.26,-9.838 c 2.412,-3.53 6.113,-4.94 10.397,-5.338 0.209,-0.028 0.406,-0.045 0.597,-0.049 0.733,-0.053 1.481,-0.076 2.243,-0.078 2.019,-0.008 14.939,-0.869 16.398,17.428 C 0.898,-2.605 0.625,-1.273 0,0 Z"
         style="fill:none;stroke:#211d1d;stroke-width:1;stroke-linecap:butt;stroke-linejoin:miter;stroke-miterlimit:4;stroke-dasharray:none;stroke-opacity:1"
         id="path112" /></g><g
       id="g114"
       transform="matrix(1.33333,0,0,-1.33333,645.078,484.874)"><path
         d="M 0,0 V 4.891 18.723 H 1.416 L -2.051,22.85 -5.52,18.723 h 1.416 V 4.891 0 -13.832 H -5.52 l 3.469,-4.125 3.467,4.125 H 0 Z"
         style="fill:#231f20;fill-opacity:1;fill-rule:nonzero;stroke:none"
         id="path116" /></g><g
       id="g118"
       transform="matrix(1.33333,0,0,-1.33333,645.078,484.874)"><path
         d="M 0,0 V 4.891 18.723 H 1.416 L -2.051,22.85 -5.52,18.723 h 1.416 V 4.891 0 -13.832 H -5.52 l 3.469,-4.125 3.467,4.125 H 0 Z"
         style="fill:none;stroke:#231f20;stroke-width:1;stroke-linecap:butt;stroke-linejoin:miter;stroke-miterlimit:4;stroke-dasharray:none;stroke-opacity:1"
         id="path120" /></g><g
       id="g122"
       transform="matrix(1.33333,0,0,-1.33333,687.786,471.111)"><path
         d="M 0,0 -4.412,4.383 C -5.469,5.434 -7.18,5.428 -8.227,4.371 -9.275,3.316 -9.268,1.607 -8.209,0.561 l 0.949,-0.946 c -0.554,-0.154 -1.109,-0.332 -1.662,-0.537 l -2.164,2.049 c -1.418,1.342 -3.533,1.404 -4.73,0.143 -1.194,-1.264 -1.016,-3.377 0.4,-4.719 l 0.674,-0.635 c -0.434,-0.322 -0.85,-0.652 -1.252,-0.988 l -2.401,2.269 c -1.416,1.344 -3.535,1.407 -4.73,0.143 -1.195,-1.264 -1.014,-3.375 0.402,-4.715 l 2.448,-2.316 c -0.414,-0.596 -0.782,-1.205 -1.108,-1.815 l -9.461,8.953 c -1.416,1.342 -3.535,1.405 -4.73,0.143 -1.196,-1.264 -1.016,-3.375 0.402,-4.715 l 13.264,-12.555 c 0.937,-1.15 1.178,-2.164 0.674,-3.035 -0.006,-0.008 -0.01,-0.015 -0.018,-0.027 -3.787,-1.983 -6.865,-4.188 -6.818,-6.1 0.062,-2.447 3.832,-2.834 7.435,-2.322 l 13.127,-0.033 c 4.104,-0.657 7.571,1.015 10.711,3.769 0.158,0.131 0.305,0.26 0.436,0.393 0.525,0.482 1.043,0.994 1.55,1.527 1.356,1.424 10.594,9.963 -1.345,23.217 C 2.91,-1.119 1.574,-0.373 0,0"
         style="fill:#ffffff;fill-opacity:1;fill-rule:nonzero;stroke:#231f20;stroke-width:1;stroke-linecap:butt;stroke-linejoin:miter;stroke-miterlimit:4;stroke-dasharray:none;stroke-opacity:1"
         id="path124" /></g><g
       id="g126"
       transform="matrix(1.33333,0,0,-1.33333,687.786,471.111)"><path
         d="M 0,0 -4.412,4.383 C -5.469,5.434 -7.18,5.428 -8.227,4.371 -9.275,3.316 -9.268,1.607 -8.209,0.561 l 0.949,-0.946 c -0.554,-0.154 -1.109,-0.332 -1.662,-0.537 l -2.164,2.049 c -1.418,1.342 -3.533,1.404 -4.73,0.143 -1.194,-1.264 -1.016,-3.377 0.4,-4.719 l 0.674,-0.635 c -0.434,-0.322 -0.85,-0.652 -1.252,-0.988 l -2.401,2.269 c -1.416,1.344 -3.535,1.407 -4.73,0.143 -1.195,-1.264 -1.014,-3.375 0.402,-4.715 l 2.448,-2.316 c -0.414,-0.596 -0.782,-1.205 -1.108,-1.815 l -9.461,8.953 c -1.416,1.342 -3.535,1.405 -4.73,0.143 -1.196,-1.264 -1.016,-3.375 0.402,-4.715 l 13.264,-12.555 c 0.937,-1.15 1.178,-2.164 0.674,-3.035 -0.006,-0.008 -0.01,-0.015 -0.018,-0.027 -3.787,-1.983 -6.865,-4.188 -6.818,-6.1 0.062,-2.447 3.832,-2.834 7.435,-2.322 l 13.127,-0.033 c 4.104,-0.657 7.571,1.015 10.711,3.769 0.158,0.131 0.305,0.26 0.436,0.393 0.525,0.482 1.043,0.994 1.55,1.527 1.356,1.424 10.594,9.963 -1.345,23.217 C 2.91,-1.119 1.574,-0.373 0,0 Z"
         style="fill:none;stroke:#211d1d;stroke-width:1;stroke-linecap:butt;stroke-linejoin:miter;stroke-miterlimit:4;stroke-dasharray:none;stroke-opacity:1"
         id="path128" /></g><g
       id="g130"
       transform="matrix(1.33333,0,0,-1.33333,619.094,455.736)"><path
         d="m 0,0 c 0,-2.809 -2.277,-5.086 -5.086,-5.086 -2.809,0 -5.084,2.277 -5.084,5.086 0,2.809 2.275,5.086 5.084,5.086 C -2.277,5.086 0,2.809 0,0"
         style="fill:#211d1d;fill-opacity:1;fill-rule:nonzero;stroke:none"
         id="path132" /></g><g
       id="g134"
       transform="matrix(1.33333,0,0,-1.33333,619.094,455.736)"><path
         d="m 0,0 c 0,-2.809 -2.277,-5.086 -5.086,-5.086 -2.809,0 -5.084,2.277 -5.084,5.086 0,2.809 2.275,5.086 5.084,5.086 C -2.277,5.086 0,2.809 0,0"
         style="fill:#231f20;fill-opacity:1;fill-rule:nonzero;stroke:none"
         id="path136" /></g><g
       id="g138"
       transform="matrix(1.33333,0,0,-1.33333,619.094,455.736)"><path
         d="m 0,0 c 0,-2.809 -2.277,-5.086 -5.086,-5.086 -2.809,0 -5.084,2.277 -5.084,5.086 0,2.809 2.275,5.086 5.084,5.086 C -2.277,5.086 0,2.809 0,0 Z"
         style="fill:none;stroke:#231f20;stroke-width:1;stroke-linecap:butt;stroke-linejoin:miter;stroke-miterlimit:4;stroke-dasharray:none;stroke-opacity:1"
         id="path140" /></g><g
       id="g142"
       transform="matrix(1.33333,0,0,-1.33333,577.651,484.491)"><path
         d="M 0,0 -0.141,6.217 C -0.176,7.709 1.004,8.945 2.492,8.98 3.98,9.012 5.213,7.83 5.246,6.342 L 5.279,5.002 C 5.771,5.299 6.281,5.578 6.811,5.84 l 0.003,2.978 c 0,1.952 1.415,3.534 3.153,3.532 1.738,-0.002 3.146,-1.586 3.144,-3.537 L 13.109,7.887 c 0.532,0.093 1.059,0.166 1.579,0.226 l 0.005,3.303 c 0.002,1.953 1.414,3.533 3.155,3.531 1.738,0 3.144,-1.588 3.142,-3.537 L 20.986,8.043 c 0.717,-0.113 1.41,-0.262 2.078,-0.449 l 0.016,13.025 c 0.004,1.955 1.414,3.533 3.152,3.531 1.739,-0.002 3.147,-1.586 3.145,-3.535 L 29.355,2.354 c 0.192,-1.473 0.76,-2.346 1.739,-2.581 0.01,-0.002 0.019,-0.003 0.031,-0.005 4.049,1.382 7.766,2.099 9.119,0.75 1.735,-1.731 -0.578,-4.731 -3.431,-6.995 l -9.01,-9.544 v -0.002 c -2.348,-3.428 -5.949,-4.791 -10.108,-5.176 -0.205,-0.026 -0.396,-0.041 -0.584,-0.047 -0.711,-0.049 -1.437,-0.072 -2.175,-0.072 C 12.971,-21.324 0.416,-22.146 -0.98,-4.363 -1.189,-2.879 -0.809,-1.396 0,0"
         style="fill:#ffffff;fill-opacity:1;fill-rule:nonzero;stroke:#231f20;stroke-width:1;stroke-linecap:butt;stroke-linejoin:miter;stroke-miterlimit:4;stroke-dasharray:none;stroke-opacity:1"
         id="path144" /></g><g
       id="g146"
       transform="matrix(1.33333,0,0,-1.33333,577.651,484.491)"><path
         d="M 0,0 -0.141,6.217 C -0.176,7.709 1.004,8.945 2.492,8.98 3.98,9.012 5.213,7.83 5.246,6.342 L 5.279,5.002 C 5.771,5.299 6.281,5.578 6.811,5.84 l 0.003,2.978 c 0,1.952 1.415,3.534 3.153,3.532 1.738,-0.002 3.146,-1.586 3.144,-3.537 L 13.109,7.887 c 0.532,0.093 1.059,0.166 1.579,0.226 l 0.005,3.303 c 0.002,1.953 1.414,3.533 3.155,3.531 1.738,0 3.144,-1.588 3.142,-3.537 L 20.986,8.043 c 0.717,-0.113 1.41,-0.262 2.078,-0.449 l 0.016,13.025 c 0.004,1.955 1.414,3.533 3.152,3.531 1.739,-0.002 3.147,-1.586 3.145,-3.535 L 29.355,2.354 c 0.192,-1.473 0.76,-2.346 1.739,-2.581 0.01,-0.002 0.019,-0.003 0.031,-0.005 4.049,1.382 7.766,2.099 9.119,0.75 1.735,-1.731 -0.578,-4.731 -3.431,-6.995 l -9.01,-9.544 v -0.002 c -2.348,-3.428 -5.949,-4.791 -10.108,-5.176 -0.205,-0.026 -0.396,-0.041 -0.584,-0.047 -0.711,-0.049 -1.437,-0.072 -2.175,-0.072 C 12.971,-21.324 0.416,-22.146 -0.98,-4.363 -1.189,-2.879 -0.809,-1.396 0,0 Z"
         style="fill:none;stroke:#211d1d;stroke-width:1;stroke-linecap:butt;stroke-linejoin:miter;stroke-miterlimit:4;stroke-dasharray:none;stroke-opacity:1"
         id="path148" /></g><text
       transform="matrix(1.33333,0,0,1.33333,0,1344)"
       style="font-variant:normal;font-weight:normal;font-stretch:normal;font-size:10px;font-family:Tahoma;-inkscape-font-specification:Tahoma;writing-mode:lr-tb;fill:#231f20;fill-opacity:1;fill-rule:nonzero;stroke:none"
       id="text276"
       x="308.25781"
       y="-656.05859"><tspan
         x="308.25781 313.76779 317.3378 322.59781 327.0578"
         y="-656.05859"
         id="tspan270">Press</tspan><tspan
         x="308.25781 313.50781 319.0878 324.6178"
         y="-644.05859"
         id="tspan272">and </tspan><tspan
         x="308.25781 313.78781 317.38779 322.63779"
         y="-632.05859"
         id="tspan274">drag</tspan></text></g></svg>
