<?xml version="1.0" encoding="UTF-8" standalone="no"?>
<!-- Created with Inkscape (http://www.inkscape.org/) -->

<svg
   version="1.1"
   id="svg2"
   xml:space="preserve"
   width="201.10637"
   height="63.467255"
   viewBox="0 0 201.10637 63.467255"
   xmlns="http://www.w3.org/2000/svg"
   xmlns:svg="http://www.w3.org/2000/svg"><defs
     id="defs6" /><g
     id="layer7"
     style="display:inline"
     transform="translate(-100.11956,-538.94134)"><g
       id="g300"
       transform="matrix(1.33333,0,0,-1.33333,284.853,543.564)"><path
         d="M 0,0 -4.126,3.467 V 2.052 h -53.28 v -4.104 h 53.28 v -1.414 z"
         style="fill:#231f20;fill-opacity:1;fill-rule:nonzero;stroke:none"
         id="path302" /></g><g
       id="g308"
       transform="matrix(1.33333,0,0,-1.33333,237.635,581.048)"><path
         d="M 0,0 1.109,5.788 C 1.383,7.22 0.446,8.602 -0.98,8.875 -2.105,9.09 -3.196,8.554 -3.746,7.621 -4.278,8.158 -4.854,8.675 -5.466,9.166 l 0.455,2.379 c 0.36,1.874 -0.705,3.652 -2.374,3.971 -1.671,0.32 -3.314,-0.94 -3.673,-2.813 l -0.046,-0.25 c -0.647,0.257 -1.293,0.486 -1.936,0.69 l 0.56,2.923 c 0.358,1.874 -0.706,3.652 -2.376,3.971 -1.669,0.319 -3.313,-0.939 -3.671,-2.812 L -19.1,14.237 c -0.708,0.025 -1.402,0.011 -2.077,-0.045 l 2.394,12.506 c 0.359,1.874 -0.703,3.651 -2.374,3.971 -1.669,0.319 -3.313,-0.94 -3.671,-2.815 l -3.357,-17.531 c -0.455,-1.376 -1.161,-2.108 -2.146,-2.154 -0.009,0 -0.02,10e-4 -0.029,10e-4 -3.628,2.077 -7.065,3.451 -8.614,2.406 -1.985,-1.342 -0.318,-4.65 2.002,-7.347 l 6.882,-10.828 c 1.621,-3.724 4.821,-5.702 8.742,-6.837 0.193,-0.063 0.376,-0.115 0.553,-0.153 0.676,-0.179 1.369,-0.338 2.075,-0.474 1.887,-0.366 13.785,-3.48 18.412,13.33 C -0.115,-1.171 -0.015,-0.59 0,0"
         style="fill:#ffffff;fill-opacity:1;fill-rule:nonzero;stroke:none"
         id="path310" /></g><g
       id="g312"
       transform="matrix(1.33333,0,0,-1.33333,237.635,581.048)"><path
         d="M 0,0 1.109,5.788 C 1.383,7.22 0.446,8.602 -0.98,8.875 -2.105,9.09 -3.196,8.554 -3.746,7.621 -4.278,8.158 -4.854,8.675 -5.466,9.166 l 0.455,2.379 c 0.36,1.874 -0.705,3.652 -2.374,3.971 -1.671,0.32 -3.314,-0.94 -3.673,-2.813 l -0.046,-0.25 c -0.647,0.257 -1.293,0.486 -1.936,0.69 l 0.56,2.923 c 0.358,1.874 -0.706,3.652 -2.376,3.971 -1.669,0.319 -3.313,-0.939 -3.671,-2.812 L -19.1,14.237 c -0.708,0.025 -1.402,0.011 -2.077,-0.045 l 2.394,12.506 c 0.359,1.874 -0.703,3.651 -2.374,3.971 -1.669,0.319 -3.313,-0.94 -3.671,-2.815 l -3.357,-17.531 c -0.455,-1.376 -1.161,-2.108 -2.146,-2.154 -0.009,0 -0.02,10e-4 -0.029,10e-4 -3.628,2.077 -7.065,3.451 -8.614,2.406 -1.985,-1.342 -0.318,-4.65 2.002,-7.347 l 6.882,-10.828 c 1.621,-3.724 4.821,-5.702 8.742,-6.837 0.193,-0.063 0.376,-0.115 0.553,-0.153 0.676,-0.179 1.369,-0.338 2.075,-0.474 1.887,-0.366 13.785,-3.48 18.412,13.33 C -0.115,-1.171 -0.015,-0.59 0,0 Z"
         style="fill:none;stroke:#231f20;stroke-width:1;stroke-linecap:butt;stroke-linejoin:miter;stroke-miterlimit:4;stroke-dasharray:none;stroke-opacity:1"
         id="path314" /></g><g
       id="g316"
       transform="matrix(1.33333,0,0,-1.33333,299.019,581.048)"><path
         d="M 0,0 1.108,5.788 C 1.382,7.22 0.446,8.602 -0.981,8.875 -2.106,9.09 -3.197,8.554 -3.746,7.621 -4.279,8.158 -4.854,8.675 -5.466,9.166 l 0.454,2.379 c 0.359,1.874 -0.704,3.652 -2.374,3.971 -1.671,0.32 -3.314,-0.94 -3.673,-2.813 l -0.045,-0.25 c -0.647,0.257 -1.293,0.486 -1.936,0.69 l 0.559,2.923 c 0.359,1.874 -0.707,3.652 -2.375,3.971 -1.67,0.319 -3.315,-0.939 -3.672,-2.812 l -0.573,-2.988 c -0.708,0.025 -1.402,0.011 -2.077,-0.045 l 2.395,12.506 c 0.358,1.874 -0.705,3.651 -2.374,3.971 -1.67,0.319 -3.315,-0.94 -3.671,-2.815 l -3.358,-17.531 c -0.454,-1.376 -1.16,-2.108 -2.145,-2.154 -0.01,0 -0.021,10e-4 -0.03,10e-4 -3.628,2.077 -7.066,3.451 -8.613,2.406 -1.987,-1.342 -0.319,-4.65 2.001,-7.347 l 6.882,-10.828 c 1.621,-3.724 4.821,-5.7 8.743,-6.835 0.193,-0.065 0.376,-0.117 0.553,-0.154 0.675,-0.18 1.369,-0.337 2.075,-0.475 1.887,-0.366 13.785,-3.478 18.411,13.33 C -0.117,-1.171 -0.015,-0.59 0,0"
         style="fill:#ffffff;fill-opacity:1;fill-rule:nonzero;stroke:none"
         id="path318" /></g><g
       id="g320"
       transform="matrix(1.33333,0,0,-1.33333,299.019,581.048)"><path
         d="M 0,0 1.108,5.788 C 1.382,7.22 0.446,8.602 -0.981,8.875 -2.106,9.09 -3.197,8.554 -3.746,7.621 -4.279,8.158 -4.854,8.675 -5.466,9.166 l 0.454,2.379 c 0.359,1.874 -0.704,3.652 -2.374,3.971 -1.671,0.32 -3.314,-0.94 -3.673,-2.813 l -0.045,-0.25 c -0.647,0.257 -1.293,0.486 -1.936,0.69 l 0.559,2.923 c 0.359,1.874 -0.707,3.652 -2.375,3.971 -1.67,0.319 -3.315,-0.939 -3.672,-2.812 l -0.573,-2.988 c -0.708,0.025 -1.402,0.011 -2.077,-0.045 l 2.395,12.506 c 0.358,1.874 -0.705,3.651 -2.374,3.971 -1.67,0.319 -3.315,-0.94 -3.671,-2.815 l -3.358,-17.531 c -0.454,-1.376 -1.16,-2.108 -2.145,-2.154 -0.01,0 -0.021,10e-4 -0.03,10e-4 -3.628,2.077 -7.066,3.451 -8.613,2.406 -1.987,-1.342 -0.319,-4.65 2.001,-7.347 l 6.882,-10.828 c 1.621,-3.724 4.821,-5.7 8.743,-6.835 0.193,-0.065 0.376,-0.117 0.553,-0.154 0.675,-0.18 1.369,-0.337 2.075,-0.475 1.887,-0.366 13.785,-3.478 18.411,13.33 C -0.117,-1.171 -0.015,-0.59 0,0 Z"
         style="fill:none;stroke:#231f20;stroke-width:1;stroke-linecap:butt;stroke-linejoin:miter;stroke-miterlimit:4;stroke-dasharray:none;stroke-opacity:1"
         id="path322" /></g><text
       transform="matrix(1.33333,0,0,1.33333,0,1344)"
       style="font-variant:normal;font-weight:normal;font-stretch:normal;font-size:10px;font-family:Tahoma;-inkscape-font-specification:Tahoma;writing-mode:lr-tb;fill:#231f20;fill-opacity:1;fill-rule:nonzero;stroke:none"
       id="text22420"
       x="74.108414"
       y="-254.93359"><tspan
         x="74.108414 80.888412 84.328415 89.578415 95.108414"
         y="-579.33362"
         id="tspan22418">Drag </tspan></text></g></svg>
