<?xml version="1.0" encoding="UTF-8" standalone="no"?>
<!-- Created with Inkscape (http://www.inkscape.org/) -->

<svg
   version="1.1"
   id="svg2"
   xml:space="preserve"
   width="260.31354"
   height="71.339279"
   viewBox="0 0 260.31354 71.339281"
   xmlns="http://www.w3.org/2000/svg"
   xmlns:svg="http://www.w3.org/2000/svg"><defs
     id="defs6" /><g
     id="layer8"
     transform="translate(-411.36746,-536.70222)"
     style="display:inline"><g
       id="g92955"><text
         transform="matrix(1.33333,0,0,1.33333,0,1344)"
         style="font-variant:normal;font-weight:normal;font-stretch:normal;font-size:10px;font-family:Tahoma;-inkscape-font-specification:Tahoma;writing-mode:lr-tb;fill:#231f20;fill-opacity:1;fill-rule:nonzero;stroke:none"
         id="text330"
         x="308.25781"
         y="-585.95898"><tspan
           x="308.25781 313.76779 317.3378 322.59781 327.0578"
           y="-585.95898"
           id="tspan324">Press</tspan><tspan
           x="308.25781 313.50781 319.0878 324.6178 327.7478 331.0878 336.3378 341.8678"
           y="-573.95898"
           id="tspan326">and tap,</tspan><tspan
           x="308.25781 311.59781 317.1778 322.43781 328.01779 331.1478 336.6778 340.2778 345.5278"
           y="-561.95898"
           id="tspan328">then drag</tspan></text><g
         id="g332"
         transform="matrix(1.33333,0,0,-1.33333,506.78,555.269)"><path
           d="m 0,0 c 0,-2.814 -2.279,-5.092 -5.092,-5.092 -2.81,0 -5.09,2.278 -5.09,5.092 0,2.811 2.28,5.09 5.09,5.09 C -2.279,5.09 0,2.811 0,0"
           style="fill:#211d1d;fill-opacity:1;fill-rule:nonzero;stroke:none"
           id="path334" /></g><g
         id="g336"
         transform="matrix(1.33333,0,0,-1.33333,506.78,555.269)"><path
           d="m 0,0 c 0,-2.814 -2.279,-5.092 -5.092,-5.092 -2.81,0 -5.09,2.278 -5.09,5.092 0,2.811 2.28,5.09 5.09,5.09 C -2.279,5.09 0,2.811 0,0 Z"
           style="fill:none;stroke:#211d1d;stroke-width:1;stroke-linecap:butt;stroke-linejoin:miter;stroke-miterlimit:4;stroke-dasharray:none;stroke-opacity:1"
           id="path338" /></g><g
         id="g340"
         transform="matrix(1.33333,0,0,-1.33333,523.878,545.603)"><path
           d="m 0,0 c 0,-2.814 -2.276,-5.094 -5.09,-5.094 -2.809,0 -5.091,2.28 -5.091,5.094 0,2.811 2.282,5.088 5.091,5.088 C -2.276,5.088 0,2.811 0,0"
           style="fill:#ffffff;fill-opacity:1;fill-rule:nonzero;stroke:none"
           id="path342" /></g><g
         id="g344"
         transform="matrix(1.33333,0,0,-1.33333,523.878,545.603)"><path
           d="m 0,0 c 0,-2.814 -2.276,-5.094 -5.09,-5.094 -2.809,0 -5.091,2.28 -5.091,5.094 0,2.811 2.282,5.088 5.091,5.088 C -2.276,5.088 0,2.811 0,0 Z"
           style="fill:none;stroke:#211d1d;stroke-width:1;stroke-linecap:butt;stroke-linejoin:miter;stroke-miterlimit:4;stroke-dasharray:2, 2;stroke-dashoffset:0;stroke-opacity:1"
           id="path346" /></g><g
         id="g348"
         transform="matrix(1.33333,0,0,-1.33333,537.721,556.923)"><path
           d="m 0,0 c 0,-2.813 -2.278,-5.092 -5.09,-5.092 -2.811,0 -5.091,2.279 -5.091,5.092 0,2.811 2.28,5.09 5.091,5.09 C -2.278,5.09 0,2.811 0,0"
           style="fill:#ffffff;fill-opacity:1;fill-rule:nonzero;stroke:none"
           id="path350" /></g><g
         id="g352"
         transform="matrix(1.33333,0,0,-1.33333,537.721,556.923)"><path
           d="m 0,0 c 0,-2.813 -2.278,-5.092 -5.09,-5.092 -2.811,0 -5.091,2.279 -5.091,5.092 0,2.811 2.28,5.09 5.091,5.09 C -2.278,5.09 0,2.811 0,0 Z"
           style="fill:none;stroke:#211d1d;stroke-width:1;stroke-linecap:butt;stroke-linejoin:miter;stroke-miterlimit:4;stroke-dasharray:2, 2;stroke-dashoffset:0;stroke-opacity:1"
           id="path354" /></g><g
         id="g356"
         transform="matrix(1.33333,0,0,-1.33333,539.448,580.228)"><path
           d="m 0,0 v 4.291 c 0,1.398 -1.132,2.533 -2.528,2.533 -1.316,0 -2.396,-1.004 -2.517,-2.289 -0.215,0.123 -0.434,0.246 -0.656,0.363 v 2.43 c 0,1.83 -1.323,3.315 -2.957,3.315 -1.632,0 -2.956,-1.485 -2.956,-3.315 V 6.98 c -0.698,0.133 -1.385,0.237 -2.067,0.315 l -0.386,14.799 c -0.047,1.83 -1.411,3.281 -3.041,3.238 -1.633,-0.041 -2.918,-1.561 -2.87,-3.393 l 0.384,-14.738 c -0.917,-0.146 -1.794,-0.359 -2.623,-0.638 l -4.157,12.892 c -0.564,1.744 -2.277,2.752 -3.831,2.25 -1.554,-0.5 -2.358,-2.32 -1.796,-4.064 l 4.73,-14.668 c -0.016,-2.043 -0.566,-3.233 -1.705,-3.506 -0.007,0 -0.02,-0.002 -0.028,-0.004 -3.799,1.303 -7.288,1.98 -8.559,0.713 -1.631,-1.621 0.537,-4.442 3.214,-6.569 l 8.448,-8.972 c 2.201,-3.221 5.576,-4.506 9.483,-4.869 0.19,-0.026 0.372,-0.041 0.547,-0.045 0.668,-0.047 1.35,-0.071 2.043,-0.073 1.847,-0.007 13.634,-0.793 14.964,15.901 C 1.351,-2.932 0.908,-1.416 0,0"
           style="fill:#ffffff;fill-opacity:1;fill-rule:nonzero;stroke:none"
           id="path358" /></g><g
         id="g360"
         transform="matrix(1.33333,0,0,-1.33333,539.448,580.228)"><path
           d="m 0,0 v 4.291 c 0,1.398 -1.132,2.533 -2.528,2.533 -1.316,0 -2.396,-1.004 -2.517,-2.289 -0.215,0.123 -0.434,0.246 -0.656,0.363 v 2.43 c 0,1.83 -1.323,3.315 -2.957,3.315 -1.632,0 -2.956,-1.485 -2.956,-3.315 V 6.98 c -0.698,0.133 -1.385,0.237 -2.067,0.315 l -0.386,14.799 c -0.047,1.83 -1.411,3.281 -3.041,3.238 -1.633,-0.041 -2.918,-1.561 -2.87,-3.393 l 0.384,-14.738 c -0.917,-0.146 -1.794,-0.359 -2.623,-0.638 l -4.157,12.892 c -0.564,1.744 -2.277,2.752 -3.831,2.25 -1.554,-0.5 -2.358,-2.32 -1.796,-4.064 l 4.73,-14.668 c -0.016,-2.043 -0.566,-3.233 -1.705,-3.506 -0.007,0 -0.02,-0.002 -0.028,-0.004 -3.799,1.303 -7.288,1.98 -8.559,0.713 -1.631,-1.621 0.537,-4.442 3.214,-6.569 l 8.448,-8.972 c 2.201,-3.221 5.576,-4.506 9.483,-4.869 0.19,-0.026 0.372,-0.041 0.547,-0.045 0.668,-0.047 1.35,-0.071 2.043,-0.073 1.847,-0.007 13.634,-0.793 14.964,15.901 C 1.351,-2.932 0.908,-1.416 0,0 Z"
           style="fill:none;stroke:#211d1d;stroke-width:1;stroke-linecap:butt;stroke-linejoin:miter;stroke-miterlimit:4;stroke-dasharray:none;stroke-opacity:1"
           id="path362" /></g><g
         id="g364"
         transform="matrix(1.33333,0,0,-1.33333,658.557,543.954)"><path
           d="M 0,0 -5.19,4.365 V 2.584 h -42.123 c -0.748,0.914 -1.883,1.496 -3.157,1.496 -2.25,0 -4.076,-1.826 -4.076,-4.078 0,-2.252 1.826,-4.078 4.076,-4.078 1.272,0 2.409,0.582 3.156,1.494 H -5.19 v -1.777 z"
           style="fill:#211d1d;fill-opacity:1;fill-rule:nonzero;stroke:none"
           id="path366" /></g><g
         id="g368"
         transform="matrix(1.33333,0,0,-1.33333,658.557,543.954)"><path
           d="M 0,0 -5.19,4.365 V 2.584 h -42.123 c -0.748,0.914 -1.883,1.496 -3.157,1.496 -2.25,0 -4.076,-1.826 -4.076,-4.078 0,-2.252 1.826,-4.078 4.076,-4.078 1.272,0 2.409,0.582 3.156,1.494 H -5.19 v -1.777 z"
           style="fill:none;stroke:#211d1d;stroke-width:1;stroke-linecap:butt;stroke-linejoin:miter;stroke-miterlimit:4;stroke-dasharray:none;stroke-opacity:1"
           id="path370" /></g><g
         id="g372"
         transform="matrix(1.33333,0,0,-1.33333,671.681,561.59)"><path
           d="M 0,0 -5.19,4.363 V 2.584 H -47 c -0.749,0.912 -1.885,1.496 -3.158,1.496 -2.252,0 -4.078,-1.824 -4.078,-4.078 0,-2.252 1.826,-4.078 4.078,-4.078 1.272,0 2.407,0.584 3.154,1.494 H -5.19 v -1.779 z"
           style="fill:#110f0d;fill-opacity:1;fill-rule:nonzero;stroke:none"
           id="path374" /></g><g
         id="g376"
         transform="matrix(1.33333,0,0,-1.33333,638.035,552.79)"><path
           d="M 0,0 -5.189,4.363 V 2.582 h -42.124 c -0.748,0.912 -1.883,1.496 -3.156,1.496 -2.252,0 -4.077,-1.826 -4.077,-4.076 0,-2.254 1.825,-4.08 4.077,-4.08 1.273,0 2.406,0.584 3.155,1.496 h 42.125 v -1.779 z"
           style="fill:#110f0d;fill-opacity:1;fill-rule:nonzero;stroke:none"
           id="path378" /></g><g
         id="g380"
         transform="matrix(1.33333,0,0,-1.33333,610.492,580.374)"><path
           d="M 0,0 0.038,4.289 C 0.052,5.688 -1.07,6.834 -2.467,6.846 -3.782,6.857 -4.872,5.863 -5.005,4.58 -5.22,4.705 -5.437,4.828 -5.657,4.949 l 0.022,2.428 c 0.016,1.832 -1.296,3.328 -2.927,3.346 -1.632,0.013 -2.969,-1.461 -2.987,-3.291 l -0.003,-0.348 c -0.694,0.139 -1.382,0.25 -2.062,0.334 l -0.365,2.391 c -0.032,1.832 -1.381,3.295 -3.013,3.267 -1.632,-0.027 -2.932,-1.535 -2.9,-3.367 l 0.364,-2.33 C -20.446,7.24 -21.325,7.033 -22.156,6.764 l -4.04,12.929 c -0.546,1.75 -2.253,2.772 -3.812,2.286 -1.557,-0.487 -2.379,-2.299 -1.832,-4.049 l 4.595,-14.711 c -0.034,-2.041 -0.594,-3.227 -1.734,-3.487 -0.01,-0.003 -0.02,-0.005 -0.03,-0.007 -3.785,1.338 -7.269,2.046 -8.554,0.793 -1.644,-1.608 0.5,-4.448 3.156,-6.598 l 8.366,-9.049 -0.001,-0.002 c 2.173,-3.238 5.537,-4.557 9.438,-4.955 0.193,-0.027 0.375,-0.045 0.549,-0.049 0.667,-0.054 1.35,-0.082 2.042,-0.092 1.844,-0.023 13.623,-0.916 15.106,15.764 C 1.322,-2.945 0.896,-1.424 0,0"
           style="fill:#ffffff;fill-opacity:1;fill-rule:nonzero;stroke:none"
           id="path382" /></g><g
         id="g384"
         transform="matrix(1.33333,0,0,-1.33333,610.492,580.374)"><path
           d="M 0,0 0.038,4.289 C 0.052,5.688 -1.07,6.834 -2.467,6.846 -3.782,6.857 -4.872,5.863 -5.005,4.58 -5.22,4.705 -5.437,4.828 -5.657,4.949 l 0.022,2.428 c 0.016,1.832 -1.296,3.328 -2.927,3.346 -1.632,0.013 -2.969,-1.461 -2.987,-3.291 l -0.003,-0.348 c -0.694,0.139 -1.382,0.25 -2.062,0.334 l -0.365,2.391 c -0.032,1.832 -1.381,3.295 -3.013,3.267 -1.632,-0.027 -2.932,-1.535 -2.9,-3.367 l 0.364,-2.33 C -20.446,7.24 -21.325,7.033 -22.156,6.764 l -4.04,12.929 c -0.546,1.75 -2.253,2.772 -3.812,2.286 -1.557,-0.487 -2.379,-2.299 -1.832,-4.049 l 4.595,-14.711 c -0.034,-2.041 -0.594,-3.227 -1.734,-3.487 -0.01,-0.003 -0.02,-0.005 -0.03,-0.007 -3.785,1.338 -7.269,2.046 -8.554,0.793 -1.644,-1.608 0.5,-4.448 3.156,-6.598 l 8.366,-9.049 -0.001,-0.002 c 2.173,-3.238 5.537,-4.557 9.438,-4.955 0.193,-0.027 0.375,-0.045 0.549,-0.049 0.667,-0.054 1.35,-0.082 2.042,-0.092 1.844,-0.023 13.623,-0.916 15.106,15.764 C 1.322,-2.945 0.896,-1.424 0,0 Z"
           style="fill:none;stroke:#211d1d;stroke-width:1;stroke-linecap:butt;stroke-linejoin:miter;stroke-miterlimit:4;stroke-dasharray:none;stroke-opacity:1"
           id="path386" /></g><text
         transform="matrix(1.33333,0,0,1.33333,0,1344)"
         style="font-variant:normal;font-weight:normal;font-stretch:normal;font-size:8px;font-family:Verdana;-inkscape-font-specification:Verdana;writing-mode:lr-tb;fill:#110f0d;fill-opacity:1;fill-rule:nonzero;stroke:none"
         id="text390"
         x="410.85641"
         y="-554"><tspan
           x="410.85641 464.0004"
           y="-554"
           id="tspan388">12</tspan></text></g></g></svg>
